<?xml version="1.0" standalone="no"?>
<!DOCTYPE svg PUBLIC "-//W3C//DTD SVG 20010904//EN"
 "http://www.w3.org/TR/2001/REC-SVG-20010904/DTD/svg10.dtd">
<svg version="1.0" xmlns="http://www.w3.org/2000/svg"
 width="513.000000pt" height="513.000000pt" viewBox="0 0 513.000000 513.000000"
 preserveAspectRatio="xMidYMid meet">
<metadata>
Created by potrace 1.14, written by Peter Selinger 2001-2017
</metadata>
<g transform="translate(0.000000,513.000000) scale(0.100000,-0.100000)"
fill="#000000" stroke="none">
<path d="M2378 4880 c-819 -74 -1523 -570 -1831 -1292 -25 -57 -54 -133 -65
-169 -11 -35 -45 -144 -76 -242 -256 -812 -380 -1453 -363 -1887 11 -271 56
-414 174 -555 169 -201 401 -309 663 -308 97 0 123 4 168 23 88 38 142 120
142 214 0 20 3 36 6 36 3 0 27 -17 53 -39 129 -108 355 -230 541 -292 255 -85
413 -103 857 -96 347 5 409 11 600 63 201 54 444 171 603 290 39 30 73 54 74
54 2 0 6 -18 10 -41 14 -85 68 -157 146 -192 65 -29 261 -28 375 2 198 53 369
169 490 332 57 77 80 128 106 234 88 367 4 1023 -237 1845 -31 107 -70 251
-86 320 -98 425 -285 766 -579 1061 -340 342 -795 562 -1300 628 -113 15 -360
21 -471 11z m382 -1700 c223 -17 633 -80 570 -87 -234 -30 -424 -136 -558
-314 -46 -61 -104 -173 -123 -236 l-12 -43 -82 0 -82 0 -31 83 c-90 238 -290
421 -526 483 -34 9 -108 19 -166 23 l-105 6 140 28 c128 25 333 52 460 60 118
8 390 6 515 -3z m-1420 -194 c-41 -24 -102 -68 -134 -97 l-59 -54 6 34 c4 18
7 39 7 45 1 26 22 39 126 76 60 21 113 39 119 39 5 1 -24 -19 -65 -43z m2547
-41 c38 -15 71 -29 74 -33 4 -4 10 -29 14 -57 l7 -50 -44 46 c-23 25 -63 62
-88 82 -25 20 -42 37 -38 37 4 0 38 -11 75 -25z m-2010 -166 c204 -76 333
-265 333 -489 0 -201 -110 -380 -287 -467 -76 -38 -78 -38 -198 -38 l-121 0
-86 42 c-312 155 -382 574 -138 828 135 140 325 187 497 124z m1589 20 c174
-32 330 -173 384 -347 24 -76 27 -221 6 -297 -39 -146 -140 -269 -273 -333
-77 -36 -80 -37 -199 -37 -119 0 -121 0 -198 39 -184 90 -286 257 -286 466 0
153 46 266 150 370 75 76 145 116 233 135 78 17 109 18 183 4z m-852 -569 c28
-341 254 -621 573 -712 101 -29 285 -31 382 -4 86 23 175 65 248 114 77 52
190 173 231 248 l33 59 -4 -325 c-3 -213 -8 -335 -16 -353 -35 -87 -240 -302
-392 -410 -114 -81 -300 -176 -429 -217 -195 -64 -287 -72 -714 -67 -368 4
-385 5 -486 30 -367 89 -683 295 -912 594 l-71 93 -8 112 c-9 134 -11 443 -3
476 6 20 8 19 33 -20 74 -117 181 -212 306 -274 129 -63 196 -78 345 -78 114
0 133 3 220 33 131 44 220 100 315 196 132 134 204 288 226 484 l12 101 52 0
52 0 7 -80z"/>
<path d="M1700 2449 c-114 -46 -139 -213 -44 -288 71 -56 157 -48 217 18 57
63 61 139 13 212 -40 59 -120 84 -186 58z"/>
<path d="M3282 2444 c-83 -42 -114 -142 -72 -229 53 -110 200 -123 271 -24 33
46 35 153 3 195 -50 67 -135 92 -202 58z"/>
<path d="M2147 1415 c-65 -23 -97 -65 -97 -131 0 -85 123 -241 239 -303 203
-108 450 -71 613 91 110 109 144 210 98 285 -52 86 -193 86 -238 0 -10 -18
-40 -55 -68 -83 -77 -78 -169 -93 -264 -44 -42 21 -71 52 -114 117 -44 68
-103 92 -169 68z"/>
</g>
</svg>
