<svg xmlns="http://www.w3.org/2000/svg" width="111" height="82" fill="none" xmlns:v="https://vecta.io/nano"><g clip-path="url(#A)"><g fill="#37352f"><path d="M60.383 60.044h-1.449v-.969h.48v-.48h.968v1.449zm-3.408 0h-1.96v-.968h1.96v.968zm-3.919 0h-1.96v-.968h1.96v.968zm-3.919 0h-1.96v-.968h1.96v.968zm-3.919 0h-1.96v-.968h1.96v.968zm-3.919 0h-1.96v-.968h1.96v.968zm-3.912 0h-1.96v-.968h1.96v.968zm-3.919 0H31.5v-.968h1.96l.008.968zm-3.919 0h-1.96v-.968h1.96v.968zm-3.919 0h-1.96v-.968h1.96v.968zm-3.919 0h-1.96v-.968h1.99l-.03.968zm-3.919 0h-1.96v-.968h1.96v.968zm-3.919 0h-1.96v-.968h1.96v.968zm-3.919 0h-1.96v-.968h1.96v.968zm-3.919 0H4.586v-1.449h.969v.48h.481v.969zm-.481-3.416h-.969v-1.96h.969v1.96zm0-3.919h-.969v-1.952h.969v1.952zm0-3.912h-.969v-1.96h.969v1.96zm0-3.919h-.969v-1.96h.969v1.96zm0-3.919h-.969v-1.96h.969v1.96zm0-3.919h-.969v-1.96h.969v1.96zm0-3.919h-.969v-1.96h.969v1.96zm0-3.919h-.969v-1.945h.969v1.945zm0-3.919h-.969v-1.96h.969v1.96zm0-3.919h-.969v-1.96h.969v1.96zm0-3.919h-.969v-1.96h.969v1.96zm0-3.912h-.969v-1.96h.969v1.96zm0-3.919h-.969v-1.96h.969v1.96zm0-3.921h-.969V4.244h1.449v.969h-.481v.481zm51.421-.488h-1.96v-.969h1.96v.969zm-3.919 0h-1.96v-.969h1.96v.969zm-3.919 0h-1.96v-.969h1.96v.969zm-3.919 0h-1.96v-.969h1.96v.969zm-3.919 0h-1.96v-.969h1.96v.969zm-3.912 0h-1.96v-.969h1.96v.969zm-3.919 0H31.5v-.969h1.96l.008.969zm-3.919 0h-1.96v-.969h1.96v.969zm-3.919 0h-1.96v-.969h1.96v.969zm-3.919 0h-1.96v-.969h1.99l-.03.969zm-3.919 0h-1.96v-.969h1.96v.969zm-3.919 0h-1.96v-.969h1.96v.969zm-3.919 0h-1.96v-.969h1.96v.969zm50.429.488h-.968v-.481h-.48v-.969h1.449v1.449zm0 50.935h-.968v-1.96h.968v1.96zm0-3.919h-.968v-1.952h.968v1.952zm0-3.912h-.968v-1.96h.968v1.96zm0-3.919h-.968v-1.96h.968v1.96zm0-3.919h-.968v-1.96h.968v1.96zm0-3.919h-.968v-1.96h.968v1.96zm0-3.919h-.968v-1.96h.968v1.96zm0-3.919h-.968v-1.945h.968v1.945zm0-3.919h-.968v-1.96h.968v1.96zm0-3.919h-.968v-1.96h.968v1.96zm0-3.919h-.968v-1.96h.968v1.96zm0-3.912h-.968v-1.96h.968v1.96zm0-3.919h-.968v-1.96h.968v1.96z"/></g><g stroke="#37352f" stroke-linejoin="round"><path d="M33.152 38.661H22.205l-4.219 11.938h4.144v1.051h-8.491v-1.051h2.598l14.093-37.968h4.505l13.935 37.968h2.545v1.051H33.257v-1.051h3.927l-4.032-11.938zm-10.451-1.216h10.008l-4.813-14.475-5.195 14.475z" fill="#e2f1ff"/><g fill="#fff"><path d="M1.431 63.197h7.268v-7.268H1.431v7.268zm0-27.419h7.268V28.51H1.431v7.268zm27.458 27.419h7.268v-7.268h-7.268v7.268zm27.375 0h7.268v-7.268h-7.268v7.268zm0-27.419h7.268V28.51h-7.268v7.268zm0-27.42h7.268V1.091h-7.268v7.268zm-27.375 0h7.268V1.091h-7.268v7.268zm-27.458 0h7.268V1.091H1.431v7.268zm102.897 24.905l-5.504-5.533 4.648-4.617c.732-.731 1.724-1.142 2.759-1.142s2.027.411 2.759 1.142a3.9 3.9 0 0 1 1.142 2.759c0 1.035-.411 2.027-1.142 2.759l-4.662 4.632z"/><path d="M106.265 31.348L83.741 53.684a3.9 3.9 0 0 1-2.761 1.133 3.9 3.9 0 0 1-2.753-1.152 3.9 3.9 0 0 1-1.133-2.761 3.9 3.9 0 0 1 1.151-2.753l22.487-22.344 5.533 5.541z"/></g></g><g fill="#37352f"><path d="M76.783 55.126a1 1 0 0 1 0-1.404l5.091-5.053 1.389 1.404-5.083 5.053a.99.99 0 0 1-1.397 0z"/><path d="M83.305 50.073l-5.09 5.06c-.187.185-.44.288-.704.287s-.515-.107-.7-.294a.99.99 0 0 1-.287-.704c.001-.263.107-.515.294-.7l.863-.848 4.227-4.205 1.397 1.404z"/></g><g stroke="#37352f" stroke-linejoin="round"><path d="M107.916 32.47l-8.227-8.284-3.905 3.878 8.227 8.284 3.905-3.878z" fill="#fff"/><g fill="#e2f1ff"><path d="M92.128 45.388l-8.356 8.259a3.88 3.88 0 0 1-4.723.586l-.863.863a.99.99 0 0 1-1.404-.007.99.99 0 0 1-.287-.703c.001-.263.107-.515.294-.701l.863-.848a3.89 3.89 0 0 1 .616-4.722l2.823-2.8 11.037.075zm-15.01 19.296c-2.831 0-1.862-5.578 0-7.448 1.914 1.915 2.831 7.448 0 7.448zm-6.823 16.72h13.68V69.286h-13.68v12.118z"/></g><path d="M52.943 81.404h13.68V69.286h-13.68v12.118z" fill="#defdff"/><path d="M35.586 81.404h13.68V69.286h-13.68v12.118z" fill="#fff3e8"/><path d="M18.227 81.404h13.68V69.286h-13.68v12.118z" fill="#fbe9f2"/><path d="M.875 81.404h13.68V69.286H.875v12.118z" fill="#fff"/></g></g><defs><clipPath id="A"><path fill="#fff" transform="translate(.5 .715)" d="M0 0h110v81.064H0z"/></clipPath></defs></svg>