<svg xmlns="http://www.w3.org/2000/svg" width="201" height="176" fill="none" xmlns:v="https://vecta.io/nano"><g clip-path="url(#A)"><g stroke="#37352f" stroke-linejoin="round"><path d="M200.354 1.441h-43.693v173.117h43.693V1.441z" fill="#fff3e8"/><path d="M140.211 45.532H54.993v75.863h85.218V45.532z" fill="#e2f1ff"/><path d="M148.205 1.441H46.357v29.18h101.848V1.441z" fill="#defdff"/><path d="M38.555 1.441H1.638v119.941h36.918V1.441z" fill="#fff3e8"/><path d="M148.385 136.293H1.638v38.253h146.747v-38.253z" fill="#defdff"/><g fill="#fff"><path d="M30.728 45.532H9.465v7.776h21.263v-7.776zm109.483 108.277h-32.786v11.998h32.786v-11.998zm53.252-87.001h-29.911v10.946h29.911V66.808zm-63.21 30.604H95.748v12.627h34.505V97.412zm11.537-81.38h-23.239v8.508h23.239v-8.508z"/></g></g><g fill="#37352f"><path d="M14.161 49.651a1.8 1.8 0 0 1 .136-.714c.093-.226.232-.431.408-.601a1.81 1.81 0 0 1 .613-.391 1.79 1.79 0 0 1 .717-.116 1.75 1.75 0 0 1 .694.125 1.76 1.76 0 0 1 .589.388l-.244.244c-.139-.14-.305-.25-.489-.322a1.46 1.46 0 0 0-.576-.101 1.49 1.49 0 0 0-1.489 1.489 1.49 1.49 0 0 0 1.489 1.489c.198.007.396-.028.579-.104a1.4 1.4 0 0 0 .486-.333l.244.244a1.77 1.77 0 0 1-1.283.526c-.245.011-.489-.029-.717-.116a1.8 1.8 0 0 1-1.021-.992c-.094-.226-.14-.469-.136-.714zm3.928-2.014h.398v3.85h-.359l-.039-3.85zm1.295.256a.25.25 0 0 1 .021-.101c.014-.032.034-.061.059-.085s.055-.043.088-.055.067-.017.102-.016a.27.27 0 0 1 .186.464.27.27 0 0 1-.455-.208zm.077.86h.372v2.695h-.372v-2.695zm1.117 1.348c-.014-.185.013-.371.078-.544a1.29 1.29 0 0 1 .299-.462c.132-.131.29-.231.464-.294s.36-.088.545-.073c.208-.012.415.031.602.123a1.2 1.2 0 0 1 .463.403l-.282.192a.9.9 0 0 0-.783-.398 1.05 1.05 0 0 0-.744.308c-.197.197-.308.465-.308.744a1.05 1.05 0 0 0 1.052 1.052.9.9 0 0 0 .783-.398l.282.18a1.2 1.2 0 0 1-.461.41c-.187.094-.395.139-.604.128a1.28 1.28 0 0 1-.545-.073 1.29 1.29 0 0 1-.763-.756c-.065-.174-.092-.359-.078-.544zm4.119-.013l-.642.59v.77h-.359v-3.85h.359v2.566l1.617-1.463h.513l-1.155 1.091 1.283 1.604h-.449l-1.168-1.309zm99.397-29.86a1.8 1.8 0 0 1 .137-.717 1.79 1.79 0 0 1 .411-.603 1.8 1.8 0 0 1 .617-.39 1.79 1.79 0 0 1 .721-.112 1.76 1.76 0 0 1 .696.131 1.75 1.75 0 0 1 .587.395l-.243.244a1.4 1.4 0 0 0-1.065-.436 1.49 1.49 0 0 0-1.489 1.488 1.49 1.49 0 0 0 1.489 1.489c.197.006.393-.028.576-.101a1.44 1.44 0 0 0 .489-.322l.243.231a1.73 1.73 0 0 1-.585.404 1.72 1.72 0 0 1-.698.135 1.81 1.81 0 0 1-.722-.117 1.82 1.82 0 0 1-.617-.394c-.176-.172-.316-.378-.41-.606a1.81 1.81 0 0 1-.137-.719zm3.927-2.002h.372v3.85h-.372v-3.85zm1.308.256c0-.068.027-.133.075-.181s.114-.075.182-.075a.26.26 0 0 1 .099.015c.032.011.061.029.086.051s.045.05.06.081a.24.24 0 0 1 .024.097.27.27 0 0 1-.079.191c-.051.051-.119.079-.19.079-.034 0-.067-.007-.098-.02s-.06-.032-.084-.056-.042-.052-.055-.083-.02-.065-.02-.098zm.077.847h.359v2.695h-.359v-2.695zm1.103 1.348a1.29 1.29 0 0 1 .381-1.01 1.28 1.28 0 0 1 .469-.293c.176-.062.363-.086.549-.069.207-.011.414.034.599.128a1.18 1.18 0 0 1 .453.411l-.269.18a.94.94 0 0 0-.783-.398 1.05 1.05 0 0 0-.744.308c-.197.197-.308.465-.308.744s.111.547.308.744a1.05 1.05 0 0 0 .744.308.94.94 0 0 0 .783-.398l.269.192c-.115.171-.272.31-.456.402s-.39.135-.596.124a1.28 1.28 0 0 1-1.018-.362 1.29 1.29 0 0 1-.302-.463c-.066-.175-.092-.361-.079-.548zm4.12 0l-.629.577v.77h-.359v-3.85h.333v2.566l1.604-1.476h.462l-1.155 1.104 1.284 1.591h-.45l-1.09-1.283zM171.88 72.3a2.26 2.26 0 0 1 .17-.901 2.24 2.24 0 0 1 .514-.759 2.26 2.26 0 0 1 1.677-.637 2.15 2.15 0 0 1 .894.156 2.14 2.14 0 0 1 .749.511l-.308.295c-.166-.172-.365-.309-.586-.402a1.76 1.76 0 0 0-.697-.137 1.87 1.87 0 0 0-.763.095 1.88 1.88 0 0 0-.661.394 1.87 1.87 0 0 0-.447.626c-.104.237-.158.494-.158.753a1.88 1.88 0 0 0 .158.753 1.87 1.87 0 0 0 .447.626 1.88 1.88 0 0 0 .661.394 1.87 1.87 0 0 0 .763.095 1.76 1.76 0 0 0 .697-.137c.221-.093.42-.23.586-.402l.308.295a2.2 2.2 0 0 1-.757.51 2.19 2.19 0 0 1-.898.158c-.307.012-.612-.038-.898-.148s-.547-.276-.767-.49a2.25 2.25 0 0 1-.511-.753 2.28 2.28 0 0 1-.173-.893zm4.915-2.528h.462v4.773h-.462v-4.773zm1.63.321a.33.33 0 0 1 .056-.185c.037-.055.089-.098.15-.123s.128-.032.193-.019a.33.33 0 0 1 .17.091c.047.047.079.106.092.171s.006.132-.019.193-.068.113-.123.15-.12.056-.186.056a.33.33 0 0 1-.235-.098c-.062-.063-.098-.147-.098-.236zm.102 1.078h.45v3.375h-.45v-3.375zm1.386 1.681a1.66 1.66 0 0 1 .493-1.233 1.66 1.66 0 0 1 1.24-.474 1.45 1.45 0 0 1 .73.162c.226.117.416.291.553.505l-.334.231a1.14 1.14 0 0 0-.988-.5 1.32 1.32 0 0 0-.93 2.245c.247.247.581.385.93.385a1.14 1.14 0 0 0 .559-.123c.173-.087.321-.218.429-.378l.334.231c-.139.212-.33.385-.554.502s-.476.174-.729.166a1.66 1.66 0 0 1-1.245-.478 1.65 1.65 0 0 1-.374-.569 1.66 1.66 0 0 1-.114-.672zm5.145 0l-.795.731v.962h-.45v-4.773h.45v3.234l2.014-1.835h.565l-1.437 1.322 1.578 2.002h-.565l-1.36-1.642zm-70.627 87.014a2.71 2.71 0 0 1 .228-1.065c.147-.336.361-.639.628-.89s.584-.444.928-.569a2.71 2.71 0 0 1 1.078-.158c.367-.017.733.046 1.074.183s.649.346.902.612l-.359.36a2.18 2.18 0 0 0-.736-.488c-.276-.11-.571-.163-.868-.154-.592 0-1.16.235-1.579.654s-.654.987-.654 1.579.235 1.16.654 1.579.987.654 1.579.654a2.13 2.13 0 0 0 .871-.157c.277-.113.526-.282.733-.498l.359.372c-.258.26-.566.463-.906.598s-.705.198-1.07.185c-.376.022-.752-.035-1.105-.167s-.674-.337-.943-.6a2.7 2.7 0 0 1-.621-.929c-.14-.35-.206-.725-.193-1.101zm5.903-3.016h.539v5.71h-.539v-5.71zm1.95.334a.4.4 0 0 1 .117-.282c.074-.074.175-.116.281-.116a.4.4 0 0 1 .398.398c0 .105-.042.206-.117.281s-.176.116-.281.116-.207-.041-.281-.116a.4.4 0 0 1-.117-.281zm.116 1.283h.551v4.055h-.526l-.025-4.055zm1.668 2.066a1.99 1.99 0 0 1 .141-.803c.101-.254.254-.486.45-.678a1.98 1.98 0 0 1 .684-.442c.256-.098.53-.143.804-.13.312-.02.624.044.903.183s.517.351.688.612l-.41.283c-.13-.192-.306-.348-.513-.454a1.37 1.37 0 0 0-.668-.149 1.58 1.58 0 0 0-1.116.462c-.296.296-.462.697-.462 1.116a1.58 1.58 0 0 0 1.578 1.578c.231.01.46-.039.667-.142a1.37 1.37 0 0 0 .514-.448l.41.269a1.77 1.77 0 0 1-.687.618 1.78 1.78 0 0 1-.904.191c-.274.011-.549-.035-.805-.135s-.489-.252-.684-.446a1.98 1.98 0 0 1-.449-.681c-.102-.256-.15-.529-.141-.804zm6.185-.013l-.962.885v1.155h-.539v-5.71h.539v3.85l2.412-2.207h.68l-1.732 1.655 1.899 2.4h-.667l-1.63-2.028zm-26.255-56.692c-.004-.368.068-.734.21-1.074a2.7 2.7 0 0 1 1.545-1.489 2.73 2.73 0 0 1 1.081-.17 2.57 2.57 0 0 1 1.066.18 2.56 2.56 0 0 1 .898.603l-.36.359a2.11 2.11 0 0 0-1.591-.641c-.592 0-1.16.235-1.579.653a2.23 2.23 0 0 0-.654 1.579c0 .592.236 1.16.654 1.579a2.23 2.23 0 0 0 1.579.654 2.13 2.13 0 0 0 .864-.152c.274-.111.521-.277.727-.49l.36.36c-.254.266-.561.475-.902.612a2.55 2.55 0 0 1-1.075.183c-.368.016-.736-.044-1.08-.175s-.659-.332-.923-.589a2.71 2.71 0 0 1-.615-.906 2.72 2.72 0 0 1-.205-1.076zm5.903-3.015h.552v5.71h-.552v-5.71zm1.951.385a.39.39 0 0 1 .121-.273c.074-.072.173-.112.276-.112a.38.38 0 0 1 .149.024.4.4 0 0 1 .127.079c.037.035.067.076.088.122a.39.39 0 0 1 .034.147c.002.051-.007.106-.026.156a.39.39 0 0 1-.216.223.4.4 0 0 1-.156.031c-.105 0-.206-.041-.281-.116s-.116-.176-.116-.281zm.115 1.283h.552v4.042h-.552v-4.042zm1.669 2.015c-.01-.276.038-.55.141-.806a1.98 1.98 0 0 1 1.142-1.121 1.99 1.99 0 0 1 .808-.127 1.75 1.75 0 0 1 .899.209c.275.149.506.37.667.638l-.411.27a1.36 1.36 0 0 0-.506-.452c-.204-.106-.432-.158-.662-.151a1.58 1.58 0 0 0-1.116.462c-.296.296-.462.697-.462 1.116s.166.82.462 1.116a1.58 1.58 0 0 0 1.116.462c.23.016.46-.031.665-.135a1.28 1.28 0 0 0 .503-.455l.411.282a1.8 1.8 0 0 1-.685.606c-.276.139-.584.205-.894.19-.278.011-.555-.036-.814-.138s-.494-.257-.69-.455a2.02 2.02 0 0 1-.446-.695 1.99 1.99 0 0 1-.128-.816zm6.223 0l-.963.872v1.155h-.539v-5.71h.539v3.849l2.426-2.207h.667l-1.72 1.643 1.887 2.399h-.668l-1.629-2.001z"/></g></g><defs><clipPath id="A"><path fill="#fff" transform="translate(.996 .8)" d="M0 0h200v174.4H0z"/></clipPath></defs></svg>