<svg xmlns="http://www.w3.org/2000/svg" width="101" height="100" fill="none" xmlns:v="https://vecta.io/nano"><g clip-path="url(#A)"><path d="M100.855 0h-100v100h100V0z" fill="#2a2b33"/><path d="M39.506 17.1h11.35V39h-11.35a11 11 0 0 1-11-11 11 11 0 0 1 11-10.9z" fill="#e54e22"/><path d="M39.506 39h11.35v22h-11.35a11 11 0 0 1-11-11 11 11 0 0 1 11-11z" fill="#775ea6"/><path d="M62.196 39.03h-.37a10.97 10.97 0 0 0-10.97 10.965 10.97 10.97 0 0 0 10.97 10.965h.37a10.97 10.97 0 0 0 10.97-10.965 10.97 10.97 0 0 0-10.97-10.965z" fill="#35b1e7"/><path d="M39.506 61h11.35v10.55a11.35 11.35 0 0 1-3.324 8.026 11.35 11.35 0 0 1-8.026 3.324 11 11 0 0 1-11-11 11 11 0 0 1 11-11v.1z" fill="#43b57c"/><path d="M62.205 39.03h-11.35V17.1h11.35a11 11 0 0 1 11 11 11 11 0 0 1-11 10.93z" fill="#ec6d61"/></g><defs><clipPath id="A"><path fill="#fff" transform="translate(.855)" d="M0 0h100v100H0z"/></clipPath></defs></svg>