<svg xmlns="http://www.w3.org/2000/svg" xmlns:xlink="http://www.w3.org/1999/xlink" width="121" height="102" fill="none" xmlns:v="https://vecta.io/nano"><style><![CDATA[.B{fill:#fff}.C{fill:#e2f1ff}.D{fill:#37352f}.E{stroke:#37352f}.F{stroke-linejoin:round}.G{fill:#fff3e8}.H{fill:#defdff}]]></style><g clip-path="url(#A)"><g class="E F"><path d="M98.485.571H15.766v82.545h82.719V.571z" class="G"/><path d="M98.536.571h-82.77v4.991h82.77V.571z" class="B"/><path d="M19.695 3.055a1.04 1.04 0 0 1-.643.96 1.04 1.04 0 0 1-1.133-.228 1.04 1.04 0 0 1-.221-1.135 1.04 1.04 0 0 1 .965-.636 1.04 1.04 0 0 1 1.032 1.039z" fill="#fbe9f2"/><use xlink:href="#B" class="G"/><path d="M28.164 3.055a1.04 1.04 0 0 1-.641.96 1.04 1.04 0 0 1-1.132-.225 1.04 1.04 0 0 1-.225-1.132 1.04 1.04 0 0 1 .96-.641 1.04 1.04 0 0 1 1.039 1.039z" class="H"/><path d="M87.391 14.002H26.908v60.483h60.483V14.002z" class="B"/></g><path d="M57.112 64.599v-.472a21.03 21.03 0 0 0 19.429-12.982 21.03 21.03 0 0 0-4.559-22.919 21.03 21.03 0 0 0-22.919-4.559 21.03 21.03 0 0 0-12.982 19.43h-.472c0-4.253 1.261-8.41 3.624-11.946s5.721-6.292 9.65-7.92 8.252-2.053 12.424-1.224 8.002 2.878 11.01 5.885 5.055 6.839 5.885 11.01a21.5 21.5 0 0 1-1.224 12.424c-1.627 3.929-4.383 7.287-7.92 9.65a21.5 21.5 0 0 1-11.946 3.624z" class="C"/><path d="M36.998 43.096c0 .228-.068.452-.195.642s-.307.338-.518.425-.443.11-.667.066-.43-.154-.591-.316-.271-.367-.316-.591-.022-.456.066-.667.236-.392.425-.518.413-.195.642-.195c.152 0 .302.03.442.088s.267.143.375.25.192.235.25.375.088.29.088.442z" class="B"/><g class="C"><path d="M35.844 44.462c-.276 0-.546-.082-.776-.236a1.4 1.4 0 0 1-.514-.627c-.106-.255-.133-.536-.078-.807a1.4 1.4 0 0 1 .384-.714c.196-.195.445-.327.716-.38a1.4 1.4 0 0 1 .806.082c.254.106.472.287.624.517a1.4 1.4 0 0 1 .232.777c-.002.369-.15.722-.411.982s-.615.406-.984.406zm0-2.31c-.183 0-.361.054-.513.155a.92.92 0 0 0-.392.947c.036.179.123.343.252.472s.293.217.472.253a.92.92 0 0 0 .947-.393c.101-.152.155-.33.155-.513a.92.92 0 0 0-.278-.638c-.173-.168-.404-.263-.645-.263v-.022zm14.811-3.501c0 .496-.147.98-.422 1.392s-.667.733-1.125.923a2.51 2.51 0 0 1-1.448.143c-.486-.096-.933-.335-1.283-.686s-.589-.797-.686-1.283a2.5 2.5 0 0 1 .143-1.448c.19-.458.511-.849.923-1.125a2.5 2.5 0 0 1 1.392-.422c.665 0 1.302.264 1.772.734s.734 1.107.734 1.772zm15.422 2.513c1.384 0 2.506-1.122 2.506-2.506s-1.122-2.506-2.506-2.506-2.506 1.122-2.506 2.506 1.122 2.506 2.506 2.506z"/></g><path d="M78.376 44.251c.638 0 1.155-.517 1.155-1.155s-.517-1.155-1.155-1.155-1.155.517-1.155 1.155.517 1.155 1.155 1.155z" class="B E F"/><path d="M78.375 44.462c-.276 0-.546-.082-.776-.236s-.408-.372-.514-.627-.132-.536-.078-.807.188-.519.384-.714.445-.327.716-.38.552-.024.806.082.472.287.624.517.233.501.231.777c-.002.369-.15.722-.411.982s-.615.406-.984.406zm0-2.31c-.183 0-.361.054-.513.155a.92.92 0 0 0-.392.947.92.92 0 0 0 .252.472c.129.129.293.217.472.253s.365.017.533-.053.313-.188.414-.34a.92.92 0 0 0 .155-.513c-.006-.241-.105-.47-.278-.638s-.404-.263-.645-.263v-.022z" class="C"/><path d="M58.267 21.826c0 .229-.068.452-.195.642s-.307.338-.518.425-.443.11-.667.066-.43-.155-.591-.316-.271-.367-.316-.591-.022-.456.066-.667.235-.391.425-.518.413-.195.642-.195c.306 0 .6.122.817.338s.338.51.338.817z" class="B"/><path d="M57.113 23.221c-.276.002-.547-.079-.777-.232s-.41-.37-.517-.624-.135-.535-.082-.806.185-.52.38-.716.443-.329.714-.384.552-.027.807.078.474.284.627.514.236.5.236.776c0 .369-.146.722-.406.984s-.613.409-.981.411zm0-2.31a.92.92 0 0 0-.515.152c-.153.101-.272.245-.343.414s-.09.355-.054.535.123.345.253.474.294.217.474.253a.92.92 0 0 0 .948-.397c.101-.153.154-.332.153-.515-.002-.242-.099-.474-.27-.645s-.403-.268-.645-.27z" class="C"/><g class="D"><path d="M61.705 67.054c.743 1.855 1.056 3.854.915 5.848l-2.179 1.053a13.17 13.17 0 0 1-4.046-4.315c1.605-2.317.312-5.085.312-5.085l.225-.102 2.136 4.359c-.167.106-.284.274-.327.466s-.008.395.099.561.274.284.467.327.395.008.561-.099c.186-.066.338-.202.423-.38s.096-.382.031-.568-.202-.338-.38-.423-.382-.096-.568-.031l-2.136-4.359.225-.109s1.431 2.702 4.242 2.855z"/><path d="M62.997 72.397l-3.172 1.549.654 1.338 3.172-1.549-.654-1.338zm2.717.396h-.276v2.644h.276v-2.644z"/><path d="M66.898 73.977h-2.644v.276h2.644v-.276z"/><path d="M66.413 73.088l-1.87 1.87.195.195 1.87-1.87-.195-.195z"/><path d="M64.732 73.082l-.195.195 1.87 1.87.195-.195-1.87-1.87zm.836-4.698c-2.085-.058-2.782-1.453-3.407-2.615a3.69 3.69 0 0 0-1.184-1.598c-1.663-.973-3.233.443-3.305.508l-.37-.407s1.932-1.751 3.952-.574a4.14 4.14 0 0 1 1.402 1.816c.596 1.169 1.17 2.274 2.906 2.317l.007.552z"/></g><path d="M61.821 38.091a4.72 4.72 0 0 1-4.722 4.722 4.72 4.72 0 0 1-4.722-4.722h9.444z" class="C"/><path d="M22.07 22.749H.684v78.68H22.07v-78.68z" class="E F H"/><g class="D"><path d="M6.588 34.386l-.915-2.223-1.642 1.278V26.3l4.991 5.042-2.092.312.915 2.179-1.257.552zm-.77-2.775l.966 2.317.603-.254-.952-2.288 1.86-.283-3.908-3.945v5.572l1.431-1.119zm12.155-.094l.937 2.252-.937.385-.937-2.267-1.54 1.191V26.73l4.446 4.489-1.969.298zm-9.579 8.728l-4.339 5.57.413.321 4.339-5.57-.413-.322zm-2.379.701l-1.061.189-.24 1.126-.24-1.126-1.061-.196 1.061-.254.24-1.061.24 1.061 1.061.262zm2.354-1.772l-.625.116-.138.654-.138-.654-.625-.123.617-.145.145-.625.138.625.625.152zm.733 3.523l-.356.065-.08.378-.08-.378-.356-.065.356-.087.08-.349.08.349.356.087zm9.601 17.482l-4.339 5.57.413.321 4.339-5.57-.413-.321zm-.73-16.007l.937 2.252-.937.385-.937-2.267-1.54 1.191v-6.349l4.446 4.489-1.969.298z"/><path d="M15.068 43.3a2.05 2.05 0 0 1-1.881-.799c-.37-.727-.087-2.252 2.179-3.487 1.809-.995 3.632-.581 4.053.131.099.185.157.389.169.599s-.02.419-.097.615c-.217.567-.549 1.083-.976 1.516a4.4 4.4 0 0 1-1.501.998c-.611.279-1.275.425-1.947.429zm2.528-4.533a4.36 4.36 0 0 0-2.056.552c-2.041 1.111-2.339 2.448-2.041 3.022s1.714.937 3.356.211a4.1 4.1 0 0 0 1.409-.904c.402-.395.719-.868.93-1.391.059-.149.087-.309.08-.469a1.15 1.15 0 0 0-.117-.461c-.199-.209-.443-.368-.715-.465s-.561-.129-.847-.094z"/><path d="M14.108 43.736a.82.82 0 0 1-.668-.334.77.77 0 0 1-.102-.806c.09-.163.221-.299.381-.395s.341-.147.527-.15a.79.79 0 0 1 .726.414.83.83 0 0 1-.32 1.111 1.04 1.04 0 0 1-.545.16zm-.385-.545a.54.54 0 0 0 .726.087c.056-.029.105-.069.146-.117s.07-.104.089-.165.024-.124.018-.186-.026-.123-.056-.178c-.037-.074-.096-.135-.169-.175s-.155-.058-.238-.05c-.121.002-.239.035-.345.094s-.194.145-.258.247c-.032.073-.042.154-.029.232s.048.152.102.211h.014z"/><path d="M15.059 44.694l-.225-.283c.102-.08.225-.196.211-.312s-.414-.421-.596-.494l.123-.327c.08 0 .726.312.821.777a.72.72 0 0 1-.082.364.73.73 0 0 1-.252.275zM4.192 52.453a8.72 8.72 0 0 1 3.443-1.816l1.111 1.09c-.338 1.269-.962 2.445-1.823 3.436a3.63 3.63 0 0 0-1.733.063c-.564.161-1.081.456-1.507.86l-.109-.116 2.259-2.267c.094.061.206.087.317.076a.48.48 0 0 0 .293-.141.5.5 0 0 0 0-.726c-.086-.082-.198-.131-.317-.137s-.236.031-.329.104a.49.49 0 0 0-.18.295c-.022.117-.003.238.057.341L3.415 55.78l-.116-.116a3.69 3.69 0 0 0 .832-1.498 3.67 3.67 0 0 0 .062-1.712z"/><path d="M7.227 50.484l1.644 1.644.693-.693-1.644-1.644-.693.694z"/></g><path d="M20.632 48.697h-8.557v7.998h8.557v-7.998z" class="G"/><g class="D"><path d="M15.175 52.453c.996-.857 2.173-1.478 3.443-1.816l1.111 1.09c-.338 1.269-.962 2.445-1.823 3.436-.573-.118-1.167-.096-1.729.065a3.63 3.63 0 0 0-1.503.858l-.116-.116 2.259-2.267c.094.061.206.087.317.076s.215-.062.294-.141a.5.5 0 0 0 .156-.363.5.5 0 0 0-.156-.363c-.086-.082-.198-.131-.317-.137s-.236.031-.329.104-.158.178-.18.295-.003.238.057.341l-2.259 2.274-.116-.116c.393-.428.678-.942.833-1.502s.176-1.147.06-1.716z"/><path d="M18.218 50.483l1.644 1.644.694-.693-1.644-1.644-.693.694zm-3.82 5.478a1.38 1.38 0 0 1-1.199-.603c-.247-.392-.399-1.148.262-2.521a1.3 1.3 0 0 0 .102-1.191c-.128-.172-.29-.316-.477-.422a1.57 1.57 0 0 0-.606-.196l.044-.349c.267.03.525.115.757.252s.432.321.587.54a1.63 1.63 0 0 1 .145.77c-.015.265-.095.521-.232.748-.596 1.228-.479 1.867-.283 2.179a1.03 1.03 0 0 0 .901.428v.363zM8.52 59.884v1.453h-.472a.19.19 0 0 1-.133-.04c-.038-.03-.063-.073-.07-.12 0-.051 0-.153-.044-.341H6.573v4.286h.247.123.051c.062.009.119.041.159.089s.061.11.059.173v.487h-2.39v-.487a.24.24 0 0 1 .211-.261h.051.123.24V60.83H4.22c0 .182 0 .298-.036.349-.007.046-.031.088-.067.118s-.082.045-.129.042h-.479v-1.453H8.52zm.845 17.653H3.248V71.42h6.117v6.117zm-5.594-.523h5.085v-5.085H3.771v5.085zm15.248 18.778h-5.288v-4.729h5.288v4.729zm-4.758-.523h4.206v-3.683h-4.206v3.683z"/><path d="M16.113 97.187H12.43V93.86h3.683v3.327zm-3.153-.523h2.601v-2.267H12.96v2.267zm4.89-4.631l-1.33 1.33.247.246 1.33-1.33-.247-.246z"/><path d="M18.228 92.944h-.349v-.697h-.668v-.349h1.017v1.046zm1.081-15.4h-6.124v-6.131h2.855a2.32 2.32 0 0 1 .835-1.485c.456-.371 1.037-.556 1.624-.516a2.33 2.33 0 0 1 1.54.73 2.32 2.32 0 0 1 .628 1.584 2.34 2.34 0 0 1-1.358 2.114v3.705zm-5.601-.53h5.085V73.52l.167-.065a1.79 1.79 0 0 0 .953-.786 1.8 1.8 0 0 0 .219-1.216c-.073-.419-.293-.797-.619-1.069s-.739-.419-1.163-.416c-.469-.002-.92.18-1.256.508a1.79 1.79 0 0 0-.539 1.243v.262h-2.833l-.014 5.034zm3.349-3.879c-.915-.153-1.046.806-1.061 1.184a1.05 1.05 0 0 1-.727.813s1.417.385 2.121-.334a.95.95 0 0 0-.334-1.663z"/><path d="M20.182 70.192l-2.288 3.24a1 1 0 0 0-.298-.359 1.02 1.02 0 0 0-.428-.186h-.16l1.903-2.68 1.271-.014zM8.383 84.188L6.775 82.58l-3.277 3.277 1.608 1.608 3.277-3.277z"/><path d="M9.342 83.218L7.734 81.61l-.693.693 1.608 1.608.693-.694zM3.35 87.605l.131-1.714.349.029-.102 1.3 1.308-.094.029.349-1.714.131zm14.81-2.724c-.245.001-.484-.07-.688-.205s-.363-.327-.458-.553a1.23 1.23 0 0 1-.073-.714c.047-.24.164-.461.336-.634s.392-.292.632-.34.488-.024.714.069.419.252.555.455.209.442.209.687c0 .326-.129.639-.359.871a1.23 1.23 0 0 1-.869.364zm0-1.947c-.144 0-.284.042-.404.122s-.213.193-.268.326-.069.279-.041.42.097.27.199.372.231.171.372.199.287.014.42-.041a.73.73 0 0 0 .326-.267c.08-.119.122-.26.122-.404-.008-.188-.087-.365-.223-.495s-.316-.203-.504-.202v-.029z"/><path d="M12.488 86.813l4.838-2.666.835.472-4.155 2.383a2.44 2.44 0 0 1-1.518-.189zm5.651.814c-.244 0-.483-.072-.686-.208s-.361-.329-.455-.554a1.23 1.23 0 0 1 .268-1.346c.173-.172.393-.29.632-.338s.488-.023.713.07a1.23 1.23 0 0 1 .554.455 1.24 1.24 0 0 1 .208.686 1.23 1.23 0 0 1-.362.873 1.24 1.24 0 0 1-.873.362zm0-1.947a.73.73 0 0 0-.403.122c-.119.079-.213.193-.268.326s-.069.279-.041.42.097.27.199.372.231.171.372.199.287.014.42-.041.246-.148.326-.268.122-.26.122-.404a.73.73 0 0 0-.213-.514c-.136-.137-.321-.213-.514-.213z"/><path d="M12.467 83.225l4.845 2.644.828-.472-4.148-2.383a2.47 2.47 0 0 0-1.526.211zm-9.19 13.17v-4.54l2.906 2.267-2.906 2.274zM3.8 92.93v2.383l1.526-1.199L3.8 92.93zm5.52-1.01v4.402l-2.797-2.201L9.32 91.92zm-2.868 4.62h-.174v-.727h.174v.727zm0-1.395h-.174v-.726h.174v.726zm0-1.402h-.174v-.726h.174v.726zm0-1.395h-.174v-.726h.174v.726z"/></g><path d="M119.965 20.526H75.914v26.137h44.051V20.526z" class="C E F"/><g class="D"><path d="M83.868 24.681h-.174v17.173h.174V24.681zm6.334 0h-.174v17.173h.174V24.681zm-9.639 1.62a2.18 2.18 0 0 0-1.802 1.003 2.26 2.26 0 0 0 .789.75 2.27 2.27 0 0 0 1.048.296 2.34 2.34 0 0 0 1.019-.314 2.36 2.36 0 0 0 .775-.732 2.24 2.24 0 0 0-1.831-1.003zm0 1.896c-.119.011-.238-.003-.351-.041a.86.86 0 0 1-.305-.179.87.87 0 0 1-.207-.287c-.049-.109-.073-.227-.073-.346a.86.86 0 0 1 .073-.346.84.84 0 0 1 .207-.287.87.87 0 0 1 .305-.179c.113-.038.233-.052.351-.041a.86.86 0 0 1 .555 1.431.86.86 0 0 1-.555.276z"/><path d="M81.142 27.307a.66.66 0 0 1-1.128.468.66.66 0 0 1 .468-1.128.65.65 0 0 1 .254.048c.08.033.154.081.215.143s.11.135.143.216a.65.65 0 0 1 .048.254zm-.579 4.936a2.18 2.18 0 0 0-1.802 1.039 2.26 2.26 0 0 0 .789.75 2.27 2.27 0 0 0 1.048.296 2.34 2.34 0 0 0 1.019-.314 2.36 2.36 0 0 0 .775-.732 2.24 2.24 0 0 0-1.83-1.039zm0 1.889a.85.85 0 0 1-.598-1.453.85.85 0 0 1 1.449.61.85.85 0 0 1-.85.843z"/><path d="M81.217 33.282a.66.66 0 0 1-1.129.468.66.66 0 0 1 .468-1.128.66.66 0 0 1 .661.661zm-.654 4.642a2.18 2.18 0 0 0-1.802 1.061 2.27 2.27 0 0 0 .789.751 2.26 2.26 0 0 0 1.048.296 2.34 2.34 0 0 0 1.019-.314 2.36 2.36 0 0 0 .775-.732 2.24 2.24 0 0 0-1.831-1.06zm0 1.896a.86.86 0 0 1-.656-.22.87.87 0 0 1-.207-.287c-.049-.109-.073-.227-.073-.346a.86.86 0 0 1 .28-.633.86.86 0 0 1 1.211.056.86.86 0 0 1-.555 1.431z"/><path d="M81.217 38.992a.66.66 0 0 1-1.129.468.66.66 0 0 1 .468-1.128.65.65 0 0 1 .254.048c.08.033.154.082.215.143s.11.135.143.215a.65.65 0 0 1 .048.254zm36.925-8.667H77.731v.174h40.411v-.174zm0 5.732H77.731v.174h40.411v-.174zm-23.247-7.504c-.027 0-.053-.011-.072-.03s-.03-.045-.03-.072v-2.717c0-.027.011-.053.03-.072s.045-.03.072-.03.053.011.072.03.03.045.03.072v2.615h1.395c.014-.001.028.001.041.006s.025.012.035.022.018.021.024.034.008.027.008.041c-.002.028-.014.053-.034.072s-.047.029-.075.029h-1.496zm3.908-1.947v1.874c0 .027-.011.053-.03.072s-.045.03-.072.03-.051-.013-.07-.032-.03-.044-.032-.07v-.305a.95.95 0 0 1-.763.407c-.272 0-.532-.108-.724-.3s-.3-.453-.3-.724.108-.532.3-.724.453-.3.724-.3a.94.94 0 0 1 .763.407v-.305c0-.027.011-.053.03-.072s.045-.03.072-.03.045.006.063.019a.1.1 0 0 1 .038.054zm-.203.923a.77.77 0 0 0-1.333-.474.77.77 0 0 0 .569 1.294.8.8 0 0 0 .763-.821zm3.408.007c.009-.251.112-.489.289-.667a1 1 0 0 1 .665-.293.99.99 0 0 1 .687.238 1 1 0 0 1 .342.642c-.001.012-.004.025-.01.036s-.013.021-.023.029-.02.014-.032.018-.024.005-.037.004h-1.678a.8.8 0 0 0 .792.785.77.77 0 0 0 .661-.37c.008-.009.018-.017.03-.022a.09.09 0 0 1 .036-.008c.013 0 .024.003.035.008s.022.012.03.022a.09.09 0 0 1 .031.025c.009.011.015.023.019.036s.004.027.001.04a.1.1 0 0 1-.015.037.96.96 0 0 1-.353.341c-.145.081-.308.124-.475.124a1.01 1.01 0 0 1-.385-.082c-.122-.052-.232-.128-.325-.224s-.165-.207-.214-.331a1.01 1.01 0 0 1-.071-.388zm.218-.167h1.547c-.031-.183-.125-.349-.267-.469s-.321-.185-.506-.185a.79.79 0 0 0-.507.185.78.78 0 0 0-.267.469zm2.352-.756c0-.014.003-.028.009-.041s.014-.024.024-.034.022-.017.035-.021a.1.1 0 0 1 .041-.006c.026.002.05.013.068.032a.1.1 0 0 1 .027.069v.45c-.003-.017-.003-.034 0-.051a.98.98 0 0 1 .813-.502c.027 0 .053.011.072.03s.03.045.03.072-.011.053-.03.072-.045.03-.072.03a.73.73 0 0 0-.335.094c-.102.058-.189.14-.253.24a1.85 1.85 0 0 0-.247.472v.959c0 .026-.01.051-.027.069s-.042.03-.067.032c-.014.001-.028-.001-.042-.006s-.025-.012-.035-.021-.018-.021-.024-.034-.008-.027-.008-.041l.021-1.867zm3.4-.682l-.414.24h-.051c-.018-.001-.035-.006-.05-.015s-.028-.021-.037-.036-.01-.025-.012-.038.001-.027.005-.04.01-.025.019-.035.019-.019.031-.025l.56-.341c.019-.016.044-.025.069-.025a.11.11 0 0 1 .069.025c.007.026.007.054 0 .08v2.761c0 .027-.011.053-.03.072s-.045.03-.072.03-.053-.011-.072-.03-.03-.045-.03-.072l.015-2.55z"/><use xlink:href="#C"/><path d="M98.803 32.621v1.845c0 .027-.011.053-.03.072s-.045.03-.072.03-.053-.011-.072-.03-.03-.045-.03-.072v-.305a.95.95 0 0 1-.763.407c-.256-.022-.494-.139-.668-.328a1.02 1.02 0 0 1 0-1.386c.174-.189.412-.306.668-.328a.93.93 0 0 1 .763.4v-.305a.1.1 0 0 1 .008-.038c.005-.012.013-.023.022-.032s.021-.016.033-.02.025-.006.038-.005.026.001.038.005.024.011.033.02.017.02.022.032a.1.1 0 0 1 .008.038zm-.203.944a.77.77 0 0 0-1.333-.474.77.77 0 0 0 .569 1.294.8.8 0 0 0 .763-.821zm1.032-.944c0-.025.01-.049.028-.067s.042-.028.067-.028c.013-.001.026.001.038.005s.024.011.033.02.017.02.022.032a.1.1 0 0 1 .008.038v1.104a.62.62 0 0 0 .045.241.63.63 0 0 0 .135.205c.058.059.128.105.204.137a.62.62 0 0 0 .241.048.66.66 0 0 0 .244-.046.63.63 0 0 0 .207-.137.62.62 0 0 0 .139-.206c.032-.077.049-.16.049-.244v-1.104c-.004-.008-.006-.017-.006-.025s.002-.017.006-.026c.012-.003.024-.003.036 0h.044.051c.003.007.005.014.005.022s-.002.015-.005.022v1.78c0 .127-.025.254-.074.371a.97.97 0 0 1-.212.314.96.96 0 0 1-.316.209c-.118.048-.244.072-.372.071a1.05 1.05 0 0 1-.421-.102c-.011-.006-.021-.014-.029-.024s-.014-.021-.017-.033a.12.12 0 0 1-.003-.038.09.09 0 0 1 .012-.036c.011-.022.03-.039.052-.049s.048-.01.071-.002c.104.053.218.08.334.08a.78.78 0 0 0 .778-.726v-.138a.88.88 0 0 1-.289.213c-.11.05-.23.076-.351.078a.83.83 0 0 1-.316-.066c-.1-.042-.191-.104-.267-.182s-.136-.169-.177-.27a.83.83 0 0 1-.06-.317l.065-1.126zm2.376.945c.009-.251.112-.489.289-.667s.415-.282.665-.292.497.075.687.238a1 1 0 0 1 .342.642c-.001.012-.004.025-.01.036s-.013.021-.023.029-.02.014-.032.018-.024.005-.037.004h-1.678a.8.8 0 0 0 .792.785.77.77 0 0 0 .661-.37c.008-.009.018-.017.03-.022a.09.09 0 0 1 .036-.008c.013 0 .024.003.035.008s.022.012.03.022.023.014.031.025.015.023.019.036.004.027.001.04a.1.1 0 0 1-.015.037.96.96 0 0 1-.353.341c-.145.081-.308.124-.475.124a1.01 1.01 0 0 1-.385-.082c-.122-.052-.232-.128-.325-.224s-.165-.207-.214-.331a1.01 1.01 0 0 1-.071-.388zm.218-.167h1.547c-.031-.183-.125-.349-.267-.469s-.321-.185-.506-.185a.79.79 0 0 0-.507.185.78.78 0 0 0-.267.469zm2.352-.771c0-.014.003-.028.009-.041s.014-.024.024-.034.022-.017.035-.021a.1.1 0 0 1 .041-.006c.026.002.05.013.068.032a.1.1 0 0 1 .027.069v.45c-.003-.017-.003-.034 0-.051a.98.98 0 0 1 .341-.357.99.99 0 0 1 .472-.145c.027 0 .053.011.072.03s.03.045.03.072-.011.053-.03.072-.045.03-.072.03a.73.73 0 0 0-.335.094c-.102.058-.189.141-.253.24a1.85 1.85 0 0 0-.247.472c-.003.012-.003.024 0 .036v.894c0 .026-.01.051-.027.069s-.042.03-.067.032c-.014.001-.028-.001-.042-.006s-.025-.012-.035-.022-.018-.021-.024-.034-.008-.027-.008-.041l.021-1.838z"/><path d="M107.498 34.386l1.366-1.228a.78.78 0 0 0 .182-.254c.043-.096.064-.2.065-.305a.73.73 0 0 0-.196-.501c-.069-.078-.154-.141-.25-.184a.72.72 0 0 0-.303-.063.79.79 0 0 0-.508.189l-.145.131c-.009.009-.02.017-.032.022s-.024.008-.037.008a.1.1 0 0 1-.038-.008c-.012-.005-.022-.013-.031-.022s-.018-.021-.023-.033-.008-.026-.008-.039.003-.027.008-.039.013-.024.023-.033l.145-.131c.177-.16.408-.249.646-.247.252.004.492.105.669.283a.97.97 0 0 1 .283.669c.004.136-.022.272-.076.397a.95.95 0 0 1-.236.329l-1.184 1.039h1.38c.027 0 .053.011.072.03s.03.045.03.072-.011.053-.03.072-.045.03-.072.03h-1.642a.09.09 0 0 1-.036.008c-.012 0-.025-.003-.037-.008a.11.11 0 0 1-.032-.042c-.007-.016-.011-.035-.009-.053s.007-.035.017-.051a.11.11 0 0 1 .039-.036zm-12.603 6.197c-.027 0-.053-.011-.072-.03s-.03-.045-.03-.072v-2.717c0-.027.011-.053.03-.072s.045-.03.072-.03.053.011.072.03.03.045.03.072v2.615h1.395c.027 0 .053.011.072.03s.03.045.03.072-.011.053-.03.072-.045.03-.072.03h-1.496zm3.908-1.932v1.845c0 .027-.011.053-.03.072s-.045.03-.072.03-.053-.011-.072-.03-.03-.045-.03-.072v-.32a.95.95 0 0 1-.763.407c-.256-.022-.494-.139-.668-.328a1.02 1.02 0 0 1 0-1.386c.174-.189.412-.306.668-.328a.93.93 0 0 1 .763.4v-.291a.1.1 0 0 1 .008-.038c.005-.012.013-.023.022-.032s.021-.016.033-.02.025-.006.038-.005.026.001.038.005.024.011.033.02.017.02.022.032a.1.1 0 0 1 .008.038zm-.203.922a.77.77 0 0 0-1.333-.473.77.77 0 0 0 .569 1.294.79.79 0 0 0 .763-.835v.014zm1.032-.923c0-.025.01-.049.028-.067s.042-.028.067-.028c.013-.001.026.001.038.005s.024.011.033.02.017.02.022.032a.1.1 0 0 1 .008.038v1.09a.62.62 0 0 0 .045.241.63.63 0 0 0 .339.343.62.62 0 0 0 .241.048.66.66 0 0 0 .244-.046.63.63 0 0 0 .207-.136.62.62 0 0 0 .139-.206c.032-.077.049-.16.049-.244v-1.09c-.004-.008-.006-.017-.006-.025s.002-.017.006-.026c.012-.003.024-.003.036 0h.044.051c.003.007.005.014.005.022s-.002.015-.005.022v1.78a.96.96 0 0 1-.074.371.97.97 0 0 1-.212.314.96.96 0 0 1-.316.209c-.118.048-.244.072-.372.071a1.05 1.05 0 0 1-.421-.102c-.011-.006-.021-.014-.029-.024s-.014-.021-.017-.033a.12.12 0 0 1-.003-.038.09.09 0 0 1 .012-.036c.011-.022.03-.039.052-.048s.048-.01.071-.002c.104.053.218.08.334.08a.77.77 0 0 0 .535-.207c.144-.135.231-.321.243-.519v-.131a.88.88 0 0 1-.289.213c-.11.05-.23.076-.351.077a.83.83 0 0 1-.316-.066c-.1-.042-.191-.104-.267-.182s-.136-.169-.177-.27a.83.83 0 0 1-.06-.318l.065-1.133zm2.376.916c.009-.251.112-.489.289-.667a1 1 0 0 1 .665-.293.99.99 0 0 1 .687.238 1 1 0 0 1 .342.642.09.09 0 0 1-.01.036.08.08 0 0 1-.023.029c-.01.008-.02.014-.032.018s-.024.005-.037.004h-1.678a.8.8 0 0 0 .792.785.77.77 0 0 0 .661-.37c.008-.009.018-.017.03-.022a.09.09 0 0 1 .036-.008c.013 0 .024.003.035.008s.022.013.03.022.023.015.031.025.015.023.019.036.004.027.001.04a.1.1 0 0 1-.015.037.96.96 0 0 1-.353.341c-.145.081-.308.124-.475.124a1.01 1.01 0 0 1-.385-.082c-.122-.052-.232-.128-.325-.224s-.165-.207-.214-.331a1.01 1.01 0 0 1-.071-.388zm.218-.167h1.547c-.031-.183-.125-.349-.267-.469s-.321-.186-.506-.186-.365.066-.507.186-.236.286-.267.469zm2.352-.748c0-.014.003-.028.009-.041s.014-.024.024-.034a.1.1 0 0 1 .076-.027c.026.002.05.013.068.032a.1.1 0 0 1 .027.069v.45c-.003-.017-.003-.034 0-.051a.97.97 0 0 1 .341-.356c.142-.087.305-.138.472-.145.027 0 .053.011.072.03s.03.045.03.072-.011.053-.03.072-.045.03-.072.03a.73.73 0 0 0-.335.094c-.102.058-.189.14-.253.24a1.85 1.85 0 0 0-.247.472c-.003.012-.003.024 0 .036v.893c0 .026-.01.051-.027.069s-.042.03-.067.032c-.014.001-.028-.001-.042-.005s-.025-.012-.035-.022-.018-.021-.024-.034-.008-.027-.008-.041l.021-1.838zm4.693-.807l-.726.806a.97.97 0 0 1 .501.269c.183.187.286.439.286.701s-.103.514-.286.701a1 1 0 0 1-.334.219 1.01 1.01 0 0 1-.392.072.96.96 0 0 1-.375-.075c-.118-.05-.226-.123-.315-.216a.11.11 0 0 1-.023-.033c-.005-.013-.007-.026-.007-.039s.002-.027.007-.039.013-.024.023-.033a.1.1 0 0 1 .033-.022c.012-.005.026-.008.039-.008s.027.003.04.008.023.013.033.022a.8.8 0 0 0 .545.225c.208-.001.408-.081.559-.225a.8.8 0 0 0 .225-.559.78.78 0 0 0-.057-.298c-.039-.095-.096-.181-.168-.254a.76.76 0 0 0-.253-.168.77.77 0 0 0-.299-.057c-.016.002-.032-.002-.047-.009a.08.08 0 0 1-.033-.034c-.02-.02-.031-.048-.031-.076s.011-.056.031-.076l.727-.727h-1.155c-.028-.002-.054-.014-.073-.034s-.029-.047-.029-.075a.1.1 0 0 1 .03-.072c.019-.019.045-.03.072-.03h1.365c.027 0 .053.011.072.03s.03.045.03.072c.004.008.006.017.006.025s-.002.018-.006.025c-.006-.004-.011-.009-.015-.015z"/></g><path d="M91.944 30.805h-1.308v4.962h1.308v-4.962z" fill="#fbe9f2"/><path d="M91.944 36.508h-1.308v4.962h1.308v-4.962z" class="H"/><path d="M91.944 24.826h-1.308v4.962h1.308v-4.962z" class="G"/><g class="D"><path d="M88.292 27.006h-2.659v2.237h2.659v-2.237z"/><path d="M87.971 27.253h-.305v-.588c0-.647-.233-.974-.683-.974-.726 0-.726.864-.726.901v.661h-.305v-.661c-.016-.149-.001-.3.043-.444s.118-.276.216-.39.218-.206.354-.272.282-.102.432-.108c.639 0 .988.458.988 1.286l-.014.588zm26.634 1.416a1.36 1.36 0 0 1-1.256-.839 1.37 1.37 0 0 1-.077-.785c.053-.264.182-.506.372-.695a1.36 1.36 0 0 1 .696-.372c.263-.052.536-.026.784.077a1.36 1.36 0 0 1 .441 2.215 1.36 1.36 0 0 1-.96.398zm0-2.543a1.18 1.18 0 0 0-.652.21 1.19 1.19 0 0 0-.427.536c-.086.217-.106.454-.058.682a1.18 1.18 0 0 0 .935.919c.229.044.466.019.681-.071s.399-.242.528-.436.198-.422.198-.656a1.18 1.18 0 0 0-.092-.458 1.19 1.19 0 0 0-.262-.387c-.112-.11-.245-.197-.392-.255a1.18 1.18 0 0 0-.459-.084zm0 8.515a1.36 1.36 0 0 1-1.256-.839 1.37 1.37 0 0 1-.077-.785c.053-.264.182-.506.372-.696a1.36 1.36 0 0 1 .696-.372c.263-.052.536-.026.784.077a1.36 1.36 0 0 1 .839 1.255 1.36 1.36 0 0 1-1.358 1.359zm0-2.543a1.18 1.18 0 0 0-.652.21 1.19 1.19 0 0 0-.427.536c-.086.217-.106.454-.058.682a1.18 1.18 0 0 0 .935.919c.229.044.466.019.681-.071s.399-.242.528-.436.198-.422.198-.656a1.16 1.16 0 0 0-.096-.454 1.19 1.19 0 0 0-.263-.382c-.112-.109-.245-.194-.39-.252a1.18 1.18 0 0 0-.456-.082v-.014zm-.002 8.521a1.37 1.37 0 0 1-.76-.227 1.36 1.36 0 0 1-.587-1.401c.052-.265.181-.509.372-.701s.434-.323.699-.376a1.36 1.36 0 0 1 .79.077c.25.104.464.278.614.503a1.36 1.36 0 0 1 .231.76c.001.179-.034.356-.101.522s-.168.316-.294.443a1.37 1.37 0 0 1-.442.296 1.36 1.36 0 0 1-.522.104zm0-2.55a1.19 1.19 0 0 0-1.09.747 1.19 1.19 0 0 0 1.569 1.541 1.19 1.19 0 0 0 .727-1.104c-.001-.157-.033-.312-.094-.457a1.19 1.19 0 0 0-.653-.641c-.146-.059-.302-.088-.459-.086z"/></g></g><defs><clipPath id="A"><path transform="translate(.32 .208)" d="M0 0h120v101.585H0z" class="B"/></clipPath><path id="B" d="M23.929 3.055a1.04 1.04 0 0 1-.641.96 1.04 1.04 0 0 1-1.132-.225 1.04 1.04 0 0 1-.225-1.132 1.04 1.04 0 0 1 .96-.641 1.04 1.04 0 0 1 1.039 1.039z"/><path id="C" d="M94.895 34.568c-.027 0-.053-.011-.072-.03s-.03-.045-.03-.072v-2.717c0-.027.011-.053.03-.072s.045-.03.072-.03.053.011.072.03.03.045.03.072v2.615h1.395c.027 0 .053.011.072.03s.03.045.03.072-.011.053-.03.072-.045.03-.072.03h-1.496z"/></defs></svg>