<svg xmlns="http://www.w3.org/2000/svg" width="251" height="185" fill="none" xmlns:v="https://vecta.io/nano"><g clip-path="url(#A)"><g fill="#37352f"><path d="M136.255 135.325h-3.293v-2.202h1.092v-1.092h2.201v3.294zm-7.746-.001h-4.454v-2.201h4.454v2.201zm-8.907 0h-4.454v-2.201h4.454v2.201zm-8.907 0h-4.454v-2.201h4.454v2.201zm-8.908 0h-4.453v-2.201h4.453v2.201zm-8.907 0h-4.454v-2.201h4.454v2.201zm-8.89 0h-4.454v-2.201h4.454v2.201zm-8.907 0h-4.471v-2.201h4.454l.017 2.201zm-8.907 0h-4.454v-2.201h4.454v2.201zm-8.907 0h-4.454v-2.201h4.454v2.201zm-8.907 0h-4.454v-2.201h4.522l-.068 2.201zm-8.907 0H35v-2.201h4.454v2.201zm-8.907 0h-4.454v-2.201h4.454v2.201zm-8.907 0h-4.454v-2.201h4.454v2.201zm-8.909.001H9.438v-3.294h2.201v1.092h1.092v2.202zm-1.092-7.764H9.438v-4.454h2.201v4.454zm0-8.908H9.438v-4.436h2.201v4.436zm0-8.89H9.438v-4.453h2.201v4.453zm0-8.907H9.438v-4.454h2.201v4.454zm0-8.907H9.438v-4.454h2.201v4.454zm0-8.907H9.438v-4.454h2.201v4.454zm0-8.907H9.438v-4.454h2.201v4.454zm0-8.907H9.438v-4.419h2.201v4.419zm0-8.907H9.438v-4.454h2.201v4.454zm0-8.907H9.438V42.96h2.201v4.454zm0-8.907H9.438v-4.454h2.201v4.454zm0-8.89H9.438v-4.454h2.201v4.454zm0-8.907H9.438v-4.454h2.201v4.454zm0-8.909H9.438V8.507h3.293v2.201H11.64V11.8zm116.869-1.11h-4.454V8.49h4.454v2.201zm-8.907 0h-4.454V8.49h4.454v2.201zm-8.907 0h-4.454V8.49h4.454v2.201zm-8.908 0h-4.453V8.49h4.453v2.201zm-8.907 0h-4.454V8.49h4.454v2.201zm-8.89 0h-4.454V8.49h4.454v2.201zm-8.907 0h-4.471V8.49h4.454l.017 2.201zm-8.907 0h-4.454V8.49h4.454v2.201zm-8.907 0h-4.454V8.49h4.454v2.201zm-8.907 0h-4.454V8.49h4.522l-.068 2.201zm-8.907 0H35V8.49h4.454v2.201zm-8.907 0h-4.454V8.49h4.454v2.201zm-8.907 0h-4.454V8.49h4.454v2.201zm114.614 1.11h-2.201v-1.092h-1.092V8.507h3.293V11.8zm0 115.76h-2.201v-4.454h2.201v4.454zm0-8.908h-2.201v-4.436h2.201v4.436zm0-8.89h-2.201v-4.453h2.201v4.453zm0-8.907h-2.201v-4.454h2.201v4.454zm0-8.907h-2.201v-4.454h2.201v4.454zm0-8.907h-2.201v-4.454h2.201v4.454zm0-8.907h-2.201v-4.454h2.201v4.454zm0-8.907h-2.201v-4.419h2.201v4.419zm0-8.907h-2.201v-4.454h2.201v4.454zm0-8.907h-2.201V42.96h2.201v4.454zm0-8.907h-2.201v-4.454h2.201v4.454zm0-8.89h-2.201v-4.454h2.201v4.454zm0-8.907h-2.201v-4.454h2.201v4.454z"/></g><g stroke="#37352f" stroke-linejoin="round"><path d="M74.365 86.727H49.486l-9.59 27.131h9.419v2.389H30.017v-2.389h5.904l32.029-86.291h10.238l31.671 86.291h5.784v2.389H74.604v-2.389h8.924l-9.163-27.131zm-23.753-2.764h22.746L62.421 51.064 50.613 83.963z" fill="#e2f1ff"/><g fill="#fff"><path d="M2.271 142.491h16.518v-16.517H2.271v16.517zm0-62.316h16.518V63.657H2.271v16.518zm62.402 62.316H81.19v-16.517H64.673v16.517zm62.215 0h16.517v-16.517h-16.517v16.517zm0-62.316h16.517V63.657h-16.517v16.518zm0-62.317h16.517V1.341h-16.517v16.518zm-62.215 0H81.19V1.341H64.673v16.518zm-62.402 0h16.518V1.341H2.271v16.518zm233.858 56.6l-12.508-12.576 10.563-10.494a8.87 8.87 0 0 1 12.541 0c1.662 1.664 2.596 3.919 2.596 6.271s-.934 4.607-2.596 6.271l-10.596 10.528z"/><path d="M240.531 70.107l-51.191 50.765a8.87 8.87 0 0 1-2.882 1.911 8.85 8.85 0 0 1-3.393.663 8.87 8.87 0 0 1-3.39-.686 8.86 8.86 0 0 1-2.868-1.931c-.82-.826-1.47-1.805-1.911-2.882s-.667-2.23-.664-3.394a8.87 8.87 0 0 1 .687-3.389 8.86 8.86 0 0 1 1.931-2.868l51.105-50.782 12.576 12.593z"/></g></g><g fill="#37352f"><path d="M173.523 124.148a2.27 2.27 0 0 1 0-3.191l11.569-11.484 3.157 3.191-11.553 11.484a2.25 2.25 0 0 1-3.173 0z"/><path d="M188.351 112.664l-11.569 11.501c-.426.421-1.001.656-1.599.652s-1.171-.244-1.592-.669a2.25 2.25 0 0 1-.652-1.599c.003-.598.243-1.171.669-1.592l1.962-1.928 9.607-9.556 3.174 3.191z"/></g><g stroke="#37352f" stroke-linejoin="round"><path d="M244.283 72.657l-18.697-18.828-8.875 8.813 18.697 18.828 8.875-8.813z" fill="#fff"/><g fill="#e2f1ff"><path d="M208.401 102.016l-18.992 18.77a8.82 8.82 0 0 1-10.733 1.331l-1.963 1.962c-.425.421-1 .656-1.599.653s-1.171-.244-1.592-.67a2.26 2.26 0 0 1-.652-1.599c.003-.598.244-1.171.67-1.592l1.962-1.928a8.84 8.84 0 0 1-1.136-5.605c.254-1.943 1.145-3.747 2.535-5.128l6.416-6.365 25.084.171zM174.29 145.87c-6.433 0-4.232-12.679 0-16.927 4.351 4.351 6.433 16.927 0 16.927zm-15.511 38.001h31.09V156.33h-31.09v27.541z"/></g><path d="M119.346 183.871h31.09V156.33h-31.09v27.541z" fill="#defdff"/><path d="M79.894 183.871h31.09V156.33h-31.09v27.541z" fill="#fff3e8"/><path d="M40.443 183.871h31.09V156.33h-31.09v27.541z" fill="#fbe9f2"/><path d="M1.009 183.871h31.09V156.33H1.009v27.541z" fill="#fff"/></g></g><defs><clipPath id="A"><path fill="#fff" transform="translate(.155 .487)" d="M0 0h250v184.237H0z"/></clipPath></defs></svg>