<svg xmlns="http://www.w3.org/2000/svg" width="101" height="100" fill="none" xmlns:v="https://vecta.io/nano"><g clip-path="url(#A)"><path d="M101.409 100H.825V0h100.584v100z" fill="#46061e"/><g fill="#d9385e"><path d="M30.558 71.233V33.535h7.322v37.699h-7.322zm25.699.533c-8.167 0-13.227-6.809-13.227-14.444 0-8.65 5.834-14.383 12.432-14.383 1.899-.012 3.768.477 5.417 1.419s3.021 2.301 3.977 3.942V32.478h7.111v30.587c0 .744 1.006 2.092 1.65 2.132v6.035c-.992.22-2.002.345-3.017.372-5.14 0-4.677-5.2-4.677-5.2a11.06 11.06 0 0 1-4.116 3.974 11.07 11.07 0 0 1-5.55 1.387zm1.861-6.035c4.456 0 6.488-4.023 6.739-4.667v-6.639c-.282-.775-2.836-5.421-7.172-5.421-4.838 0-7.272 4.808-7.272 8.499 0 4.033 2.987 8.208 7.705 8.208v.02z"/></g></g><defs><clipPath id="A"><path fill="#fff" transform="translate(.855)" d="M0 0h100v100H0z"/></clipPath></defs></svg>