<svg width="251" height="212" viewBox="0 0 251 212" fill="none" xmlns="http://www.w3.org/2000/svg">
<g clip-path="url(#clip0_533_1493)">
<path d="M205.505 0.939453H33.1729V172.908H205.505V0.939453Z" fill="#FFF3E8" stroke="#37352F" stroke-linecap="round" stroke-linejoin="round"/>
<path d="M205.611 0.939453H33.1729V11.3366H205.611V0.939453Z" fill="white" stroke="#37352F" stroke-linecap="round" stroke-linejoin="round"/>
<path d="M41.3606 6.11516C41.3606 6.54383 41.2332 6.96285 40.9948 7.31906C40.7563 7.67528 40.4174 7.95265 40.0211 8.116C39.6247 8.27935 39.1888 8.32131 38.7686 8.23657C38.3484 8.15183 37.9628 7.94421 37.6607 7.64003C37.3587 7.33585 37.1538 6.94881 37.072 6.52801C36.9902 6.10721 37.0352 5.6716 37.2013 5.27642C37.3675 4.88125 37.6472 4.5443 38.0051 4.30833C38.363 4.07236 38.7829 3.94798 39.2115 3.95098C39.7829 3.95498 40.3295 4.18475 40.7321 4.59018C41.1347 4.99561 41.3606 5.54379 41.3606 6.11516Z" fill="#FBE9F2" stroke="#37352F" stroke-linecap="round" stroke-linejoin="round"/>
<path d="M50.1838 6.1151C50.1838 6.54314 50.0569 6.96156 49.8191 7.31745C49.5813 7.67335 49.2433 7.95074 48.8478 8.11454C48.4524 8.27834 48.0172 8.3212 47.5974 8.23769C47.1776 8.15419 46.792 7.94807 46.4893 7.6454C46.1867 7.34274 45.9806 6.95712 45.8971 6.53731C45.8135 6.1175 45.8564 5.68236 46.0202 5.28691C46.184 4.89146 46.4614 4.55346 46.8173 4.31566C47.1732 4.07786 47.5916 3.95093 48.0196 3.95093C48.5936 3.95093 49.1441 4.17894 49.55 4.5848C49.9558 4.99066 50.1838 5.54113 50.1838 6.1151Z" fill="#FFF3E8" stroke="#37352F" stroke-linecap="round" stroke-linejoin="round"/>
<path d="M59.007 6.1151C59.007 6.54314 58.8801 6.96156 58.6423 7.31745C58.4045 7.67335 58.0665 7.95074 57.6711 8.11454C57.2756 8.27834 56.8405 8.3212 56.4207 8.23769C56.0009 8.15419 55.6152 7.94807 55.3126 7.6454C55.0099 7.34274 54.8038 6.95712 54.7203 6.53731C54.6368 6.1175 54.6796 5.68236 54.8434 5.28691C55.0073 4.89146 55.2846 4.55346 55.6405 4.31566C55.9964 4.07786 56.4148 3.95093 56.8429 3.95093C57.4168 3.95093 57.9673 4.17894 58.3732 4.5848C58.779 4.99066 59.007 5.54113 59.007 6.1151Z" fill="#DEFDFF" stroke="#37352F" stroke-linecap="round" stroke-linejoin="round"/>
<path d="M182.395 28.9221H56.3887V154.929H182.395V28.9221Z" fill="white" stroke="#37352F" stroke-linecap="round" stroke-linejoin="round"/>
<path d="M119.316 134.331V133.347C127.982 133.347 136.453 130.778 143.658 125.964C150.863 121.149 156.478 114.307 159.795 106.301C163.111 98.295 163.978 89.4856 162.288 80.9867C160.597 72.4878 156.424 64.681 150.297 58.5536C144.17 52.4262 136.363 48.2534 127.864 46.5629C119.365 44.8724 110.556 45.74 102.55 49.0561C94.544 52.3722 87.7014 57.9879 82.8871 65.1929C78.0728 72.398 75.5032 80.8688 75.5032 89.5342H74.5195C74.5195 80.6742 77.1468 72.0132 82.0692 64.6464C86.9915 57.2796 93.9878 51.5379 102.173 48.1473C110.359 44.7567 119.366 43.8696 128.056 45.5981C136.746 47.3266 144.728 51.5931 150.993 57.858C157.258 64.123 161.524 72.105 163.253 80.7948C164.981 89.4845 164.094 98.4917 160.703 106.677C157.313 114.863 151.571 121.859 144.204 126.782C136.837 131.704 128.176 134.331 119.316 134.331Z" fill="#E2F1FF"/>
<path d="M77.4103 89.5342C77.4103 90.0102 77.2692 90.4754 77.0047 90.8711C76.7403 91.2668 76.3645 91.5753 75.9248 91.7574C75.4851 91.9395 75.0013 91.9872 74.5345 91.8943C74.0677 91.8015 73.639 91.5723 73.3025 91.2358C72.9659 90.8992 72.7367 90.4705 72.6439 90.0037C72.551 89.5369 72.5987 89.0531 72.7808 88.6134C72.963 88.1737 73.2714 87.7979 73.6671 87.5335C74.0628 87.2691 74.528 87.1279 75.004 87.1279C75.32 87.1279 75.6329 87.1902 75.9248 87.3111C76.2168 87.432 76.482 87.6093 76.7055 87.8327C76.9289 88.0562 77.1062 88.3214 77.2271 88.6134C77.348 88.9053 77.4103 89.2182 77.4103 89.5342Z" fill="white"/>
<path d="M75.0044 92.3796C74.429 92.3796 73.8666 92.2088 73.3884 91.8888C72.9103 91.5689 72.5378 91.1142 72.3184 90.5823C72.0989 90.0505 72.0422 89.4655 72.1556 88.9014C72.2689 88.3373 72.5472 87.8196 72.9551 87.4138C73.363 87.0081 73.8821 86.7325 74.4468 86.6221C75.0115 86.5117 75.5962 86.5714 76.1269 86.7937C76.6576 87.0159 77.1103 87.3907 77.4278 87.8705C77.7452 88.3504 77.9131 88.9137 77.9101 89.489C77.9061 90.257 77.5982 90.9922 77.0537 91.5339C76.5092 92.0756 75.7724 92.3796 75.0044 92.3796ZM75.0044 87.567C74.6242 87.567 74.2526 87.6797 73.9365 87.8909C73.6204 88.1021 73.3741 88.4023 73.2286 88.7535C73.0831 89.1047 73.0451 89.4911 73.1193 89.864C73.1934 90.2368 73.3765 90.5793 73.6453 90.8481C73.9141 91.1169 74.2565 91.2999 74.6294 91.3741C75.0022 91.4483 75.3887 91.4102 75.7399 91.2647C76.0911 91.1192 76.3913 90.8729 76.6025 90.5568C76.8137 90.2407 76.9264 89.8691 76.9264 89.489C76.9145 88.9871 76.7068 88.5099 76.3476 88.1592C75.9885 87.8085 75.5063 87.6122 75.0044 87.6124V87.567Z" fill="#E2F1FF"/>
<path d="M105.861 80.2723C105.861 81.305 105.555 82.3144 104.982 83.1731C104.408 84.0317 103.592 84.7009 102.638 85.0961C101.684 85.4913 100.634 85.5947 99.6216 85.3932C98.6088 85.1918 97.6784 84.6945 96.9482 83.9643C96.218 83.2341 95.7207 82.3037 95.5193 81.2909C95.3178 80.2781 95.4212 79.2283 95.8164 78.2742C96.2116 77.3201 96.8808 76.5047 97.7394 75.931C98.5981 75.3572 99.6075 75.051 100.64 75.051C102.025 75.051 103.353 75.6011 104.332 76.5803C105.311 77.5595 105.861 78.8875 105.861 80.2723Z" fill="#E2F1FF"/>
<path d="M137.992 85.5084C140.875 85.5084 143.213 83.1708 143.213 80.2872C143.213 77.4036 140.875 75.0659 137.992 75.0659C135.108 75.0659 132.771 77.4036 132.771 80.2872C132.771 83.1708 135.108 85.5084 137.992 85.5084Z" fill="#E2F1FF"/>
<path d="M163.614 91.9406C164.943 91.9406 166.021 90.8632 166.021 89.5342C166.021 88.2053 164.943 87.1279 163.614 87.1279C162.285 87.1279 161.208 88.2053 161.208 89.5342C161.208 90.8632 162.285 91.9406 163.614 91.9406Z" fill="white" stroke="#37352F" stroke-linecap="round" stroke-linejoin="round"/>
<path d="M163.614 92.3796C163.038 92.3796 162.476 92.2088 161.998 91.8888C161.52 91.5689 161.147 91.1142 160.928 90.5823C160.708 90.0505 160.652 89.4655 160.765 88.9014C160.878 88.3373 161.157 87.8196 161.564 87.4138C161.972 87.0081 162.492 86.7325 163.056 86.6221C163.621 86.5117 164.206 86.5714 164.736 86.7937C165.267 87.0159 165.72 87.3907 166.037 87.8705C166.355 88.3504 166.522 88.9137 166.519 89.489C166.515 90.257 166.208 90.9922 165.663 91.5339C165.119 92.0756 164.382 92.3796 163.614 92.3796ZM163.614 87.567C163.234 87.567 162.862 87.6797 162.546 87.8909C162.23 88.1021 161.983 88.4023 161.838 88.7535C161.693 89.1047 161.654 89.4911 161.729 89.864C161.803 90.2368 161.986 90.5793 162.255 90.8481C162.523 91.1169 162.866 91.2999 163.239 91.3741C163.612 91.4483 163.998 91.4102 164.349 91.2647C164.7 91.1192 165.001 90.8729 165.212 90.5568C165.423 90.2407 165.536 89.8691 165.536 89.489C165.524 88.9871 165.316 88.5099 164.957 88.1592C164.598 87.8085 164.116 87.6122 163.614 87.6124V87.567Z" fill="#E2F1FF"/>
<path d="M121.723 45.2217C121.723 45.6977 121.582 46.1629 121.317 46.5586C121.053 46.9543 120.677 47.2628 120.237 47.4449C119.798 47.627 119.314 47.6747 118.847 47.5818C118.38 47.489 117.951 47.2598 117.615 46.9233C117.278 46.5867 117.049 46.158 116.956 45.6912C116.864 45.2244 116.911 44.7406 117.093 44.3009C117.275 43.8612 117.584 43.4854 117.98 43.221C118.375 42.9566 118.841 42.8154 119.316 42.8154C119.955 42.8154 120.567 43.069 121.018 43.5202C121.469 43.9715 121.723 44.5836 121.723 45.2217Z" fill="white"/>
<path d="M119.316 48.1274C118.741 48.1304 118.178 47.9625 117.698 47.645C117.218 47.3276 116.843 46.8748 116.621 46.3441C116.399 45.8134 116.339 45.2287 116.45 44.6641C116.56 44.0994 116.835 43.5803 117.241 43.1724C117.647 42.7645 118.165 42.4862 118.729 42.3729C119.293 42.2595 119.878 42.3162 120.41 42.5357C120.942 42.7551 121.396 43.1275 121.716 43.6057C122.036 44.0839 122.207 44.6463 122.207 45.2216C122.207 45.9897 121.903 46.7265 121.361 47.271C120.82 47.8155 120.084 48.1234 119.316 48.1274ZM119.316 43.3147C118.935 43.3117 118.561 43.4223 118.243 43.6323C117.925 43.8424 117.676 44.1424 117.528 44.4942C117.381 44.846 117.342 45.2337 117.415 45.608C117.489 45.9822 117.673 46.3261 117.942 46.5958C118.212 46.8655 118.556 47.0488 118.93 47.1225C119.304 47.1962 119.692 47.1569 120.044 47.0095C120.396 46.8622 120.696 46.6135 120.906 46.2951C121.116 45.9767 121.226 45.603 121.223 45.2216C121.219 44.7171 121.017 44.2344 120.66 43.8776C120.304 43.5209 119.821 43.3187 119.316 43.3147Z" fill="#E2F1FF"/>
<path d="M128.881 139.446C130.43 143.311 131.082 147.476 130.788 151.629L126.248 153.824C122.793 151.505 119.91 148.431 117.818 144.834C121.163 140.006 118.469 134.24 118.469 134.24L118.938 134.028L123.388 143.109C123.041 143.33 122.795 143.679 122.706 144.081C122.616 144.483 122.69 144.903 122.911 145.25C123.132 145.598 123.481 145.843 123.883 145.932C124.285 146.022 124.705 145.948 125.052 145.727C125.44 145.591 125.757 145.306 125.934 144.936C126.112 144.565 126.135 144.139 125.998 143.752C125.862 143.365 125.577 143.048 125.207 142.87C124.836 142.693 124.411 142.67 124.023 142.806L119.574 133.726L120.043 133.499C120.043 133.499 123.024 139.129 128.881 139.446Z" fill="#37352F"/>
<path d="M131.575 150.577L124.966 153.805L126.327 156.593L132.936 153.365L131.575 150.577Z" fill="#37352F"/>
<path d="M137.235 151.402H136.66V156.911H137.235V151.402Z" fill="#37352F"/>
<path d="M139.702 153.869H134.193V154.444H139.702V153.869Z" fill="#37352F"/>
<path d="M138.689 152.016L134.794 155.911L135.201 156.318L139.096 152.422L138.689 152.016Z" fill="#37352F"/>
<path d="M135.19 152.005L134.783 152.412L138.679 156.307L139.085 155.901L135.19 152.005Z" fill="#37352F"/>
<path d="M136.933 142.216C132.589 142.095 131.136 139.189 129.835 136.768C129.333 135.453 128.479 134.301 127.368 133.438C123.902 131.41 120.633 134.361 120.482 134.498L119.71 133.65C119.71 133.65 123.736 130.003 127.943 132.454C129.253 133.415 130.266 134.727 130.864 136.238C132.105 138.675 133.3 140.975 136.917 141.066L136.933 142.216Z" fill="#37352F"/>
<path d="M129.124 79.1069C129.124 81.7159 128.087 84.218 126.242 86.0629C124.397 87.9077 121.895 88.9441 119.286 88.9441C116.677 88.9441 114.175 87.9077 112.33 86.0629C110.486 84.218 109.449 81.7159 109.449 79.1069H129.124Z" fill="#E2F1FF"/>
<path d="M46.3096 47.1436H1.75488V211.061H46.3096V47.1436Z" fill="#DEFDFF" stroke="#37352F" stroke-linecap="round" stroke-linejoin="round"/>
<path d="M14.0586 71.3884L12.1517 66.7574L8.73145 69.421V54.5442L19.1286 65.0472L14.7699 65.698L16.6768 70.2382L14.0586 71.3884ZM12.4544 65.6072L14.4673 70.435L15.7234 69.9053L13.7408 65.1381L17.6152 64.5478L9.47302 56.33V67.9379L12.4544 65.6072Z" fill="#37352F"/>
<path d="M37.774 65.4106L39.7263 70.1022L37.774 70.9043L35.8217 66.1825L32.6133 68.6644V55.4373L41.8753 64.7901L37.774 65.4106Z" fill="#37352F"/>
<path d="M17.8168 83.593L8.77637 95.1975L9.63596 95.8672L18.6764 84.2626L17.8168 83.593Z" fill="#37352F"/>
<path d="M12.8633 85.0545L10.6537 85.448L10.1543 87.7937L9.65489 85.448L7.44531 85.0393L9.65489 84.5096L10.1543 82.3L10.6537 84.5096L12.8633 85.0545Z" fill="#37352F"/>
<path d="M17.767 81.3618L16.4655 81.6039L16.1779 82.966L15.8904 81.6039L14.5889 81.3467L15.8753 81.044L16.1779 79.7424L16.4655 81.044L17.767 81.3618Z" fill="#37352F"/>
<path d="M19.2946 88.7017L18.553 88.838L18.3866 89.6249L18.2201 88.838L17.4785 88.7017L18.2201 88.5201L18.3866 87.7937L18.553 88.5201L19.2946 88.7017Z" fill="#37352F"/>
<path d="M39.2972 125.123L30.2568 136.728L31.1164 137.397L40.1568 125.793L39.2972 125.123Z" fill="#37352F"/>
<path d="M37.774 91.7741L39.7263 96.4657L37.774 97.2678L35.8217 92.546L32.6133 95.028V81.8008L41.8753 91.1536L37.774 91.7741Z" fill="#37352F"/>
<path d="M31.72 89.9581C30.9781 90.0481 30.2256 89.9417 29.5377 89.6495C28.8498 89.3574 28.2507 88.8897 27.8003 88.2933C27.0285 86.7799 27.6187 83.6017 32.3405 81.0289C36.1089 78.9556 39.9076 79.8182 40.7853 81.3014C40.9916 81.6867 41.1119 82.1122 41.138 82.5485C41.1641 82.9848 41.0954 83.4215 40.9367 83.8287C40.4842 85.0103 39.7921 86.0855 38.904 86.9867C38.0158 87.8879 36.9508 88.5955 35.776 89.0651C34.502 89.6454 33.1198 89.9497 31.72 89.9581ZM36.9867 80.5144C35.4859 80.5379 34.0144 80.9331 32.7037 81.6646C28.4511 83.9801 27.8306 86.7648 28.4511 87.9604C29.0716 89.1559 32.0227 89.9127 35.443 88.3992C36.5402 87.9796 37.5392 87.3384 38.3776 86.5156C39.2161 85.6928 39.876 84.706 40.3162 83.6169C40.4395 83.3066 40.4965 82.9739 40.4835 82.6403C40.4704 82.3066 40.3877 81.9794 40.2405 81.6797C39.8268 81.2449 39.317 80.9131 38.752 80.7107C38.1869 80.5084 37.5824 80.4411 36.9867 80.5144Z" fill="#37352F"/>
<path d="M29.7222 90.8661C29.4516 90.8685 29.1843 90.8066 28.9423 90.6856C28.7002 90.5646 28.4904 90.3878 28.3299 90.1699C28.1414 89.9375 28.0217 89.657 27.9843 89.3602C27.9468 89.0633 27.9932 88.7619 28.118 88.49C28.3051 88.1506 28.5786 87.8668 28.9109 87.6675C29.2432 87.4681 29.6223 87.3603 30.0098 87.355C30.3174 87.3432 30.6222 87.4178 30.8896 87.5702C31.1571 87.7227 31.3766 87.9469 31.5232 88.2176C31.7362 88.6142 31.7858 89.0783 31.6614 89.5109C31.537 89.9435 31.2484 90.3103 30.8573 90.5331C30.5172 90.7474 30.1242 90.8626 29.7222 90.8661ZM28.9201 89.731C29.1029 89.9467 29.3605 90.0853 29.6412 90.119C29.9219 90.1527 30.2049 90.079 30.4335 89.9126C30.5499 89.8522 30.6531 89.7691 30.7369 89.6682C30.8206 89.5673 30.8834 89.4507 30.9215 89.3252C30.9596 89.1997 30.9722 89.0679 30.9585 88.9374C30.9449 88.807 30.9054 88.6806 30.8422 88.5657C30.7641 88.4116 30.6416 88.2846 30.4905 88.2009C30.3394 88.1173 30.1667 88.0809 29.9947 88.0965C29.7426 88.1011 29.4957 88.1686 29.2763 88.2928C29.057 88.417 28.8721 88.594 28.7385 88.8078C28.6723 88.96 28.6513 89.128 28.6782 89.2917C28.705 89.4555 28.7785 89.608 28.8899 89.731H28.9201Z" fill="#37352F"/>
<path d="M31.7049 92.8637L31.2357 92.2735C31.4476 92.107 31.7049 91.8649 31.6746 91.6227C31.6443 91.3806 30.8119 90.745 30.4336 90.5936L30.6909 89.9126C30.8573 89.9126 32.2043 90.5634 32.401 91.5319C32.411 91.7953 32.352 92.0568 32.2299 92.2904C32.1078 92.524 31.9268 92.7216 31.7049 92.8637Z" fill="#37352F"/>
<path d="M9.06462 109.027C11.14 107.241 13.5924 105.948 16.2382 105.243L18.5537 107.514C17.8497 110.158 16.5504 112.607 14.755 114.672C13.5584 114.423 12.3193 114.468 11.1438 114.803C9.96836 115.138 8.89145 115.752 8.00523 116.594L7.77822 116.352L12.4849 111.63C12.6803 111.757 12.9132 111.812 13.1447 111.788C13.3762 111.763 13.5921 111.659 13.7562 111.494C13.8588 111.396 13.9404 111.279 13.9962 111.149C14.052 111.019 14.0808 110.879 14.0808 110.737C14.0808 110.596 14.052 110.455 13.9962 110.325C13.9404 110.195 13.8588 110.078 13.7562 109.98C13.5774 109.809 13.3428 109.708 13.0954 109.695C12.848 109.683 12.6045 109.76 12.4095 109.913C12.2145 110.066 12.0811 110.284 12.0338 110.527C11.9865 110.77 12.0284 111.022 12.152 111.237L7.44527 115.958L7.20312 115.716C8.01848 114.827 8.61209 113.757 8.93558 112.595C9.25908 111.432 9.30329 110.21 9.06462 109.027Z" fill="#37352F"/>
<path d="M15.388 104.925L18.8125 108.35L20.2572 106.905L16.8327 103.481L15.388 104.925Z" fill="#37352F"/>
<path d="M43.3133 101.203H25.4854V117.865H43.3133V101.203Z" fill="#FFF3E8"/>
<path d="M31.9474 109.027C34.0228 107.241 36.4752 105.948 39.121 105.243L41.4365 107.514C40.7326 110.158 39.4332 112.607 37.6378 114.672C36.4435 114.426 35.2074 114.472 34.0348 114.807C32.8622 115.142 31.7878 115.755 30.9032 116.594L30.661 116.352L35.3677 111.63C35.5631 111.757 35.796 111.812 36.0275 111.788C36.259 111.763 36.4749 111.659 36.639 111.494C36.7416 111.396 36.8232 111.279 36.879 111.149C36.9348 111.019 36.9636 110.879 36.9636 110.737C36.9636 110.596 36.9348 110.455 36.879 110.325C36.8232 110.195 36.7416 110.078 36.639 109.98C36.4602 109.809 36.2256 109.708 35.9782 109.695C35.7308 109.683 35.4873 109.76 35.2923 109.913C35.0973 110.066 34.9639 110.284 34.9166 110.527C34.8693 110.77 34.9112 111.022 35.0348 111.237L30.3281 115.973L30.0859 115.731C30.9036 114.84 31.4986 113.768 31.8221 112.603C32.1457 111.437 32.1886 110.212 31.9474 109.027Z" fill="#37352F"/>
<path d="M38.2836 104.923L41.708 108.348L43.1527 106.903L39.7282 103.479L38.2836 104.923Z" fill="#37352F"/>
<path d="M30.3284 116.337C29.8397 116.357 29.3539 116.252 28.9169 116.032C28.48 115.813 28.1063 115.485 27.8313 115.081C27.3167 114.263 26.9989 112.689 28.3761 109.829C28.6074 109.462 28.7474 109.046 28.7842 108.614C28.8211 108.182 28.7538 107.748 28.588 107.347C28.3212 106.989 27.9831 106.689 27.595 106.468C27.207 106.247 26.7773 106.108 26.333 106.061L26.4238 105.334C26.9805 105.396 27.5179 105.575 28.0005 105.859C28.4831 106.143 28.8999 106.527 29.2236 106.984C29.4532 107.486 29.5567 108.037 29.525 108.588C29.4934 109.139 29.3276 109.674 29.042 110.147C27.801 112.705 28.0432 114.036 28.4518 114.687C28.6636 114.982 28.9468 115.219 29.275 115.375C29.6032 115.532 29.9656 115.602 30.3284 115.58V116.337Z" fill="#37352F"/>
<path d="M18.0841 124.509V127.536H17.1004C17.0007 127.545 16.9013 127.515 16.8226 127.453C16.7439 127.391 16.6917 127.302 16.6767 127.203C16.6767 127.097 16.6767 126.885 16.5858 126.492H14.0282V135.421H14.5427H14.8H14.906C15.0356 135.439 15.1538 135.505 15.2376 135.606C15.3215 135.707 15.3651 135.835 15.36 135.966V136.98H10.3809V135.966C10.3681 135.835 10.4069 135.705 10.489 135.603C10.571 135.502 10.6898 135.436 10.8198 135.421H10.9257H11.183H11.6824V126.476H9.12474C9.12474 126.855 9.12474 127.097 9.04907 127.203C9.03422 127.299 8.98422 127.386 8.90875 127.448C8.83328 127.509 8.73768 127.541 8.64045 127.536H7.6416V124.509H18.0841Z" fill="#37352F"/>
<path d="M19.8406 161.285H7.09766V148.542H19.8406V161.285ZM8.18731 160.195H18.7812V149.601H8.18731V160.195Z" fill="#37352F"/>
<path d="M39.9532 199.317H28.9355V189.465H39.9532V199.317ZM30.0403 198.227H38.803V190.554H30.0403V198.227Z" fill="#37352F"/>
<path d="M33.8995 202.223H26.2266V195.291H33.8995V202.223ZM27.3314 201.133H32.7494V196.411H27.3314V201.133Z" fill="#37352F"/>
<path d="M37.5197 191.486L34.748 194.258L35.2617 194.772L38.0334 192L37.5197 191.486Z" fill="#37352F"/>
<path d="M38.3033 193.384H37.5769V191.932H36.1846V191.205H38.3033V193.384Z" fill="#37352F"/>
<path d="M40.5588 161.3H27.8008V148.527H33.7485C33.916 147.312 34.5379 146.206 35.4888 145.432C36.4397 144.658 37.6488 144.274 38.8722 144.356C40.0955 144.439 41.242 144.983 42.0802 145.877C42.9185 146.772 43.3862 147.952 43.3889 149.178C43.385 150.105 43.1167 151.012 42.6154 151.792C42.1141 152.572 41.4007 153.193 40.5588 153.582V161.3ZM28.8904 160.195H39.4843V152.916L39.8324 152.78C40.6673 152.486 41.3709 151.906 41.818 151.142C42.2652 150.378 42.4268 149.481 42.2743 148.609C42.1217 147.737 41.6648 146.948 40.9849 146.381C40.305 145.815 39.4461 145.508 38.5611 145.515C37.5841 145.511 36.6446 145.891 35.9452 146.573C35.2459 147.256 34.8428 148.186 34.823 149.162V149.707H28.9207L28.8904 160.195Z" fill="#37352F"/>
<path d="M35.8665 152.114C33.9597 151.796 33.6872 153.794 33.657 154.581C33.5834 154.974 33.4035 155.34 33.1367 155.639C32.87 155.938 32.5265 156.158 32.1436 156.276C32.1436 156.276 35.0947 157.078 36.5627 155.579C36.85 155.353 37.0688 155.051 37.195 154.707C37.3213 154.364 37.3499 153.992 37.2778 153.633C37.2058 153.274 37.0357 152.942 36.7867 152.674C36.5376 152.406 36.2191 152.212 35.8665 152.114Z" fill="#37352F"/>
<path d="M42.3743 145.984L37.6071 152.734C37.462 152.439 37.2493 152.183 36.9863 151.985C36.7233 151.788 36.4175 151.656 36.0937 151.599H35.7607L39.7259 146.015L42.3743 145.984Z" fill="#37352F"/>
<path d="M17.7958 175.142L14.4463 171.792L7.61878 178.62L10.9683 181.97L17.7958 175.142Z" fill="#37352F"/>
<path d="M19.7919 173.121L16.4424 169.772L14.9977 171.216L18.3472 174.566L19.7919 173.121Z" fill="#37352F"/>
<path d="M7.30859 182.261L7.58101 178.689L8.30744 178.75L8.09557 181.459L10.8197 181.262L10.8802 181.988L7.30859 182.261Z" fill="#37352F"/>
<path d="M38.167 176.585C37.6575 176.588 37.1586 176.44 36.7336 176.159C36.3085 175.878 35.9764 175.478 35.7793 175.008C35.5823 174.538 35.5292 174.02 35.6267 173.52C35.7243 173.02 35.9681 172.56 36.3273 172.199C36.6865 171.838 37.1449 171.591 37.6444 171.49C38.1439 171.39 38.6619 171.44 39.1329 171.634C39.6039 171.829 40.0066 172.158 40.29 172.582C40.5734 173.005 40.7247 173.503 40.7247 174.013C40.7247 174.692 40.4557 175.345 39.9765 175.827C39.4973 176.309 38.8468 176.581 38.167 176.585ZM38.167 172.53C37.8677 172.53 37.5751 172.618 37.3262 172.785C37.0773 172.951 36.8834 173.187 36.7688 173.464C36.6543 173.74 36.6243 174.045 36.6827 174.338C36.7411 174.632 36.8852 174.901 37.0969 175.113C37.3085 175.325 37.5782 175.469 37.8718 175.527C38.1654 175.586 38.4696 175.556 38.7462 175.441C39.0227 175.327 39.2591 175.133 39.4254 174.884C39.5917 174.635 39.6804 174.342 39.6804 174.043C39.6648 173.652 39.4985 173.283 39.2163 173.012C38.9342 172.741 38.5581 172.59 38.167 172.59V172.53Z" fill="#37352F"/>
<path d="M26.3477 180.611L36.427 175.057L38.1674 176.041C38.1674 176.041 30.8122 180.581 29.5107 181.005C28.4414 181.216 27.3326 181.078 26.3477 180.611Z" fill="#37352F"/>
<path d="M38.1216 182.306C37.6128 182.306 37.1154 182.155 36.6923 181.873C36.2692 181.59 35.9394 181.188 35.7447 180.718C35.5499 180.248 35.499 179.731 35.5983 179.232C35.6975 178.732 35.9426 178.274 36.3024 177.914C36.6622 177.554 37.1206 177.309 37.6197 177.21C38.1188 177.111 38.6361 177.162 39.1062 177.356C39.5763 177.551 39.9781 177.881 40.2608 178.304C40.5435 178.727 40.6944 179.225 40.6944 179.733C40.6944 180.416 40.4234 181.07 39.9409 181.553C39.4584 182.035 38.804 182.306 38.1216 182.306ZM38.1216 178.25C37.8223 178.25 37.5297 178.339 37.2808 178.505C37.0319 178.672 36.838 178.908 36.7234 179.185C36.6089 179.461 36.5789 179.765 36.6373 180.059C36.6957 180.353 36.8398 180.622 37.0515 180.834C37.2631 181.046 37.5328 181.19 37.8264 181.248C38.1199 181.306 38.4242 181.276 38.7008 181.162C38.9773 181.047 39.2137 180.853 39.38 180.605C39.5463 180.356 39.635 180.063 39.635 179.764C39.635 179.362 39.4756 178.977 39.1918 178.694C38.9079 178.41 38.523 178.25 38.1216 178.25Z" fill="#37352F"/>
<path d="M26.3027 173.135L36.3972 178.644L38.1225 177.66C38.1225 177.66 30.7824 173.12 29.4809 172.696C28.4018 172.5 27.2883 172.654 26.3027 173.135Z" fill="#37352F"/>
<path d="M7.15723 200.573V191.114L13.2109 195.836L7.15723 200.573ZM8.24688 193.354V198.318L11.425 195.821L8.24688 193.354Z" fill="#37352F"/>
<path d="M19.7495 191.25V200.422L13.9229 195.836L19.7495 191.25Z" fill="#37352F"/>
<path d="M13.7714 200.876H13.4082V199.362H13.7714V200.876ZM13.7714 197.97H13.4082V196.457H13.7714V197.97ZM13.7714 195.049H13.4082V193.536H13.7714V195.049ZM13.7714 192.143H13.4082V190.63H13.7714V192.143Z" fill="#37352F"/>
<path d="M250.256 42.5127H158.483V96.9652H250.256V42.5127Z" fill="#E2F1FF" stroke="#37352F" stroke-linecap="round" stroke-linejoin="round"/>
<path d="M175.056 51.1694H174.692V86.9464H175.056V51.1694Z" fill="#37352F"/>
<path d="M188.252 51.1694H187.889V86.9464H188.252V51.1694Z" fill="#37352F"/>
<path d="M168.169 54.5442C167.42 54.5555 166.685 54.7521 166.03 55.1165C165.375 55.481 164.821 56.0018 164.416 56.6327C164.829 57.2798 165.394 57.8165 166.061 58.1963C166.728 58.576 167.478 58.7874 168.245 58.812C168.994 58.76 169.72 58.5364 170.368 58.1585C171.017 57.7806 171.569 57.2585 171.983 56.6327C171.565 56.0008 170.999 55.4804 170.335 55.1165C169.67 54.7526 168.927 54.5561 168.169 54.5442ZM168.169 58.4942C167.922 58.517 167.673 58.488 167.437 58.409C167.202 58.3301 166.985 58.2028 166.802 58.0355C166.618 57.8681 166.472 57.6644 166.371 57.4371C166.271 57.2099 166.219 56.9643 166.219 56.7159C166.219 56.4676 166.271 56.2219 166.371 55.9947C166.472 55.7675 166.618 55.5637 166.802 55.3964C166.985 55.229 167.202 55.1018 167.437 55.0228C167.673 54.9438 167.922 54.9148 168.169 54.9377C168.613 54.9786 169.025 55.1837 169.325 55.5126C169.625 55.8416 169.791 56.2707 169.791 56.7159C169.791 57.1611 169.625 57.5903 169.325 57.9192C169.025 58.2482 168.613 58.4533 168.169 58.4942Z" fill="#37352F"/>
<path d="M169.375 56.6402C169.375 56.9126 169.294 57.1789 169.142 57.4054C168.991 57.6318 168.776 57.8084 168.524 57.9126C168.273 58.0168 167.996 58.0441 167.729 57.991C167.461 57.9378 167.216 57.8067 167.023 57.614C166.831 57.4214 166.7 57.176 166.647 56.9089C166.593 56.6417 166.621 56.3648 166.725 56.1132C166.829 55.8615 167.006 55.6465 167.232 55.4951C167.459 55.3438 167.725 55.263 167.997 55.263C168.179 55.261 168.359 55.2952 168.527 55.3637C168.695 55.4322 168.847 55.5336 168.976 55.6619C169.104 55.7902 169.205 55.9428 169.274 56.1108C169.342 56.2788 169.377 56.4588 169.375 56.6402Z" fill="#37352F"/>
<path d="M168.169 66.9238C167.413 66.9432 166.673 67.1514 166.018 67.5294C165.362 67.9073 164.812 68.4431 164.416 69.088C164.829 69.7352 165.394 70.2719 166.061 70.6516C166.728 71.0313 167.478 71.2427 168.245 71.2673C168.994 71.2153 169.72 70.9917 170.368 70.6138C171.017 70.2359 171.569 69.7138 171.983 69.088C171.574 68.4421 171.012 67.9069 170.347 67.5294C169.681 67.152 168.934 66.944 168.169 66.9238ZM168.169 70.8587C167.818 70.8587 167.475 70.7544 167.184 70.5592C166.892 70.364 166.666 70.0865 166.532 69.7621C166.398 69.4376 166.364 69.0808 166.434 68.737C166.503 68.3931 166.674 68.0776 166.923 67.8306C167.172 67.5836 167.489 67.4161 167.833 67.3495C168.178 67.2829 168.534 67.3201 168.857 67.4565C169.181 67.5928 169.456 67.8221 169.649 68.1153C169.842 68.4085 169.943 68.7523 169.94 69.1031C169.936 69.5701 169.748 70.0166 169.416 70.3454C169.084 70.6742 168.636 70.8587 168.169 70.8587Z" fill="#37352F"/>
<path d="M169.531 69.0881C169.531 69.3605 169.45 69.6268 169.299 69.8533C169.147 70.0797 168.932 70.2563 168.681 70.3605C168.429 70.4647 168.152 70.492 167.885 70.4389C167.618 70.3857 167.372 70.2546 167.18 70.062C166.987 69.8694 166.856 69.624 166.803 69.3568C166.75 69.0897 166.777 68.8128 166.881 68.5611C166.985 68.3095 167.162 68.0944 167.388 67.943C167.615 67.7917 167.881 67.7109 168.154 67.7109C168.519 67.7109 168.869 67.856 169.127 68.1143C169.386 68.3726 169.531 68.7229 169.531 69.0881Z" fill="#37352F"/>
<path d="M168.169 78.7588C167.409 78.783 166.666 78.9981 166.01 79.3842C165.355 79.7702 164.806 80.315 164.416 80.9684C164.829 81.6155 165.394 82.1522 166.061 82.5319C166.728 82.9117 167.478 83.123 168.245 83.1477C168.994 83.0957 169.72 82.8721 170.368 82.4941C171.017 82.1162 171.569 81.5941 171.983 80.9684C171.579 80.314 171.019 79.7699 170.354 79.3843C169.688 78.9988 168.938 78.7839 168.169 78.7588ZM168.169 82.7088C167.922 82.7316 167.673 82.7026 167.437 82.6236C167.202 82.5447 166.985 82.4174 166.802 82.2501C166.618 82.0827 166.472 81.8789 166.371 81.6517C166.271 81.4245 166.219 81.1789 166.219 80.9305C166.219 80.6822 166.271 80.4365 166.371 80.2093C166.472 79.9821 166.618 79.7783 166.802 79.611C166.985 79.4436 167.202 79.3164 167.437 79.2374C167.673 79.1584 167.922 79.1294 168.169 79.1523C168.613 79.1932 169.025 79.3983 169.325 79.7272C169.625 80.0562 169.791 80.4853 169.791 80.9305C169.791 81.3757 169.625 81.8049 169.325 82.1338C169.025 82.4628 168.613 82.6678 168.169 82.7088Z" fill="#37352F"/>
<path d="M169.531 80.9835C169.531 81.2559 169.45 81.5221 169.299 81.7486C169.147 81.9751 168.932 82.1516 168.681 82.2559C168.429 82.3601 168.152 82.3874 167.885 82.3342C167.618 82.2811 167.372 82.1499 167.18 81.9573C166.987 81.7647 166.856 81.5193 166.803 81.2522C166.75 80.985 166.777 80.7081 166.881 80.4565C166.985 80.2048 167.162 79.9897 167.388 79.8384C167.615 79.6871 167.881 79.6063 168.154 79.6063C168.335 79.6043 168.515 79.6385 168.683 79.707C168.851 79.7755 169.004 79.8769 169.132 80.0051C169.26 80.1334 169.362 80.2861 169.43 80.4541C169.499 80.6221 169.533 80.8021 169.531 80.9835Z" fill="#37352F"/>
<path d="M246.458 62.9285H162.267V63.2917H246.458V62.9285Z" fill="#37352F"/>
<path d="M246.458 74.8694H162.267V75.2326H246.458V74.8694Z" fill="#37352F"/>
<path d="M198.028 59.2358C197.972 59.2358 197.918 59.2134 197.878 59.1737C197.839 59.134 197.816 59.0801 197.816 59.0239V53.3637C197.816 53.3075 197.839 53.2536 197.878 53.2139C197.918 53.1742 197.972 53.1519 198.028 53.1519C198.084 53.1519 198.138 53.1742 198.178 53.2139C198.218 53.2536 198.24 53.3075 198.24 53.3637V58.812H201.146C201.175 58.8099 201.204 58.8139 201.232 58.8236C201.259 58.8333 201.284 58.8486 201.306 58.8685C201.327 58.8883 201.344 58.9124 201.356 58.9391C201.367 58.9659 201.373 58.9947 201.373 59.0239C201.369 59.0814 201.343 59.1354 201.301 59.1747C201.259 59.2141 201.204 59.2359 201.146 59.2358H198.028Z" fill="#37352F"/>
<path d="M206.171 55.1798V59.0845C206.171 59.1406 206.149 59.1945 206.109 59.2343C206.069 59.274 206.015 59.2963 205.959 59.2963C205.904 59.2928 205.852 59.2693 205.813 59.2303C205.774 59.1913 205.751 59.1395 205.747 59.0845V58.4488C205.568 58.7055 205.331 58.9161 205.055 59.0634C204.778 59.2107 204.471 59.2905 204.158 59.2963C203.592 59.2963 203.05 59.0715 202.649 58.6713C202.249 58.2711 202.024 57.7284 202.024 57.1624C202.024 56.5965 202.249 56.0537 202.649 55.6535C203.05 55.2533 203.592 55.0285 204.158 55.0285C204.472 55.0318 204.78 55.1106 205.056 55.2581C205.333 55.4056 205.57 55.6175 205.747 55.876V55.2404C205.747 55.1842 205.77 55.1303 205.809 55.0906C205.849 55.0508 205.903 55.0285 205.959 55.0285C206.006 55.0265 206.053 55.0404 206.091 55.0678C206.13 55.0952 206.158 55.1346 206.171 55.1798ZM205.747 57.1019C205.727 56.7893 205.615 56.4896 205.426 56.2398C205.237 55.99 204.979 55.801 204.684 55.6962C204.388 55.5913 204.069 55.5752 203.765 55.6498C203.46 55.7244 203.185 55.8864 202.971 56.1159C202.758 56.3454 202.617 56.6323 202.565 56.9412C202.513 57.2501 202.552 57.5675 202.678 57.8542C202.805 58.1409 203.012 58.3844 203.275 58.5546C203.538 58.7248 203.845 58.8143 204.158 58.812C204.595 58.7924 205.006 58.6021 205.303 58.2822C205.6 57.9623 205.76 57.5384 205.747 57.1019Z" fill="#37352F"/>
<path d="M212.845 57.117C212.863 56.5945 213.078 56.0982 213.447 55.7275C213.816 55.3568 214.311 55.1392 214.834 55.1181C215.356 55.0971 215.867 55.2742 216.264 55.614C216.662 55.9538 216.916 56.4312 216.977 56.9505C216.975 56.9764 216.968 57.0016 216.956 57.0248C216.944 57.0479 216.928 57.0685 216.908 57.0854C216.889 57.1023 216.866 57.1151 216.841 57.1231C216.817 57.1311 216.791 57.1342 216.765 57.1321H213.269C213.277 57.5658 213.453 57.9792 213.761 58.2845C214.07 58.5898 214.485 58.7628 214.918 58.7666C215.195 58.7676 215.467 58.6971 215.708 58.5618C215.95 58.4266 216.152 58.2313 216.296 57.9948C216.313 57.9755 216.334 57.96 216.357 57.9494C216.381 57.9388 216.406 57.9333 216.432 57.9333C216.457 57.9333 216.483 57.9388 216.506 57.9494C216.53 57.96 216.551 57.9755 216.568 57.9948C216.593 58.0072 216.616 58.025 216.633 58.0468C216.651 58.0686 216.664 58.094 216.671 58.1213C216.679 58.1486 216.68 58.177 216.675 58.2048C216.67 58.2326 216.66 58.2591 216.644 58.2823C216.464 58.5787 216.21 58.8236 215.908 58.9932C215.606 59.1629 215.265 59.2517 214.918 59.2509C214.642 59.247 214.369 59.1886 214.116 59.0793C213.862 58.9699 213.632 58.8116 213.44 58.6134C213.247 58.4153 213.095 58.1811 212.993 57.9244C212.891 57.6676 212.841 57.3933 212.845 57.117ZM213.299 56.7689H216.523C216.458 56.3879 216.261 56.0419 215.966 55.7923C215.671 55.5428 215.297 55.4059 214.911 55.4059C214.524 55.4059 214.15 55.5428 213.855 55.7923C213.56 56.0419 213.363 56.3879 213.299 56.7689Z" fill="#37352F"/>
<path d="M218.203 55.1951C218.203 55.1659 218.209 55.1371 218.22 55.1103C218.232 55.0836 218.249 55.0595 218.27 55.0396C218.291 55.0198 218.316 55.0045 218.344 54.9948C218.371 54.9851 218.401 54.9811 218.43 54.9832C218.483 54.987 218.533 55.011 218.57 55.0504C218.606 55.0897 218.627 55.1414 218.626 55.1951V56.1334C218.621 56.0983 218.621 56.0626 218.626 56.0275C218.796 55.7233 219.041 55.4677 219.338 55.2849C219.635 55.1021 219.973 54.9983 220.321 54.9832C220.378 54.9832 220.431 55.0055 220.471 55.0453C220.511 55.085 220.533 55.1389 220.533 55.1951C220.533 55.2513 220.511 55.3052 220.471 55.3449C220.431 55.3846 220.378 55.407 220.321 55.407C220.076 55.4148 219.836 55.4823 219.622 55.6036C219.409 55.7249 219.228 55.8963 219.096 56.1031C218.878 56.4045 218.704 56.7359 218.581 57.0868V59.0846C218.581 59.1382 218.561 59.1899 218.524 59.2293C218.488 59.2686 218.438 59.2926 218.384 59.2964C218.355 59.2985 218.326 59.2946 218.299 59.2849C218.271 59.2751 218.246 59.2599 218.225 59.24C218.203 59.2201 218.186 59.196 218.175 59.1693C218.163 59.1425 218.157 59.1137 218.157 59.0846L218.203 55.1951Z" fill="#37352F"/>
<path d="M225.285 53.7724L224.422 54.2718H224.316C224.28 54.2701 224.244 54.2596 224.213 54.2412C224.181 54.2227 224.154 54.1969 224.135 54.1659C224.122 54.1411 224.114 54.1139 224.111 54.086C224.109 54.0581 224.112 54.0299 224.12 54.0032C224.129 53.9764 224.142 53.9516 224.16 53.9302C224.179 53.9088 224.201 53.8911 224.226 53.8784L225.391 53.1671C225.432 53.1339 225.482 53.1157 225.535 53.1157C225.587 53.1157 225.638 53.1339 225.679 53.1671C225.693 53.2216 225.693 53.2789 225.679 53.3335V59.0845C225.679 59.1407 225.656 59.1946 225.617 59.2343C225.577 59.274 225.523 59.2964 225.467 59.2964C225.41 59.2964 225.357 59.274 225.317 59.2343C225.277 59.1946 225.255 59.1407 225.255 59.0845L225.285 53.7724Z" fill="#37352F"/>
<path d="M198.028 71.7668C197.972 71.7668 197.918 71.7444 197.878 71.7047C197.839 71.665 197.816 71.6111 197.816 71.5549V65.8947C197.816 65.8385 197.839 65.7847 197.878 65.7449C197.918 65.7052 197.972 65.6829 198.028 65.6829C198.084 65.6829 198.138 65.7052 198.178 65.7449C198.218 65.7847 198.24 65.8385 198.24 65.8947V71.343H201.146C201.202 71.343 201.256 71.3653 201.296 71.4051C201.335 71.4448 201.358 71.4987 201.358 71.5549C201.358 71.6111 201.335 71.665 201.296 71.7047C201.256 71.7444 201.202 71.7668 201.146 71.7668H198.028Z" fill="#37352F"/>
<path d="M206.171 67.7108V71.5548C206.171 71.611 206.149 71.6649 206.109 71.7046C206.069 71.7444 206.016 71.7667 205.959 71.7667C205.903 71.7667 205.849 71.7444 205.81 71.7046C205.77 71.6649 205.748 71.611 205.748 71.5548V70.9192C205.568 71.1759 205.331 71.3865 205.055 71.5338C204.779 71.6811 204.471 71.7609 204.158 71.7667C203.625 71.7217 203.129 71.4782 202.767 71.0844C202.405 70.6906 202.204 70.1752 202.204 69.6404C202.204 69.1055 202.405 68.5901 202.767 68.1963C203.129 67.8025 203.625 67.559 204.158 67.514C204.471 67.5144 204.778 67.5902 205.055 67.7352C205.332 67.8801 205.569 68.0898 205.748 68.3464V67.7108C205.747 67.6836 205.753 67.6567 205.764 67.6318C205.775 67.6069 205.791 67.5845 205.81 67.566C205.83 67.5475 205.854 67.5334 205.879 67.5244C205.905 67.5155 205.932 67.5119 205.959 67.514C205.986 67.5119 206.014 67.5155 206.039 67.5244C206.065 67.5334 206.089 67.5475 206.108 67.566C206.128 67.5845 206.144 67.6069 206.155 67.6318C206.166 67.6567 206.171 67.6836 206.171 67.7108ZM205.748 69.6782C205.727 69.3656 205.615 69.0659 205.426 68.8161C205.237 68.5663 204.979 68.3773 204.684 68.2725C204.389 68.1676 204.069 68.1515 203.765 68.2261C203.461 68.3007 203.185 68.4627 202.972 68.6922C202.758 68.9217 202.617 69.2086 202.565 69.5175C202.513 69.8264 202.552 70.1438 202.679 70.4305C202.805 70.7172 203.012 70.9607 203.275 71.1309C203.538 71.3011 203.845 71.3906 204.158 71.3883C204.595 71.3687 205.006 71.1784 205.303 70.8585C205.6 70.5386 205.76 70.1147 205.748 69.6782Z" fill="#37352F"/>
<path d="M207.896 67.7108C207.896 67.6586 207.917 67.6085 207.954 67.5716C207.991 67.5347 208.041 67.514 208.093 67.514C208.12 67.5119 208.147 67.5155 208.173 67.5244C208.198 67.5334 208.222 67.5475 208.242 67.566C208.262 67.5845 208.278 67.6069 208.288 67.6318C208.299 67.6567 208.305 67.6836 208.305 67.7108V70.0111C208.303 70.1833 208.335 70.3542 208.399 70.5139C208.464 70.6735 208.559 70.8188 208.68 70.9413C208.802 71.0637 208.946 71.1609 209.105 71.2273C209.264 71.2936 209.434 71.3278 209.606 71.3278C209.78 71.3298 209.953 71.2972 210.115 71.232C210.276 71.1667 210.423 71.07 210.547 70.9476C210.671 70.8251 210.769 70.6793 210.836 70.5185C210.903 70.3578 210.938 70.1853 210.938 70.0111V67.7108C210.93 67.6943 210.926 67.6761 210.926 67.6578C210.926 67.6394 210.93 67.6213 210.938 67.6048C210.963 67.5984 210.989 67.5984 211.014 67.6048H211.105H211.21C211.217 67.619 211.221 67.6345 211.221 67.6502C211.221 67.6659 211.217 67.6814 211.21 67.6956V71.4035C211.21 71.6691 211.158 71.9321 211.056 72.1773C210.954 72.4225 210.804 72.645 210.616 72.8321C210.427 73.0193 210.203 73.1672 209.957 73.2675C209.711 73.3677 209.448 73.4183 209.182 73.4163C208.878 73.4073 208.579 73.3351 208.305 73.2044C208.281 73.1918 208.261 73.1747 208.245 73.154C208.228 73.1334 208.216 73.1097 208.209 73.0843C208.202 73.0588 208.2 73.0323 208.204 73.0061C208.207 72.98 208.216 72.9548 208.229 72.932C208.252 72.8863 208.291 72.8504 208.338 72.8309C208.385 72.8114 208.438 72.8097 208.486 72.8261C208.702 72.9364 208.94 72.9935 209.182 72.9926C209.594 72.9934 209.991 72.8374 210.292 72.5563C210.592 72.2752 210.775 71.89 210.802 71.4791V71.1916C210.635 71.3801 210.43 71.5313 210.2 71.6356C209.971 71.7399 209.722 71.7948 209.47 71.797C209.243 71.795 209.019 71.7484 208.811 71.6599C208.602 71.5713 208.413 71.4426 208.254 71.281C208.096 71.1193 207.97 70.928 207.885 70.7179C207.801 70.5079 207.758 70.2831 207.76 70.0565L207.896 67.7108Z" fill="#37352F"/>
<path d="M212.845 69.6783C212.863 69.1558 213.078 68.6595 213.447 68.2888C213.816 67.9181 214.311 67.7005 214.834 67.6794C215.356 67.6584 215.867 67.8355 216.264 68.1753C216.662 68.5151 216.916 68.9924 216.977 69.5118C216.975 69.5377 216.968 69.5629 216.956 69.5861C216.944 69.6092 216.928 69.6298 216.908 69.6467C216.889 69.6636 216.866 69.6764 216.841 69.6844C216.817 69.6924 216.791 69.6955 216.765 69.6934H213.269C213.277 70.1271 213.453 70.5405 213.761 70.8458C214.07 71.1511 214.485 71.324 214.918 71.3279C215.195 71.3289 215.467 71.2584 215.708 71.1231C215.95 70.9879 216.152 70.7925 216.296 70.5561C216.313 70.5367 216.334 70.5213 216.357 70.5107C216.381 70.5001 216.406 70.4946 216.432 70.4946C216.457 70.4946 216.483 70.5001 216.506 70.5107C216.53 70.5213 216.551 70.5367 216.568 70.5561C216.593 70.5685 216.616 70.5862 216.633 70.6081C216.651 70.6299 216.664 70.6553 216.671 70.6826C216.679 70.7098 216.68 70.7383 216.675 70.7661C216.67 70.7939 216.66 70.8203 216.644 70.8436C216.464 71.1399 216.21 71.3848 215.908 71.5545C215.606 71.7242 215.265 71.813 214.918 71.8122C214.642 71.8083 214.369 71.7499 214.116 71.6405C213.862 71.5312 213.632 71.3729 213.44 71.1747C213.247 70.9766 213.095 70.7424 212.993 70.4857C212.891 70.2289 212.841 69.9545 212.845 69.6783ZM213.299 69.3302H216.523C216.458 68.9491 216.261 68.6031 215.966 68.3536C215.671 68.1041 215.297 67.9672 214.911 67.9672C214.524 67.9672 214.15 68.1041 213.855 68.3536C213.56 68.6031 213.363 68.9491 213.299 69.3302Z" fill="#37352F"/>
<path d="M218.203 67.7261C218.203 67.6969 218.209 67.6681 218.22 67.6414C218.232 67.6146 218.249 67.5905 218.27 67.5707C218.291 67.5508 218.316 67.5355 218.344 67.5258C218.371 67.5161 218.401 67.5121 218.43 67.5142C218.483 67.518 218.533 67.5421 218.57 67.5814C218.606 67.6207 218.627 67.6724 218.626 67.7261V68.6644C218.621 68.6293 218.621 68.5936 218.626 68.5585C218.796 68.2543 219.041 67.9987 219.338 67.8159C219.635 67.6331 219.973 67.5293 220.321 67.5142C220.378 67.5142 220.431 67.5365 220.471 67.5763C220.511 67.616 220.533 67.6699 220.533 67.7261C220.533 67.7823 220.511 67.8362 220.471 67.8759C220.431 67.9156 220.378 67.938 220.321 67.938C220.076 67.9458 219.836 68.0133 219.622 68.1346C219.409 68.2559 219.228 68.4273 219.096 68.6341C218.878 68.9355 218.704 69.2669 218.581 69.6178C218.574 69.6426 218.574 69.6688 218.581 69.6935V71.555C218.581 71.6087 218.561 71.6604 218.524 71.6997C218.488 71.739 218.438 71.763 218.384 71.7669C218.355 71.769 218.326 71.765 218.299 71.7553C218.271 71.7456 218.246 71.7303 218.225 71.7104C218.203 71.6906 218.186 71.6665 218.175 71.6397C218.163 71.613 218.157 71.5841 218.157 71.555L218.203 67.7261Z" fill="#37352F"/>
<path d="M224.286 71.3885L227.131 68.8308C227.293 68.6826 227.422 68.5025 227.51 68.302C227.599 68.1014 227.645 67.8847 227.646 67.6655C227.648 67.2779 227.502 66.9041 227.237 66.6212C227.094 66.4579 226.917 66.3273 226.718 66.2385C226.52 66.1498 226.304 66.1048 226.087 66.1067C225.698 66.1077 225.323 66.2472 225.027 66.5002L224.725 66.7726C224.706 66.7923 224.684 66.808 224.659 66.8187C224.635 66.8295 224.608 66.835 224.581 66.835C224.554 66.835 224.527 66.8295 224.503 66.8187C224.478 66.808 224.456 66.7923 224.437 66.7726C224.417 66.7528 224.401 66.7293 224.39 66.7033C224.379 66.6773 224.374 66.6494 224.374 66.6212C224.374 66.593 224.379 66.5651 224.39 66.5391C224.401 66.5132 224.417 66.4896 224.437 66.4699L224.74 66.1975C225.108 65.863 225.589 65.6793 226.087 65.6829C226.61 65.6907 227.11 65.9021 227.48 66.2722C227.85 66.6424 228.062 67.1421 228.069 67.6655C228.077 67.9498 228.022 68.2323 227.91 68.4936C227.798 68.7549 227.63 68.9887 227.419 69.1789L224.952 71.3431H227.827C227.883 71.3431 227.937 71.3654 227.977 71.4051C228.017 71.4449 228.039 71.4987 228.039 71.5549C228.039 71.6111 228.017 71.665 227.977 71.7048C227.937 71.7445 227.883 71.7668 227.827 71.7668H224.407C224.383 71.7777 224.357 71.7833 224.331 71.7833C224.305 71.7833 224.279 71.7777 224.256 71.7668C224.226 71.7437 224.202 71.7136 224.187 71.6791C224.172 71.6447 224.166 71.607 224.169 71.5695C224.172 71.532 224.184 71.4958 224.204 71.4642C224.225 71.4326 224.253 71.4065 224.286 71.3885Z" fill="#37352F"/>
<path d="M198.028 84.2978C197.972 84.2978 197.918 84.2755 197.878 84.2357C197.839 84.196 197.816 84.1421 197.816 84.0859V78.4257C197.816 78.3696 197.839 78.3157 197.878 78.2759C197.918 78.2362 197.972 78.2139 198.028 78.2139C198.084 78.2139 198.138 78.2362 198.178 78.2759C198.218 78.3157 198.24 78.3696 198.24 78.4257V83.874H201.146C201.202 83.874 201.256 83.8963 201.296 83.9361C201.335 83.9758 201.358 84.0297 201.358 84.0859C201.358 84.1421 201.335 84.196 201.296 84.2357C201.256 84.2755 201.202 84.2978 201.146 84.2978H198.028Z" fill="#37352F"/>
<path d="M206.171 80.2722V84.1162C206.171 84.1724 206.149 84.2263 206.109 84.266C206.069 84.3058 206.016 84.3281 205.959 84.3281C205.903 84.3281 205.849 84.3058 205.81 84.266C205.77 84.2263 205.748 84.1724 205.748 84.1162V83.4503C205.568 83.707 205.331 83.9176 205.055 84.0649C204.779 84.2122 204.471 84.2921 204.158 84.2978C203.625 84.2528 203.129 84.0093 202.767 83.6155C202.405 83.2217 202.204 82.7064 202.204 82.1715C202.204 81.6366 202.405 81.1213 202.767 80.7275C203.129 80.3337 203.625 80.0902 204.158 80.0452C204.471 80.0455 204.778 80.1214 205.055 80.2663C205.332 80.4113 205.569 80.621 205.748 80.8775V80.2722C205.747 80.245 205.753 80.2181 205.764 80.1932C205.775 80.1683 205.791 80.1459 205.81 80.1274C205.83 80.1089 205.854 80.0948 205.879 80.0858C205.905 80.0769 205.932 80.0734 205.959 80.0754C205.986 80.0734 206.014 80.0769 206.039 80.0858C206.065 80.0948 206.089 80.1089 206.108 80.1274C206.128 80.1459 206.144 80.1683 206.155 80.1932C206.166 80.2181 206.171 80.245 206.171 80.2722ZM205.748 82.1942C205.727 81.8816 205.615 81.5819 205.426 81.3321C205.237 81.0823 204.979 80.8934 204.684 80.7885C204.389 80.6837 204.069 80.6675 203.765 80.7421C203.461 80.8167 203.185 80.9787 202.972 81.2082C202.758 81.4377 202.617 81.7246 202.565 82.0335C202.513 82.3424 202.552 82.6598 202.679 82.9465C202.805 83.2332 203.012 83.4767 203.275 83.6469C203.538 83.8171 203.845 83.9066 204.158 83.9044C204.378 83.8966 204.593 83.8452 204.793 83.7531C204.992 83.661 205.171 83.5301 205.319 83.368C205.467 83.206 205.581 83.016 205.654 82.8092C205.728 82.6025 205.76 82.3831 205.748 82.1639V82.1942Z" fill="#37352F"/>
<path d="M207.896 80.272C207.896 80.2199 207.917 80.1698 207.954 80.1329C207.991 80.096 208.041 80.0753 208.093 80.0753C208.12 80.0732 208.147 80.0767 208.173 80.0857C208.198 80.0946 208.222 80.1088 208.242 80.1273C208.262 80.1458 208.278 80.1682 208.288 80.1931C208.299 80.218 208.305 80.2449 208.305 80.272V82.5421C208.303 82.7143 208.335 82.8852 208.399 83.0449C208.464 83.2045 208.559 83.3498 208.68 83.4723C208.802 83.5947 208.946 83.692 209.105 83.7583C209.264 83.8247 209.434 83.8588 209.606 83.8588C209.78 83.8608 209.953 83.8282 210.115 83.763C210.276 83.6977 210.423 83.601 210.547 83.4786C210.671 83.3561 210.769 83.2103 210.836 83.0495C210.903 82.8888 210.938 82.7163 210.938 82.5421V80.272C210.93 80.2555 210.926 80.2374 210.926 80.2191C210.926 80.2007 210.93 80.1826 210.938 80.1661C210.963 80.1597 210.989 80.1597 211.014 80.1661H211.105H211.21C211.217 80.1803 211.221 80.1958 211.221 80.2115C211.221 80.2272 211.217 80.2427 211.21 80.2569V83.9648C211.21 84.2304 211.158 84.4933 211.056 84.7385C210.954 84.9837 210.804 85.2063 210.616 85.3934C210.427 85.5805 210.203 85.7285 209.957 85.8287C209.711 85.929 209.448 85.9796 209.182 85.9776C208.878 85.9686 208.579 85.8964 208.305 85.7657C208.281 85.7531 208.261 85.736 208.245 85.7153C208.228 85.6947 208.216 85.671 208.209 85.6455C208.202 85.6201 208.2 85.5935 208.204 85.5674C208.207 85.5412 208.216 85.516 208.229 85.4933C208.252 85.4476 208.291 85.4116 208.338 85.3922C208.385 85.3727 208.438 85.371 208.486 85.3874C208.702 85.4977 208.94 85.5548 209.182 85.5538C209.595 85.5584 209.994 85.4036 210.296 85.1217C210.597 84.8399 210.778 84.4526 210.802 84.0404V83.768C210.635 83.9565 210.43 84.1077 210.2 84.212C209.971 84.3163 209.722 84.3713 209.47 84.3734C209.243 84.3714 209.019 84.3248 208.811 84.2363C208.602 84.1477 208.413 84.019 208.254 83.8574C208.096 83.6957 207.97 83.5044 207.885 83.2943C207.801 83.0843 207.758 82.8595 207.76 82.6329L207.896 80.272Z" fill="#37352F"/>
<path d="M212.845 82.179C212.863 81.6565 213.078 81.1602 213.447 80.7895C213.816 80.4189 214.311 80.2012 214.834 80.1801C215.356 80.1591 215.867 80.3362 216.264 80.676C216.662 81.0158 216.916 81.4932 216.977 82.0126C216.975 82.0384 216.968 82.0636 216.956 82.0868C216.944 82.1099 216.928 82.1305 216.908 82.1474C216.889 82.1643 216.866 82.1771 216.841 82.1851C216.817 82.1932 216.791 82.1962 216.765 82.1942H213.269C213.277 82.6278 213.453 83.0413 213.761 83.3465C214.07 83.6518 214.485 83.8248 214.918 83.8286C215.195 83.8296 215.467 83.7591 215.708 83.6239C215.95 83.4886 216.152 83.2933 216.296 83.0568C216.313 83.0375 216.334 83.022 216.357 83.0114C216.381 83.0008 216.406 82.9953 216.432 82.9953C216.457 82.9953 216.483 83.0008 216.506 83.0114C216.53 83.022 216.551 83.0375 216.568 83.0568C216.593 83.0692 216.616 83.087 216.633 83.1088C216.651 83.1306 216.664 83.156 216.671 83.1833C216.679 83.2106 216.68 83.2391 216.675 83.2668C216.67 83.2946 216.66 83.3211 216.644 83.3443C216.464 83.6407 216.21 83.8856 215.908 84.0553C215.606 84.225 215.265 84.3137 214.918 84.3129C214.642 84.309 214.369 84.2507 214.116 84.1413C213.862 84.0319 213.632 83.8736 213.44 83.6755C213.247 83.4773 213.095 83.2431 212.993 82.9864C212.891 82.7296 212.841 82.4553 212.845 82.179ZM213.299 81.8309H216.523C216.458 81.4499 216.261 81.1039 215.966 80.8544C215.671 80.6048 215.297 80.4679 214.911 80.4679C214.524 80.4679 214.15 80.6048 213.855 80.8544C213.56 81.1039 213.363 81.4499 213.299 81.8309Z" fill="#37352F"/>
<path d="M218.203 80.2722C218.203 80.2431 218.209 80.2142 218.22 80.1875C218.232 80.1607 218.249 80.1367 218.27 80.1168C218.291 80.0969 218.316 80.0816 218.344 80.0719C218.371 80.0622 218.401 80.0583 218.43 80.0604C218.483 80.0642 218.533 80.0882 218.57 80.1275C218.606 80.1668 218.627 80.2186 218.626 80.2722V81.2105C218.621 81.1754 218.621 81.1397 218.626 81.1046C218.796 80.8005 219.041 80.5448 219.338 80.3621C219.635 80.1793 219.973 80.0754 220.321 80.0604C220.378 80.0604 220.431 80.0827 220.471 80.1224C220.511 80.1622 220.533 80.216 220.533 80.2722C220.533 80.3284 220.511 80.3823 220.471 80.422C220.431 80.4618 220.378 80.4841 220.321 80.4841C220.076 80.492 219.836 80.5595 219.622 80.6807C219.409 80.802 219.228 80.9735 219.096 81.1803C218.878 81.4817 218.704 81.813 218.581 82.164C218.575 82.1889 218.575 82.2148 218.581 82.2397V84.1012C218.581 84.1548 218.561 84.2065 218.524 84.2459C218.488 84.2852 218.438 84.3092 218.384 84.313C218.355 84.3151 218.326 84.3112 218.299 84.3015C218.271 84.2917 218.246 84.2765 218.225 84.2566C218.203 84.2367 218.186 84.2126 218.175 84.1859C218.163 84.1591 218.157 84.1303 218.157 84.1012L218.203 80.2722Z" fill="#37352F"/>
<path d="M227.979 78.5922L226.466 80.2721C226.862 80.3507 227.225 80.5456 227.51 80.8321C227.892 81.2224 228.105 81.7466 228.105 82.2925C228.105 82.8385 227.892 83.3627 227.51 83.753C227.311 83.9495 227.074 84.1042 226.814 84.2082C226.554 84.3121 226.276 84.3632 225.997 84.3583C225.729 84.359 225.463 84.3058 225.216 84.2018C224.969 84.0978 224.746 83.9452 224.559 83.753C224.539 83.7331 224.523 83.7095 224.512 83.6835C224.502 83.6576 224.496 83.6297 224.496 83.6016C224.496 83.5735 224.502 83.5457 224.512 83.5197C224.523 83.4938 224.539 83.4702 224.559 83.4503C224.579 83.4304 224.602 83.4146 224.628 83.4039C224.654 83.3931 224.682 83.3876 224.71 83.3876C224.738 83.3876 224.766 83.3931 224.792 83.4039C224.818 83.4146 224.842 83.4304 224.861 83.4503C225.166 83.7456 225.572 83.9134 225.997 83.9194C226.431 83.9181 226.848 83.7502 227.162 83.4503C227.464 83.138 227.633 82.7198 227.631 82.285C227.632 82.0718 227.592 81.8605 227.511 81.6631C227.431 81.4657 227.312 81.2862 227.162 81.1348C227.011 80.984 226.831 80.8649 226.634 80.7843C226.437 80.7038 226.225 80.6634 226.012 80.6656C225.978 80.6692 225.944 80.6625 225.914 80.6462C225.884 80.63 225.86 80.6051 225.845 80.5748C225.804 80.5324 225.78 80.4753 225.78 80.4159C225.78 80.3565 225.804 80.2994 225.845 80.257L227.359 78.7436H224.952C224.895 78.7397 224.841 78.7141 224.801 78.672C224.762 78.6298 224.74 78.5742 224.74 78.5166C224.74 78.4604 224.763 78.4065 224.802 78.3667C224.842 78.327 224.896 78.3047 224.952 78.3047H227.797C227.854 78.3047 227.908 78.327 227.947 78.3667C227.987 78.4065 228.009 78.4604 228.009 78.5166C228.017 78.5331 228.022 78.5512 228.022 78.5695C228.022 78.5879 228.017 78.606 228.009 78.6225C227.998 78.6143 227.987 78.604 227.979 78.5922Z" fill="#37352F"/>
<path d="M191.884 63.9275H189.16V74.2641H191.884V63.9275Z" fill="#FBE9F2"/>
<path d="M191.884 75.8076H189.16V86.1442H191.884V75.8076Z" fill="#DEFDFF"/>
<path d="M191.884 51.4719H189.16V61.8085H191.884V51.4719Z" fill="#FFF3E8"/>
<path d="M184.272 56.0122H178.732V60.6735H184.272V56.0122Z" fill="#37352F"/>
<path d="M183.606 56.5269H182.97V55.301C182.97 53.9541 182.486 53.2731 181.548 53.2731C180.034 53.2731 180.034 55.074 180.034 55.1497V56.5269H179.399V55.1497C179.365 54.8386 179.396 54.524 179.489 54.2253C179.583 53.9267 179.736 53.6503 179.94 53.4133C180.145 53.1764 180.395 52.9839 180.677 52.8479C180.959 52.7118 181.266 52.635 181.578 52.6223C182.91 52.6223 183.636 53.5758 183.636 55.301L183.606 56.5269Z" fill="#37352F"/>
<path d="M239.088 59.478C238.528 59.478 237.981 59.312 237.516 59.0011C237.05 58.6901 236.687 58.2481 236.473 57.731C236.259 57.2138 236.203 56.6448 236.312 56.0958C236.421 55.5468 236.691 55.0426 237.087 54.6468C237.483 54.251 237.987 53.9815 238.536 53.8723C239.085 53.7631 239.654 53.8191 240.171 54.0333C240.688 54.2475 241.13 54.6102 241.441 55.0756C241.752 55.541 241.918 56.0882 241.918 56.6479C241.918 57.3985 241.62 58.1184 241.089 58.6491C240.558 59.1798 239.838 59.478 239.088 59.478ZM239.088 54.1811C238.602 54.19 238.13 54.3423 237.73 54.6187C237.33 54.8952 237.021 55.2835 236.841 55.735C236.662 56.1864 236.619 56.6809 236.719 57.1564C236.82 57.6319 237.058 58.0672 237.405 58.4077C237.752 58.7482 238.191 58.9786 238.668 59.0702C239.146 59.1618 239.639 59.1103 240.087 58.9224C240.536 58.7344 240.918 58.4183 241.187 58.0136C241.456 57.609 241.6 57.1339 241.6 56.6479C241.6 56.3201 241.535 55.9956 241.408 55.6933C241.281 55.391 241.096 55.117 240.862 54.8874C240.628 54.6577 240.35 54.4769 240.046 54.3557C239.741 54.2344 239.416 54.1751 239.088 54.1811Z" fill="#37352F"/>
<path d="M239.088 71.9182C238.528 71.9182 237.981 71.7522 237.516 71.4413C237.05 71.1303 236.687 70.6883 236.473 70.1712C236.259 69.654 236.203 69.085 236.312 68.536C236.421 67.987 236.691 67.4828 237.087 67.087C237.483 66.6912 237.987 66.4216 238.536 66.3124C239.085 66.2032 239.654 66.2593 240.171 66.4735C240.688 66.6877 241.13 67.0504 241.441 67.5158C241.752 67.9812 241.918 68.5284 241.918 69.0881C241.918 69.8387 241.62 70.5586 241.089 71.0893C240.558 71.62 239.838 71.9182 239.088 71.9182ZM239.088 66.6213C238.602 66.6302 238.13 66.7825 237.73 67.0589C237.33 67.3353 237.021 67.7237 236.841 68.1751C236.662 68.6266 236.619 69.1211 236.719 69.5966C236.82 70.0721 237.058 70.5074 237.405 70.8479C237.752 71.1883 238.191 71.4188 238.668 71.5104C239.146 71.6019 239.639 71.5505 240.087 71.3625C240.536 71.1746 240.918 70.8584 241.187 70.4538C241.456 70.0492 241.6 69.5741 241.6 69.0881C241.596 68.7629 241.528 68.4416 241.399 68.1428C241.271 67.8441 241.084 67.5736 240.851 67.3472C240.617 67.1207 240.341 66.9427 240.039 66.8233C239.736 66.7039 239.413 66.6455 239.088 66.6515V66.6213Z" fill="#37352F"/>
<path d="M239.087 84.3735C238.524 84.3765 237.972 84.2122 237.502 83.9014C237.032 83.5905 236.665 83.1472 236.448 82.6276C236.23 82.108 236.171 81.5355 236.279 80.9825C236.387 80.4296 236.657 79.9213 237.055 79.5218C237.452 79.1224 237.959 78.8499 238.511 78.7389C239.063 78.6279 239.636 78.6833 240.157 78.8982C240.678 79.1131 241.123 79.4778 241.436 79.946C241.75 80.4142 241.917 80.9649 241.917 81.5283C241.919 81.9012 241.847 82.2708 241.706 82.616C241.565 82.9611 241.356 83.2748 241.093 83.5392C240.83 83.8036 240.518 84.0135 240.173 84.1566C239.829 84.2998 239.46 84.3735 239.087 84.3735ZM239.087 79.0614C238.597 79.0674 238.119 79.2184 237.715 79.4954C237.31 79.7724 236.997 80.163 236.814 80.6179C236.631 81.0728 236.587 81.5716 236.688 82.0515C236.788 82.5313 237.028 82.9707 237.378 83.3142C237.728 83.6577 238.172 83.8899 238.653 83.9815C239.135 84.0731 239.633 84.0201 240.084 83.829C240.536 83.638 240.921 83.3175 241.19 82.9081C241.46 82.4986 241.602 82.0185 241.599 81.5283C241.597 81.2011 241.531 80.8774 241.403 80.5761C241.275 80.2747 241.09 80.0015 240.856 79.7723C240.623 79.543 240.346 79.3622 240.043 79.2402C239.739 79.1182 239.414 79.0574 239.087 79.0614Z" fill="#37352F"/>
</g>
<defs>
<clipPath id="clip0_533_1493">
<rect width="250" height="211.635" fill="white" transform="translate(0.998047 0.182617)"/>
</clipPath>
</defs>
</svg>
