<svg xmlns="http://www.w3.org/2000/svg" xmlns:xlink="http://www.w3.org/1999/xlink" width="251" height="212" fill="none" xmlns:v="https://vecta.io/nano"><style><![CDATA[.B{fill:#fff}.C{fill:#e2f1ff}.D{fill:#37352f}.E{stroke:#37352f}.F{stroke-linejoin:round}.G{fill:#fff3e8}.H{fill:#defdff}]]></style><g clip-path="url(#A)"><g class="E F"><path d="M205.505.939H33.173v171.969h172.332V.939z" class="G"/><path d="M205.611.939H33.173v10.397h172.438V.939z" class="B"/><path d="M41.361 6.115c0 .429-.127.848-.366 1.204s-.577.634-.974.797-.832.205-1.252.121-.806-.292-1.108-.597-.507-.691-.589-1.112-.037-.856.129-1.252.446-.732.804-.968.778-.36 1.206-.357c.571.004 1.118.234 1.521.639s.628.954.628 1.525z" fill="#fbe9f2"/><path d="M50.184 6.115c0 .428-.127.846-.365 1.202s-.576.633-.971.797-.831.207-1.25.123-.805-.29-1.108-.592-.509-.688-.592-1.108-.041-.855.123-1.25.441-.733.797-.971.774-.365 1.202-.365c.574 0 1.125.228 1.53.634s.634.956.634 1.53z" class="G"/><path d="M59.007 6.115c0 .428-.127.846-.365 1.202s-.576.633-.971.797-.831.207-1.25.123-.805-.29-1.108-.592-.509-.688-.592-1.108-.041-.855.123-1.25.441-.733.797-.971.774-.365 1.202-.365c.574 0 1.124.228 1.53.634s.634.956.634 1.53z" class="H"/><path d="M182.395 28.922H56.389v126.007h126.006V28.922z" class="B"/></g><path d="M119.316 134.331v-.984c8.666 0 17.137-2.569 24.342-7.383s12.82-11.657 16.137-19.663a43.82 43.82 0 0 0-9.498-47.747 43.81 43.81 0 0 0-22.433-11.991c-8.499-1.69-17.308-.823-25.314 2.493s-14.849 8.932-19.663 16.137-7.384 15.676-7.384 24.341h-.984c0-8.86 2.627-17.521 7.55-24.888a44.8 44.8 0 0 1 45.987-19.048c8.69 1.728 16.672 5.995 22.937 12.26a44.8 44.8 0 0 1 12.26 22.937c1.728 8.69.841 17.697-2.55 25.882s-9.132 15.182-16.499 20.105a44.8 44.8 0 0 1-24.888 7.549z" class="C"/><path d="M77.41 89.534c0 .476-.141.941-.406 1.337s-.64.704-1.08.886-.924.23-1.39.137-.895-.322-1.232-.659-.566-.765-.659-1.232-.045-.951.137-1.39.491-.816.886-1.08.861-.406 1.337-.406c.316 0 .629.062.921.183s.557.298.781.522.401.489.522.781.183.605.183.921z" class="B"/><g class="C"><path d="M75.004 92.38c-.575 0-1.138-.171-1.616-.491s-.851-.775-1.07-1.306a2.91 2.91 0 0 1 .636-3.169c.407-.406.927-.681 1.492-.792s1.149-.051 1.68.172a2.91 2.91 0 0 1 1.301 1.077 2.9 2.9 0 0 1 .482 1.618 2.91 2.91 0 0 1-.856 2.045c-.544.542-1.281.846-2.049.846zm0-4.813a1.92 1.92 0 0 0-1.359 3.282 1.92 1.92 0 0 0 3.281-1.359 1.92 1.92 0 0 0-1.922-1.877v-.045zm30.857-7.295c0 1.033-.306 2.042-.879 2.901s-1.39 1.528-2.344 1.923a5.22 5.22 0 0 1-6.822-6.822 5.22 5.22 0 0 1 10.045 1.998zm32.131 5.236c2.883 0 5.221-2.338 5.221-5.221s-2.338-5.221-5.221-5.221a5.221 5.221 0 1 0 0 10.442z"/></g><path d="M163.614 91.941a2.41 2.41 0 0 0 2.407-2.406c0-1.329-1.078-2.406-2.407-2.406s-2.406 1.077-2.406 2.406 1.077 2.406 2.406 2.406z" class="B E F"/><path d="M163.614 92.38c-.576 0-1.138-.171-1.616-.491s-.851-.775-1.07-1.306-.276-1.117-.163-1.681a2.91 2.91 0 0 1 2.291-2.279c.565-.11 1.15-.051 1.68.172a2.9 2.9 0 0 1 1.783 2.695c-.004.768-.311 1.503-.856 2.045s-1.281.846-2.049.846zm0-4.813c-.38 0-.752.113-1.068.324a1.92 1.92 0 0 0-.817 1.973 1.92 1.92 0 0 0 1.51 1.51 1.92 1.92 0 0 0 1.11-.109c.351-.145.652-.392.863-.708s.324-.688.324-1.068c-.012-.502-.22-.979-.579-1.33a1.92 1.92 0 0 0-1.343-.547v-.045z" class="C"/><path d="M121.723 45.222a2.4 2.4 0 0 1-.406 1.337c-.264.396-.64.704-1.08.886s-.923.23-1.39.137-.896-.322-1.232-.659-.566-.765-.659-1.232-.045-.951.137-1.39.491-.816.887-1.08.861-.406 1.336-.406c.639 0 1.251.254 1.702.705a2.41 2.41 0 0 1 .705 1.701z" class="B"/><path d="M119.316 48.127c-.575.003-1.138-.165-1.618-.482s-.855-.77-1.077-1.301-.282-1.115-.171-1.68a2.9 2.9 0 0 1 .791-1.492 2.91 2.91 0 0 1 1.488-.8c.564-.113 1.149-.057 1.681.163s.986.592 1.306 1.07.491 1.041.491 1.616c0 .768-.304 1.505-.846 2.049s-1.277.852-2.045.856zm0-4.813a1.92 1.92 0 0 0-1.073.318 1.93 1.93 0 0 0-.828 1.976 1.93 1.93 0 0 0 .527.988c.27.27.614.453.988.527s.762.034 1.114-.113a1.92 1.92 0 0 0 1.179-1.788 1.92 1.92 0 0 0-1.907-1.907z" class="C"/><g class="D"><path d="M128.881 139.446c1.549 3.865 2.201 8.03 1.907 12.183l-4.54 2.195c-3.455-2.319-6.338-5.393-8.43-8.99 3.345-4.828.651-10.594.651-10.594l.469-.212 4.45 9.081a1.55 1.55 0 0 0-.682.972c-.09.402-.016.822.205 1.169s.57.593.972.682.822.016 1.169-.205c.388-.136.705-.421.882-.791s.201-.797.064-1.184a1.55 1.55 0 0 0-.791-.882c-.371-.177-.796-.2-1.184-.064l-4.449-9.08.469-.227s2.981 5.63 8.838 5.947z"/><path d="M131.575 150.577l-6.609 3.228 1.361 2.788 6.609-3.228-1.361-2.788zm5.66.825h-.575v5.509h.575v-5.509z"/><path d="M139.702 153.869h-5.509v.575h5.509v-.575z"/><path d="M138.689 152.016l-3.895 3.895.407.407 3.895-3.896-.407-.406z"/><path d="M135.19 152.005l-.407.407 3.896 3.895.406-.406-3.895-3.896zm1.743-9.789c-4.344-.121-5.797-3.027-7.098-5.448a7.69 7.69 0 0 0-2.467-3.33c-3.466-2.028-6.735.923-6.886 1.06l-.772-.848s4.026-3.647 8.233-1.196c1.31.961 2.323 2.273 2.921 3.784 1.241 2.437 2.436 4.737 6.053 4.828l.016 1.15z"/></g><path d="M129.124 79.107c0 2.609-1.037 5.111-2.882 6.956a9.84 9.84 0 0 1-13.912 0 9.84 9.84 0 0 1-2.881-6.956h19.675z" class="C"/><path d="M46.31 47.144H1.755v163.917H46.31V47.144z" class="E F H"/><g class="D"><path d="M14.059 71.388l-1.907-4.631-3.42 2.664V54.544l10.397 10.503-4.359.651 1.907 4.54-2.618 1.15zm-1.604-5.781l2.013 4.828 1.256-.53-1.983-4.767 3.874-.59-8.142-8.218v11.608l2.981-2.331zm25.319-.196l1.952 4.692-1.952.802-1.952-4.722-3.208 2.482V55.437l9.262 9.353-4.101.621zM17.817 83.593l-9.04 11.605.86.67 9.04-11.605-.86-.67zm-4.954 1.462l-2.21.393-.499 2.346-.499-2.346-2.21-.409 2.21-.53.499-2.21.499 2.21 2.21.545zm4.904-3.693l-1.302.242-.288 1.362-.288-1.362-1.301-.257 1.286-.303.303-1.302.288 1.302 1.302.318zm1.528 7.34l-.742.136-.166.787-.167-.787-.742-.136.742-.182.167-.726.166.726.742.182zm20.002 36.421l-9.04 11.605.86.669 9.04-11.604-.86-.67zm-1.523-33.349l1.952 4.692-1.952.802-1.952-4.722-3.208 2.482V81.801l9.262 9.353-4.101.621z"/><path d="M31.72 89.958c-.742.09-1.494-.016-2.182-.309s-1.287-.76-1.737-1.356c-.772-1.513-.182-4.692 4.54-7.264 3.768-2.073 7.567-1.211 8.445.273.206.385.327.811.353 1.247s-.043.873-.201 1.28c-.453 1.182-1.145 2.257-2.033 3.158a9.17 9.17 0 0 1-3.128 2.078 9.93 9.93 0 0 1-4.056.893zm5.267-9.444a9.08 9.08 0 0 0-4.283 1.15c-4.253 2.316-4.873 5.1-4.253 6.296s3.572 1.952 6.992.439a8.55 8.55 0 0 0 4.873-4.782c.123-.31.18-.643.167-.977a2.39 2.39 0 0 0-.243-.961c-.414-.435-.923-.767-1.488-.969s-1.17-.27-1.765-.196z"/><path d="M29.722 90.866a1.71 1.71 0 0 1-1.392-.696c-.188-.232-.308-.513-.346-.81s.009-.598.134-.87c.187-.339.461-.623.793-.822s.711-.307 1.099-.312a1.65 1.65 0 0 1 1.513.863c.213.397.263.861.138 1.293s-.413.799-.804 1.022c-.34.214-.733.329-1.135.333zm-.802-1.135a1.12 1.12 0 0 0 1.513.182c.116-.06.22-.144.303-.244s.147-.218.185-.343a.98.98 0 0 0 .037-.388c-.014-.13-.053-.257-.116-.372-.078-.154-.201-.281-.352-.365s-.324-.12-.496-.104c-.252.005-.499.072-.718.196s-.404.301-.538.515c-.066.152-.087.32-.06.484a.86.86 0 0 0 .212.439h.03z"/><path d="M31.705 92.864l-.469-.59c.212-.166.469-.409.439-.651s-.863-.878-1.241-1.029l.257-.681c.166 0 1.513.651 1.71 1.619a1.52 1.52 0 0 1-.171.759c-.122.234-.303.431-.525.573zm-22.64 16.163a18.17 18.17 0 0 1 7.174-3.784l2.316 2.271a17.95 17.95 0 0 1-3.799 7.158 7.56 7.56 0 0 0-3.611.131c-1.175.335-2.252.949-3.139 1.791l-.227-.242 4.707-4.722c.195.127.428.182.66.158a1.01 1.01 0 0 0 .611-.294 1.05 1.05 0 0 0 .24-.345 1.04 1.04 0 0 0 .085-.412 1.05 1.05 0 0 0-.325-.757c-.179-.171-.413-.272-.661-.285a1.03 1.03 0 0 0-.944 1.542l-4.707 4.721-.242-.242c.815-.889 1.409-1.959 1.732-3.121a7.66 7.66 0 0 0 .129-3.568z"/><path d="M15.388 104.925l3.425 3.425 1.445-1.445-3.425-3.424-1.445 1.444z"/></g><path d="M43.313 101.203H25.485v16.662h17.828v-16.662z" class="G"/><g class="D"><path d="M31.947 109.027a18.17 18.17 0 0 1 7.174-3.784l2.316 2.271a17.95 17.95 0 0 1-3.799 7.158 7.56 7.56 0 0 0-3.603.135c-1.173.335-2.247.948-3.132 1.787l-.242-.242 4.707-4.722c.195.127.428.182.66.158s.447-.129.611-.294a1.05 1.05 0 0 0 .24-.345c.056-.13.085-.27.085-.412a1.05 1.05 0 0 0-.325-.757c-.179-.171-.413-.272-.661-.285a1.03 1.03 0 0 0-1.062.832 1.03 1.03 0 0 0 .118.71l-4.707 4.736-.242-.242c.818-.891 1.413-1.963 1.736-3.128a7.66 7.66 0 0 0 .125-3.576z"/><path d="M38.284 104.923l3.424 3.425 1.445-1.445-3.425-3.424-1.445 1.444zm-7.956 11.414a2.88 2.88 0 0 1-1.412-.305 2.87 2.87 0 0 1-1.086-.951c-.515-.818-.832-2.392.545-5.252a2.71 2.71 0 0 0 .212-2.482 3.24 3.24 0 0 0-2.255-1.286l.091-.727a3.98 3.98 0 0 1 1.577.525 3.96 3.96 0 0 1 1.223 1.125 3.39 3.39 0 0 1-.182 3.163c-1.241 2.558-.999 3.889-.59 4.54a2.15 2.15 0 0 0 .823.688 2.14 2.14 0 0 0 1.053.205v.757zm-12.244 8.172v3.027H17.1c-.1.009-.199-.021-.278-.083a.39.39 0 0 1-.146-.25c0-.106 0-.318-.091-.711h-2.558v8.929h.515.257.106c.13.018.248.084.332.185a.53.53 0 0 1 .122.36v1.014H10.38v-1.014a.5.5 0 0 1 .439-.545h.106.257.499v-8.945H9.125c0 .379 0 .621-.076.727-.015.096-.065.183-.14.245a.39.39 0 0 1-.268.088h-.999v-3.027h10.442zm1.757 36.776H7.098v-12.743h12.743v12.743zm-11.653-1.09h10.594v-10.594H8.187v10.594zm31.765 39.122H28.936v-9.852h11.018v9.852zm-9.913-1.09h8.763v-7.673H30.04v7.673z"/><path d="M33.9 202.223h-7.673v-6.932H33.9v6.932zm-6.568-1.09h5.418v-4.722h-5.418v4.722zm10.188-9.647l-2.772 2.772.514.514L38.033 192l-.514-.514z"/><path d="M38.303 193.384h-.726v-1.452h-1.392v-.727h2.119v2.179zm2.256-32.084H27.801v-12.773h5.948a4.84 4.84 0 0 1 1.74-3.095c.951-.774 2.16-1.158 3.383-1.076a4.85 4.85 0 0 1 4.517 4.822c-.004.927-.272 1.834-.773 2.614s-1.215 1.401-2.057 1.79v7.718zm-11.668-1.105h10.594v-7.279l.348-.136a3.74 3.74 0 0 0 1.153-6.399c-.68-.566-1.539-.873-2.424-.866-.977-.004-1.917.376-2.616 1.058s-1.102 1.613-1.122 2.589v.545h-5.902l-.03 10.488zm6.976-8.081c-1.907-.318-2.179 1.68-2.21 2.467a2.2 2.2 0 0 1-1.513 1.695s2.951.802 4.419-.697c.287-.226.506-.528.632-.872a1.98 1.98 0 0 0-1.328-2.593z"/><path d="M42.374 145.984l-4.767 6.75c-.145-.295-.358-.551-.621-.749a2.08 2.08 0 0 0-.893-.386h-.333l3.965-5.584 2.648-.031zm-24.578 29.158l-3.349-3.35-6.828 6.828 3.35 3.35 6.828-6.828z"/><path d="M19.792 173.121l-3.349-3.349-1.445 1.444 3.35 3.35 1.445-1.445zm-12.483 9.14l.272-3.572.726.061-.212 2.709 2.724-.197.061.726-3.572.273zm30.858-5.676a2.57 2.57 0 0 1-2.388-1.577 2.58 2.58 0 0 1-.153-1.488 2.57 2.57 0 0 1 .701-1.321 2.58 2.58 0 0 1 2.806-.565c.471.195.874.524 1.157.948a2.57 2.57 0 0 1 .435 1.431c0 .679-.269 1.332-.748 1.814a2.57 2.57 0 0 1-1.809.758zm0-4.055a1.51 1.51 0 0 0-1.484 1.808c.058.294.203.563.414.775s.481.356.775.414a1.51 1.51 0 0 0 1.553-.643c.166-.249.255-.542.255-.841a1.51 1.51 0 0 0-.464-1.031c-.282-.271-.658-.422-1.049-.422v-.06z"/><path d="M26.348 180.611l10.079-5.554 1.74.984-8.657 4.964c-1.069.211-2.178.073-3.163-.394zm11.774 1.695a2.58 2.58 0 0 1-2.377-1.588 2.57 2.57 0 0 1 1.875-3.508 2.58 2.58 0 0 1 2.641 1.094 2.57 2.57 0 0 1 .434 1.429c0 .683-.271 1.337-.754 1.82a2.57 2.57 0 0 1-1.819.753zm0-4.056c-.299 0-.592.089-.841.255s-.443.403-.557.68a1.51 1.51 0 0 0 .328 1.649 1.51 1.51 0 0 0 .775.414 1.52 1.52 0 0 0 1.554-.643c.166-.249.255-.542.255-.841a1.51 1.51 0 0 0-.443-1.07c-.284-.284-.669-.444-1.07-.444z"/><path d="M26.303 173.135l10.094 5.509 1.725-.984-8.642-4.964a5.15 5.15 0 0 0-3.178.439zM7.157 200.573v-9.459l6.054 4.722-6.054 4.737zm1.09-7.219v4.964l3.178-2.497-3.178-2.467zm11.503-2.104v9.172l-5.827-4.586 5.827-4.586zm-5.979 9.626h-.363v-1.514h.363v1.514zm0-2.906h-.363v-1.513h.363v1.513zm0-2.921h-.363v-1.513h.363v1.513zm0-2.906h-.363v-1.513h.363v1.513z"/></g><path d="M250.256 42.513h-91.773v54.452h91.773V42.513z" class="C E F"/><g class="D"><path d="M175.056 51.169h-.364v35.777h.364V51.169zm13.196 0h-.363v35.777h.363V51.169zm-20.083 3.375a4.54 4.54 0 0 0-2.139.572c-.655.364-1.209.885-1.614 1.516a4.73 4.73 0 0 0 1.645 1.564 4.72 4.72 0 0 0 2.184.616c.749-.052 1.475-.276 2.123-.654a4.88 4.88 0 0 0 1.615-1.526c-.418-.632-.984-1.152-1.648-1.516a4.66 4.66 0 0 0-2.166-.572zm0 3.95c-.247.023-.496-.006-.732-.085a1.78 1.78 0 0 1-.635-.373 1.79 1.79 0 0 1 0-2.639 1.79 1.79 0 0 1 .635-.374 1.78 1.78 0 0 1 .732-.085c.444.041.856.246 1.156.575s.466.758.466 1.203-.166.874-.466 1.203-.712.534-1.156.575z"/><path d="M169.375 56.64a1.37 1.37 0 0 1-.233.765 1.38 1.38 0 0 1-.618.507 1.37 1.37 0 0 1-.795.078 1.38 1.38 0 0 1-1.082-1.082 1.37 1.37 0 0 1 .078-.796 1.38 1.38 0 0 1 1.272-.85c.182-.002.362.032.53.101a1.37 1.37 0 0 1 .747.747 1.37 1.37 0 0 1 .101.529zm-1.206 10.284a4.54 4.54 0 0 0-3.753 2.164 4.73 4.73 0 0 0 1.645 1.564 4.72 4.72 0 0 0 2.184.616c.749-.052 1.475-.276 2.123-.654a4.88 4.88 0 0 0 1.615-1.526 4.66 4.66 0 0 0-1.636-1.559 4.68 4.68 0 0 0-2.178-.606zm0 3.935a1.77 1.77 0 0 1-1.637-1.097c-.134-.325-.168-.681-.098-1.025a1.77 1.77 0 0 1 3.215-.621 1.77 1.77 0 0 1-1.48 2.743z"/><path d="M169.531 69.088a1.38 1.38 0 0 1-.232.765c-.152.226-.367.403-.618.507a1.38 1.38 0 0 1-.796.078 1.37 1.37 0 0 1-.705-.377c-.192-.193-.324-.438-.377-.705a1.38 1.38 0 0 1 1.351-1.646c.365 0 .715.145.973.403a1.38 1.38 0 0 1 .404.974zm-1.362 9.671a4.54 4.54 0 0 0-2.159.625c-.656.386-1.204.931-1.594 1.584.413.647.978 1.184 1.645 1.563a4.72 4.72 0 0 0 2.184.616c.749-.052 1.475-.276 2.123-.654a4.88 4.88 0 0 0 1.615-1.526 4.67 4.67 0 0 0-1.629-1.584c-.665-.386-1.416-.6-2.185-.626zm0 3.95c-.247.023-.496-.006-.732-.085a1.78 1.78 0 0 1-.635-.373 1.79 1.79 0 0 1 0-2.639 1.79 1.79 0 0 1 .635-.374 1.78 1.78 0 0 1 .732-.085c.444.041.856.246 1.156.575s.466.758.466 1.203-.166.874-.466 1.203-.712.534-1.156.575z"/><path d="M169.531 80.984a1.38 1.38 0 0 1-.85 1.272 1.38 1.38 0 0 1-.796.078 1.37 1.37 0 0 1-.705-.377c-.192-.193-.324-.438-.377-.705a1.38 1.38 0 0 1 1.351-1.646 1.36 1.36 0 0 1 1.276.848c.069.168.103.348.101.529zm76.927-18.055h-84.191v.363h84.191v-.363zm0 11.94h-84.191v.363h84.191v-.363zm-48.43-15.633c-.056 0-.11-.022-.15-.062s-.062-.094-.062-.15v-5.66c0-.056.023-.11.062-.15a.21.21 0 0 1 .15-.062c.056 0 .11.022.15.062a.21.21 0 0 1 .062.15v5.448h2.906c.029-.002.058.002.086.012s.052.025.074.045.038.044.05.071.017.056.017.085a.23.23 0 0 1-.072.151c-.042.04-.097.061-.155.061h-3.118zm8.143-4.056v3.905a.21.21 0 0 1-.062.15c-.04.04-.094.062-.15.062s-.107-.027-.146-.066a.23.23 0 0 1-.066-.146v-.636a1.98 1.98 0 0 1-.692.615 1.99 1.99 0 0 1-.897.233c-.566 0-1.108-.225-1.509-.625a2.13 2.13 0 0 1-.625-1.509c0-.566.225-1.109.625-1.509s.943-.625 1.509-.625a1.95 1.95 0 0 1 .898.23c.277.148.514.359.691.618v-.636c0-.056.023-.11.062-.15a.21.21 0 0 1 .15-.062c.047-.002.094.012.132.039a.21.21 0 0 1 .08.112zm-.424 1.922a1.6 1.6 0 0 0-.321-.862c-.189-.25-.447-.439-.742-.544a1.6 1.6 0 0 0-.919-.046c-.304.075-.58.237-.794.466s-.354.516-.406.825-.013.626.113.913a1.61 1.61 0 0 0 .597.7 1.6 1.6 0 0 0 .883.257c.437-.02.848-.21 1.145-.53s.457-.744.444-1.18zm7.098.015a2.07 2.07 0 0 1 1.989-1.998 2.07 2.07 0 0 1 1.43.496c.398.34.652.817.713 1.337a.19.19 0 0 1-.021.074c-.012.023-.028.044-.048.061s-.042.03-.067.038-.05.011-.076.009h-3.496c.008.434.184.847.492 1.152a1.67 1.67 0 0 0 1.157.482 1.6 1.6 0 0 0 .79-.205c.242-.135.444-.331.588-.567a.18.18 0 0 1 .061-.045.19.19 0 0 1 .075-.016.18.18 0 0 1 .074.016c.024.011.045.026.062.045a.19.19 0 0 1 .103.127c.007.028.009.056.004.084s-.015.054-.031.078c-.18.296-.434.541-.736.711a2.01 2.01 0 0 1-.99.258 2.1 2.1 0 0 1-.802-.172 2.09 2.09 0 0 1-.676-.466 2.1 2.1 0 0 1-.447-.689c-.102-.257-.152-.531-.148-.807zm.454-.348h3.224a1.64 1.64 0 0 0-.557-.977c-.295-.249-.669-.386-1.055-.386a1.64 1.64 0 0 0-1.056.386c-.295.249-.492.596-.556.977zm4.904-1.574c0-.029.006-.058.017-.085s.029-.051.05-.071.046-.035.074-.045.057-.014.086-.012c.053.004.103.028.14.067a.21.21 0 0 1 .056.145v.938c-.005-.035-.005-.071 0-.106a2.04 2.04 0 0 1 1.695-1.045.21.21 0 0 1 .212.212.21.21 0 0 1-.212.212 1.51 1.51 0 0 0-1.225.696 3.85 3.85 0 0 0-.515.984v1.998a.21.21 0 0 1-.197.212c-.029.002-.058-.002-.085-.011s-.053-.025-.074-.045-.039-.044-.05-.071-.018-.056-.018-.085l.046-3.89zm7.082-1.423l-.863.499h-.106a.22.22 0 0 1-.181-.106c-.013-.025-.021-.052-.024-.08s.001-.056.009-.083a.2.2 0 0 1 .04-.073c.018-.021.041-.039.066-.052l1.165-.711c.041-.033.091-.051.144-.051a.23.23 0 0 1 .144.051c.014.055.014.112 0 .166v5.751c0 .056-.023.11-.062.15a.21.21 0 0 1-.15.062c-.056 0-.11-.022-.15-.062a.21.21 0 0 1-.062-.15l.03-5.312z"/><use xlink:href="#B"/><path d="M206.171 67.711v3.844a.21.21 0 0 1-.212.212c-.057 0-.11-.022-.149-.062a.21.21 0 0 1-.062-.15v-.636a1.99 1.99 0 0 1-1.59.848 2.13 2.13 0 0 1-1.391-.682c-.362-.394-.563-.909-.563-1.444s.201-1.05.563-1.444a2.13 2.13 0 0 1 1.391-.682 1.93 1.93 0 0 1 .897.221 1.95 1.95 0 0 1 .693.611v-.636a.18.18 0 0 1 .016-.079c.011-.025.027-.047.046-.066s.044-.033.069-.042a.18.18 0 0 1 .08-.01c.027.003.055.002.08.01s.05.023.069.042a.2.2 0 0 1 .047.066c.011.025.016.052.016.079zm-.423 1.967a1.61 1.61 0 0 0-.322-.862c-.189-.25-.447-.439-.742-.544a1.6 1.6 0 0 0-.919-.046 1.61 1.61 0 0 0-.793.466 1.6 1.6 0 0 0 .303 2.438 1.6 1.6 0 0 0 .883.257c.437-.02.848-.21 1.145-.53a1.67 1.67 0 0 0 .445-1.18zm2.148-1.967c0-.052.021-.102.058-.139s.087-.058.139-.058c.027-.002.054.002.08.01s.049.023.069.042.036.041.046.066.017.052.017.079v2.3a1.31 1.31 0 0 0 .375.93c.122.122.266.22.425.286a1.3 1.3 0 0 0 .501.1c.174.002.347-.031.509-.096s.308-.162.432-.284a1.31 1.31 0 0 0 .289-.429 1.32 1.32 0 0 0 .102-.507v-2.3c-.008-.017-.012-.035-.012-.053s.004-.036.012-.053c.025-.006.051-.006.076 0h.091.105c.007.014.011.03.011.045s-.004.031-.011.045v3.708c0 .266-.052.529-.154.774a2.02 2.02 0 0 1-1.099 1.09c-.246.1-.509.151-.775.149a2.19 2.19 0 0 1-.877-.212c-.024-.013-.044-.03-.06-.05s-.029-.044-.036-.07-.009-.052-.005-.078.012-.051.025-.074a.21.21 0 0 1 .257-.106 1.52 1.52 0 0 0 .696.166 1.62 1.62 0 0 0 1.62-1.513v-.288c-.167.189-.372.34-.602.444a1.8 1.8 0 0 1-.73.161 1.72 1.72 0 0 1-.659-.137c-.209-.089-.398-.217-.557-.379a1.74 1.74 0 0 1-.494-1.225l.136-2.346zm4.949 1.967a2.07 2.07 0 0 1 1.989-1.998 2.07 2.07 0 0 1 1.43.496c.398.34.652.817.713 1.337a.19.19 0 0 1-.021.074c-.012.023-.028.044-.048.061s-.042.03-.067.038-.05.011-.076.009h-3.496c.008.434.184.847.492 1.152a1.67 1.67 0 0 0 1.157.482 1.6 1.6 0 0 0 .79-.205c.242-.135.444-.331.588-.567a.18.18 0 0 1 .061-.045.19.19 0 0 1 .075-.016.18.18 0 0 1 .074.016c.024.011.045.026.062.045.025.012.048.03.065.052s.031.047.038.075.009.056.004.084-.015.054-.031.078a2.02 2.02 0 0 1-.736.711 2.01 2.01 0 0 1-.99.258 2.09 2.09 0 0 1-.802-.172 2.12 2.12 0 0 1-.676-.466 2.1 2.1 0 0 1-.447-.689c-.102-.257-.152-.531-.148-.807zm.454-.348h3.224a1.64 1.64 0 0 0-.557-.977c-.295-.249-.669-.386-1.055-.386a1.64 1.64 0 0 0-1.056.386c-.295.249-.492.596-.556.977zm4.904-1.604c0-.029.006-.058.017-.085s.029-.051.05-.071.046-.035.074-.045.057-.014.086-.012c.053.004.103.028.14.067a.21.21 0 0 1 .056.145v.938c-.005-.035-.005-.071 0-.106a2.04 2.04 0 0 1 1.695-1.045.21.21 0 0 1 .212.212.21.21 0 0 1-.212.212 1.51 1.51 0 0 0-1.225.696 3.85 3.85 0 0 0-.515.984.14.14 0 0 0 0 .076v1.862a.21.21 0 0 1-.197.212c-.029.002-.058-.002-.085-.012s-.053-.025-.074-.045-.039-.044-.05-.071-.018-.056-.018-.085l.046-3.829z"/><path d="M224.286 71.389l2.845-2.558a1.57 1.57 0 0 0 .379-.529c.088-.201.135-.417.136-.637.002-.388-.144-.761-.409-1.044a1.51 1.51 0 0 0-1.15-.515c-.389.001-.764.141-1.06.394l-.302.272c-.019.02-.041.035-.066.046s-.051.016-.078.016-.054-.005-.078-.016-.047-.026-.066-.046-.036-.043-.047-.069a.21.21 0 0 1-.016-.082.21.21 0 0 1 .016-.082c.011-.026.027-.05.047-.069l.303-.272a1.98 1.98 0 0 1 1.347-.515c.523.008 1.023.219 1.393.589a2.01 2.01 0 0 1 .589 1.393 1.96 1.96 0 0 1-.159.828c-.112.261-.28.495-.491.685l-2.467 2.164h2.875c.056 0 .11.022.15.062a.21.21 0 0 1 .062.15.21.21 0 0 1-.062.15c-.04.04-.094.062-.15.062h-3.42c-.024.011-.05.016-.076.016a.19.19 0 0 1-.075-.016.22.22 0 0 1-.069-.088.23.23 0 0 1-.018-.11c.003-.038.015-.074.035-.105a.23.23 0 0 1 .082-.076zm-26.258 12.909c-.056 0-.11-.022-.15-.062s-.062-.094-.062-.15v-5.66c0-.056.023-.11.062-.15a.21.21 0 0 1 .15-.062c.056 0 .11.022.15.062a.21.21 0 0 1 .062.15v5.448h2.906c.056 0 .11.022.15.062s.062.094.062.15-.023.11-.062.15a.21.21 0 0 1-.15.062h-3.118zm8.143-4.026v3.844a.21.21 0 0 1-.212.212c-.057 0-.11-.022-.149-.062a.21.21 0 0 1-.062-.15v-.666a1.99 1.99 0 0 1-1.59.848 2.13 2.13 0 0 1-1.391-.682c-.362-.394-.563-.909-.563-1.444s.201-1.05.563-1.444a2.13 2.13 0 0 1 1.391-.682 1.93 1.93 0 0 1 .897.221 1.95 1.95 0 0 1 .693.611v-.605a.18.18 0 0 1 .016-.079c.011-.025.027-.047.046-.066s.044-.033.069-.042a.2.2 0 0 1 .08-.01c.027-.002.055.001.08.01s.05.023.069.042a.2.2 0 0 1 .047.066c.011.025.016.052.016.079zm-.423 1.922a1.61 1.61 0 0 0-.322-.862c-.189-.25-.447-.439-.742-.544a1.6 1.6 0 0 0-.919-.046 1.61 1.61 0 0 0-.793.466 1.6 1.6 0 0 0 .303 2.438 1.6 1.6 0 0 0 .883.257 1.66 1.66 0 0 0 .635-.151 1.65 1.65 0 0 0 .526-.385c.148-.162.262-.352.335-.559s.106-.426.094-.645v.03zm2.148-1.922c0-.052.021-.102.058-.139s.087-.058.139-.058c.027-.002.054.001.08.01s.049.023.069.042.036.041.046.066.017.052.017.079v2.27a1.31 1.31 0 0 0 .375.93c.122.122.266.22.425.286a1.3 1.3 0 0 0 .501.1c.174.002.347-.031.509-.096s.308-.162.432-.284a1.31 1.31 0 0 0 .289-.429 1.32 1.32 0 0 0 .102-.507v-2.27c-.008-.017-.012-.035-.012-.053s.004-.037.012-.053c.025-.006.051-.006.076 0h.091.105c.007.014.011.03.011.045s-.004.031-.011.045v3.708c0 .266-.052.529-.154.774a2.02 2.02 0 0 1-1.099 1.09 2.01 2.01 0 0 1-.775.149 2.19 2.19 0 0 1-.877-.212c-.024-.013-.044-.03-.06-.05s-.029-.044-.036-.07-.009-.052-.005-.078.012-.051.025-.074a.21.21 0 0 1 .257-.106 1.52 1.52 0 0 0 .696.166c.413.005.812-.15 1.114-.432a1.61 1.61 0 0 0 .506-1.081v-.272c-.167.189-.372.34-.602.444a1.8 1.8 0 0 1-.73.161 1.72 1.72 0 0 1-.659-.137c-.209-.089-.398-.217-.557-.379a1.74 1.74 0 0 1-.494-1.224l.136-2.361zm4.949 1.907a2.07 2.07 0 0 1 1.989-1.998 2.07 2.07 0 0 1 1.43.496c.398.34.652.817.713 1.337a.19.19 0 0 1-.021.074c-.012.023-.028.044-.048.061s-.042.03-.067.038-.05.011-.076.009h-3.496c.008.434.184.847.492 1.152a1.67 1.67 0 0 0 1.157.482 1.6 1.6 0 0 0 .79-.205c.242-.135.444-.331.588-.567a.18.18 0 0 1 .061-.045.19.19 0 0 1 .075-.016.18.18 0 0 1 .074.016c.024.011.045.026.062.045a.19.19 0 0 1 .103.127c.007.028.009.056.004.084s-.015.054-.031.078a2.02 2.02 0 0 1-.736.711 2.01 2.01 0 0 1-.99.258 2.09 2.09 0 0 1-.802-.172 2.12 2.12 0 0 1-.676-.466 2.1 2.1 0 0 1-.447-.689c-.102-.257-.152-.531-.148-.807zm.454-.348h3.224a1.64 1.64 0 0 0-.557-.977 1.63 1.63 0 0 0-1.055-.386 1.64 1.64 0 0 0-1.056.386c-.295.249-.492.596-.556.977zm4.904-1.559c0-.029.006-.058.017-.085s.029-.051.05-.071.046-.035.074-.045.057-.014.086-.011c.053.004.103.028.14.067a.21.21 0 0 1 .056.145v.938c-.005-.035-.005-.071 0-.106a2.04 2.04 0 0 1 1.695-1.044.21.21 0 0 1 .212.212.21.21 0 0 1-.212.212 1.52 1.52 0 0 0-.699.197 1.51 1.51 0 0 0-.526.5 3.85 3.85 0 0 0-.515.984c-.006.025-.006.051 0 .076v1.862a.21.21 0 0 1-.197.212c-.029.002-.058-.002-.085-.011s-.053-.025-.074-.045-.039-.044-.05-.071-.018-.056-.018-.085l.046-3.829zm9.776-1.68l-1.513 1.68a2.03 2.03 0 0 1 1.044.56c.382.39.595.915.595 1.46s-.213 1.07-.595 1.46a2.1 2.1 0 0 1-1.513.605 2 2 0 0 1-1.438-.605.21.21 0 0 1-.047-.07c-.011-.027-.016-.054-.016-.082a.23.23 0 0 1 .016-.082c.011-.026.027-.049.047-.069s.043-.036.069-.046a.23.23 0 0 1 .082-.016.21.21 0 0 1 .082.016.22.22 0 0 1 .069.046 1.67 1.67 0 0 0 1.136.469 1.69 1.69 0 0 0 1.165-.469c.302-.312.471-.73.469-1.165a1.62 1.62 0 0 0-.12-.622 1.61 1.61 0 0 0-.877-.879c-.197-.081-.409-.121-.622-.119-.034.004-.068-.003-.098-.019s-.054-.041-.069-.071a.23.23 0 0 1-.065-.159.23.23 0 0 1 .065-.159l1.514-1.513h-2.407a.23.23 0 0 1-.212-.227c0-.056.023-.11.062-.15a.21.21 0 0 1 .15-.062h2.845a.21.21 0 0 1 .212.212c.008.017.013.035.013.053s-.005.036-.013.053c-.011-.008-.022-.019-.03-.03z"/></g><path d="M191.884 63.928h-2.724v10.337h2.724V63.928z" fill="#fbe9f2"/><path d="M191.884 75.808h-2.724v10.337h2.724V75.808z" class="H"/><path d="M191.884 51.472h-2.724v10.337h2.724V51.472z" class="G"/><g class="D"><path d="M184.272 56.012h-5.54v4.661h5.54v-4.661z"/><path d="M183.606 56.527h-.636v-1.226c0-1.347-.484-2.028-1.422-2.028-1.514 0-1.514 1.801-1.514 1.877v1.377h-.635V55.15c-.034-.311-.003-.626.09-.924s.247-.575.451-.812a2.29 2.29 0 0 1 1.638-.791c1.332 0 2.058.953 2.058 2.679l-.03 1.226zm55.482 2.951a2.83 2.83 0 0 1-1.572-.477c-.466-.311-.829-.753-1.043-1.27s-.27-1.086-.161-1.635a2.83 2.83 0 0 1 5.129-1.02 2.83 2.83 0 0 1-2.353 4.402zm0-5.297a2.47 2.47 0 0 0-2.247 1.554c-.18.451-.222.946-.122 1.421a2.47 2.47 0 0 0 .686 1.251c.347.34.786.571 1.263.663s.971.04 1.419-.148a2.46 2.46 0 0 0 1.1-.909 2.47 2.47 0 0 0 .221-2.321c-.127-.303-.312-.576-.546-.806a2.48 2.48 0 0 0-.816-.532 2.47 2.47 0 0 0-.958-.175zm0 17.737a2.83 2.83 0 0 1-1.572-.477c-.466-.311-.829-.753-1.043-1.27s-.27-1.086-.161-1.635a2.83 2.83 0 0 1 5.129-1.021 2.83 2.83 0 0 1-2.353 4.402zm0-5.297a2.47 2.47 0 0 0-1.358.438c-.4.276-.709.665-.889 1.116s-.222.946-.122 1.421a2.47 2.47 0 0 0 3.368 1.766 2.46 2.46 0 0 0 1.1-.909 2.47 2.47 0 0 0 .413-1.366 2.46 2.46 0 0 0-.201-.945 2.47 2.47 0 0 0-1.36-1.32 2.47 2.47 0 0 0-.951-.172v-.03zm-.001 17.753c-.563.003-1.115-.161-1.585-.472a2.84 2.84 0 0 1-1.054-1.274c-.218-.52-.277-1.092-.169-1.645a2.84 2.84 0 0 1 .776-1.461c.397-.399.904-.672 1.456-.783s1.125-.056 1.646.159a2.84 2.84 0 0 1 1.549 3.718 2.81 2.81 0 0 1-.613.923 2.82 2.82 0 0 1-.92.617 2.83 2.83 0 0 1-1.086.217zm0-5.312a2.48 2.48 0 0 0-2.273 1.556c-.183.455-.227.954-.126 1.434s.34.919.69 1.263.794.576 1.275.667a2.48 2.48 0 0 0 1.431-.153c.452-.191.837-.511 1.106-.921a2.48 2.48 0 0 0 .409-1.38 2.47 2.47 0 0 0-.196-.952 2.48 2.48 0 0 0-1.36-1.336c-.304-.122-.629-.183-.956-.179z"/></g></g><defs><clipPath id="A"><path transform="translate(.998 .183)" d="M0 0h250v211.635H0z" class="B"/></clipPath><path id="B" d="M198.028 71.767c-.056 0-.11-.022-.15-.062s-.062-.094-.062-.15v-5.66c0-.056.023-.11.062-.15s.094-.062.15-.062.11.022.15.062a.21.21 0 0 1 .062.15v5.448h2.906c.056 0 .11.022.15.062s.062.094.062.15-.023.11-.062.15-.094.062-.15.062h-3.118z"/></defs></svg>