<svg xmlns="http://www.w3.org/2000/svg" width="101" height="100" fill="none" xmlns:v="https://vecta.io/nano"><g clip-path="url(#A)"><path d="M100.855 99.99h-100V0h100v99.99z" fill="#041d34"/><g fill="#4a99cd"><path d="M25.38 71.232V33.535h15.988c7.31 0 11.996 6.727 11.996 12.529 0 6.848-5.199 12.529-11.734 12.529h-8.92v12.639h-7.33zm7.33-19.105h8.497c2.574 0 4.726-2.393 4.726-6.103-.02-3.147-1.931-6.094-5.048-6.094H32.71v12.197zm35.577 19.638a20.02 20.02 0 0 1-12.589-4.304l2.655-4.404c1.699 1.197 5.611 3.66 9.774 3.66 2.695 0 4.565-1.126 4.565-3.077 0-2.393-3.942-3.167-6.104-3.771-1.81-.493-9.935-1.639-9.935-7.753 0-5.892 5.128-9.19 10.94-9.19 6.104 0 9.362 2.484 10.89 3.831l-2.866 4.233c-1.418-1.005-4.565-3.017-8.074-3.017-2.584 0-4.253 1.106-4.253 3.137 0 2.534 4.445 3.258 5.47 3.499 1.91.493 10.779 1.85 10.779 8.386 0 7.682-7.783 8.768-11.252 8.768z"/></g></g><defs><clipPath id="A"><path fill="#fff" transform="translate(.855)" d="M0 0h100v100H0z"/></clipPath></defs></svg>