<svg xmlns="http://www.w3.org/2000/svg" xmlns:xlink="http://www.w3.org/1999/xlink" width="216" height="185" fill="none" xmlns:v="https://vecta.io/nano"><style><![CDATA[.B{stroke-miterlimit:10}.C{stroke:#37352f}.D{fill:#e2f1ff}.E{fill:#fbe9f2}.F{fill:#37352f}.G{stroke-linecap:round}.H{stroke-linejoin:round}]]></style><g clip-path="url(#A)"><g class="B C"><path d="M156.542.945H96.08c-8.651 0-15.663 7.012-15.663 15.662v151.648c0 8.649 7.013 15.661 15.664 15.661h60.463c8.65 0 15.663-7.012 15.663-15.661V16.606c0-8.65-7.013-15.662-15.663-15.662z" fill="#fff"/><path d="M160.793 46.135H91.809a2.1 2.1 0 0 0-2.097 2.097v42.092a2.1 2.1 0 0 0 2.097 2.097h68.984a2.1 2.1 0 0 0 2.097-2.097V48.232a2.1 2.1 0 0 0-2.097-2.097z" class="D"/><path d="M89.712 92.439l73.178-43.962"/><path d="M162.89 92.439L89.712 48.477"/><path d="M16.628 36.103c8.066 0 14.605-6.538 14.605-14.604S24.694 6.896 16.628 6.896 2.022 13.434 2.022 21.499s6.539 14.604 14.605 14.604z" class="E"/><g fill="#defdff"><path d="M55.041 36.103c8.066 0 14.605-6.538 14.605-14.604S63.107 6.896 55.041 6.896 40.436 13.434 40.436 21.5s6.539 14.604 14.606 14.604zm-38.734 77.326a14.61 14.61 0 0 0 14.605-14.604c0-8.065-6.539-14.604-14.605-14.604A14.61 14.61 0 0 0 1.701 98.825a14.61 14.61 0 0 0 14.605 14.604z"/></g><path d="M54.72 113.429a14.61 14.61 0 0 0 14.605-14.604c0-8.065-6.539-14.604-14.605-14.604S40.114 90.76 40.114 98.825a14.61 14.61 0 0 0 14.605 14.604z" class="E"/><path d="M16.628 74.756c8.066 0 14.605-6.538 14.605-14.604s-6.539-14.604-14.605-14.604S2.022 52.087 2.022 60.153s6.539 14.604 14.605 14.604z" class="D"/><g fill="#fff3e8"><path d="M55.041 74.756c8.066 0 14.605-6.538 14.605-14.604s-6.539-14.604-14.605-14.604-14.605 6.538-14.605 14.604 6.539 14.604 14.606 14.604z"/><use xlink:href="#B"/></g><path d="M54.72 152.082c8.066 0 14.605-6.538 14.605-14.604s-6.539-14.603-14.605-14.603-14.605 6.538-14.605 14.603 6.539 14.604 14.605 14.604z" class="D"/></g><g class="F"><path d="M22.41 21.102l-5.423-4.761a.55.55 0 0 0-.699 0l-5.442 4.761c-.033.034-.055.077-.064.124s-.004.095.014.139a.24.24 0 0 0 .088.109c.04.027.085.042.133.044h1.323v4.742a.55.55 0 0 0 .548.529h1.663a.4.4 0 0 0 .281-.116c.075-.074.116-.175.116-.28V23.2h3.382v3.174c-.003.051.005.102.023.15a.37.37 0 0 0 .081.129.38.38 0 0 0 .274.117h1.682a.55.55 0 0 0 .529-.529v-4.723h1.342c.046-.005.09-.022.126-.051s.064-.066.08-.11.019-.09.009-.136-.032-.087-.064-.12zm35.238-2.285a2.6 2.6 0 0 1-.441 1.45c-.288.429-.696.763-1.173.96a2.61 2.61 0 0 1-1.509.145c-.506-.102-.971-.352-1.335-.719s-.611-.833-.709-1.34-.044-1.032.156-1.508a2.6 2.6 0 0 1 .969-1.166 2.61 2.61 0 0 1 1.454-.43 2.59 2.59 0 0 1 .995.199 2.57 2.57 0 0 1 .842.566c.24.243.431.53.56.846s.194.655.192.996zm1.757 7.991c-.073-1.105-.563-2.142-1.372-2.899s-1.875-1.178-2.983-1.178-2.174.421-2.983 1.178a4.36 4.36 0 0 0-1.372 2.899h8.71zm-.434 109.801h-.453a3.51 3.51 0 0 0-.491-1.152l.34-.34a.38.38 0 0 0 .099-.255c0-.095-.035-.186-.099-.255l-.737-.737c-.032-.036-.071-.065-.115-.085a.34.34 0 0 0-.28 0c-.044.02-.083.049-.115.085l-.34.34a3.65 3.65 0 0 0-1.153-.491v-.473a.38.38 0 0 0-.117-.255c-.07-.066-.164-.104-.261-.104H54.21a.38.38 0 0 0-.249.111c-.067.067-.106.155-.11.248v.473a3.49 3.49 0 0 0-1.152.491l-.34-.34c-.032-.036-.071-.065-.115-.085a.34.34 0 0 0-.28 0c-.044.02-.083.049-.115.085l-.737.737c-.064.069-.099.16-.099.255a.38.38 0 0 0 .099.255l.34.34a3.49 3.49 0 0 0-.491 1.152h-.472a.38.38 0 0 0-.359.359v1.039c0 .097.037.191.104.261a.38.38 0 0 0 .255.117h.472a3.68 3.68 0 0 0 .491 1.153l-.34.34c-.064.069-.099.16-.099.255a.38.38 0 0 0 .099.255l.737.736a.38.38 0 0 0 .255.1.38.38 0 0 0 .255-.1l.34-.34c.355.225.745.391 1.152.492v.453a.38.38 0 0 0 .359.378h1.039c.1 0 .196-.04.267-.111s.111-.167.111-.267v-.453c.407-.105.795-.271 1.153-.492l.34.34a.38.38 0 0 0 .255.1.38.38 0 0 0 .255-.1l.737-.736a.38.38 0 0 0 .099-.255c0-.095-.035-.186-.099-.255l-.34-.34a3.67 3.67 0 0 0 .491-1.153h.453c.1 0 .196-.04.267-.111s.111-.167.111-.267v-1.039a.38.38 0 0 0-.117-.255c-.07-.067-.164-.104-.261-.104zm-4.232 2.74a1.89 1.89 0 0 1-1.05-.319 1.88 1.88 0 0 1-.696-.848c-.143-.345-.181-.725-.108-1.091a1.9 1.9 0 0 1 .517-.968 1.89 1.89 0 0 1 .968-.517 1.9 1.9 0 0 1 1.092.108 1.89 1.89 0 0 1 .848.696c.208.31.318.676.318 1.049a1.89 1.89 0 0 1-.553 1.336c-.354.355-.835.554-1.336.554zM19.292 100.62c.532-.578.884-1.299 1.013-2.073a4.04 4.04 0 0 0-.286-2.289c-.316-.719-.834-1.331-1.491-1.76s-1.426-.658-2.211-.658-1.554.229-2.211.658a4.04 4.04 0 0 0-1.777 4.049 4.04 4.04 0 0 0 1.013 2.073l2.551 2.985a.61.61 0 0 0 .194.135c.073.032.152.047.231.047s.158-.016.231-.047.139-.078.194-.135l2.551-2.985zm-2.985-4.346c.315-.004.623.086.887.258a1.59 1.59 0 0 1 .593.708c.123.29.157.609.098.918s-.209.594-.43.817a1.59 1.59 0 0 1-2.447-.231 1.59 1.59 0 0 1-.269-.884c0-.418.165-.818.458-1.115s.692-.466 1.11-.471zm41.814 6.329v-4.439a3.42 3.42 0 1 0-6.84 0v4.477a.66.66 0 0 0-.623.661.68.68 0 0 0 .68.68h6.745c.099.012.199.001.293-.03a.69.69 0 0 0 .252-.152c.072-.069.128-.152.165-.245a.67.67 0 0 0 .046-.29.66.66 0 0 0-.213-.489.67.67 0 0 0-.505-.173z"/><path d="M54.719 95.424a.85.85 0 1 0 0-1.7.85.85 0 1 0 0 1.7zm-34.841-36.82H13.36c-.605 0-1.096.491-1.096 1.096v3.854c0 .605.491 1.096 1.096 1.096h6.518c.605 0 1.096-.491 1.096-1.096V59.7c0-.605-.491-1.096-1.096-1.096z"/></g><path d="M16.629 61.607c1.461 0 2.645-1.328 2.645-2.966s-1.184-2.966-2.645-2.966-2.645 1.328-2.645 2.966 1.184 2.966 2.645 2.966z" stroke-width=".9" class="B C"/><g class="F"><use xlink:href="#C"/><path d="M56.155 65.858c.887 0 1.606-.719 1.606-1.606s-.719-1.606-1.606-1.606-1.606.719-1.606 1.606.719 1.606 1.606 1.606zm-4.232-3.948c.887 0 1.606-.719 1.606-1.606s-.719-1.606-1.606-1.606-1.606.719-1.606 1.606.719 1.606 1.606 1.606z"/></g><g class="C"><g class="B"><path d="M51.923 60.304l3.798-3.778m-3.798 3.778l3.798 3.778"/></g><g class="G H"><path d="M12.282 134.002h8.049m-8.049 3.476h8.049"/><path d="M12.282 140.973h8.049m71.271-32.645h62.635m-62.635 12.79h39.262m-39.262 12.771h49.295m-49.295 12.79h49.295"/></g><path d="M150.987 29.623a6.86 6.86 0 0 0 6.858-6.858 6.86 6.86 0 0 0-6.858-6.858 6.86 6.86 0 0 0-6.859 6.858 6.86 6.86 0 0 0 6.859 6.858z" class="B"/><path d="M156.599 27.375l3.193 3.193" class="G H"/><g class="B"><path d="M133.207 141.238h46.801c2.922 0 5.724 1.16 7.79 3.226s3.226 4.867 3.226 7.788v10.221a.76.76 0 0 1-.221.534c-.142.142-.334.221-.535.221h-57.061c-2.922 0-5.723-1.16-7.789-3.226a11.01 11.01 0 0 1 0-15.576c2.066-2.066 4.867-3.226 7.789-3.226v.038z" class="E"/><path d="M202.134 127.503h-57.873a.87.87 0 0 1-.87-.869v-14.585c0-3.362 1.336-6.586 3.714-8.963s5.602-3.713 8.965-3.713h46.064c3.363 0 6.588 1.335 8.965 3.713s3.714 5.601 3.713 8.963v2.778a12.67 12.67 0 0 1-3.713 8.963c-2.377 2.378-5.602 3.713-8.965 3.713z" fill="#defdff"/></g></g><g class="F"><use xlink:href="#D"/><path d="M147.85 153.971c1.075 0 1.947-.871 1.947-1.946a1.95 1.95 0 0 0-1.947-1.946 1.95 1.95 0 0 0-1.946 1.946c0 1.075.872 1.946 1.946 1.946zm7.765 0c1.075 0 1.946-.871 1.946-1.946s-.871-1.946-1.946-1.946-1.946.872-1.946 1.946.871 1.946 1.946 1.946z"/><use xlink:href="#E"/><path d="M172.205 113.977c1.075 0 1.946-.872 1.946-1.946s-.871-1.946-1.946-1.946-1.946.871-1.946 1.946.871 1.946 1.946 1.946z"/><use xlink:href="#F"/><path d="M197.052 113.977a1.95 1.95 0 0 0 1.946-1.946c0-1.075-.872-1.946-1.946-1.946s-1.947.871-1.947 1.946a1.95 1.95 0 0 0 1.947 1.946z"/></g></g><defs><clipPath id="A"><path fill="#fff" transform="translate(.757)" d="M0 0h215v184.86H0z"/></clipPath><path id="B" d="M16.307 152.082c8.066 0 14.605-6.538 14.605-14.604s-6.539-14.603-14.605-14.603-14.605 6.538-14.605 14.603 6.539 14.604 14.605 14.604z"/><path id="C" d="M56.155 57.678c.887 0 1.606-.719 1.606-1.606s-.719-1.606-1.606-1.606-1.606.719-1.606 1.606.719 1.606 1.606 1.606z"/><path id="D" d="M139.631 153.971c1.075 0 1.946-.871 1.946-1.946s-.871-1.946-1.946-1.946-1.946.872-1.946 1.946.871 1.946 1.946 1.946z"/><path id="E" d="M181.067 113.977c1.075 0 1.946-.872 1.946-1.946s-.871-1.946-1.946-1.946-1.946.871-1.946 1.946.871 1.946 1.946 1.946z"/><path id="F" d="M189.305 113.977a1.95 1.95 0 0 0 1.946-1.946c0-1.075-.872-1.946-1.946-1.946s-1.947.871-1.947 1.946a1.95 1.95 0 0 0 1.947 1.946z"/></defs></svg>