<svg width="251" height="178" viewBox="0 0 251 178" fill="none" xmlns="http://www.w3.org/2000/svg">
<g clip-path="url(#clip0_533_1591)">
<path d="M178.866 161.188H99.1113V167.85H178.866V161.188Z" fill="#E2F1FF" stroke="#37352F" stroke-linecap="round" stroke-linejoin="round"/>
<path d="M169.36 161.188H108.603L110.155 149.612L110.235 149.079L110.365 147.996L110.446 147.446L110.591 146.363L110.607 146.185L110.656 145.813L110.801 144.73L110.882 144.18L111.965 136.096H166.014L167.032 143.727L167.081 144.083L167.259 145.36L167.291 145.716L167.372 146.185L167.469 146.977L167.517 147.349L167.695 148.626L167.744 148.982L169.36 161.188Z" fill="#E2F1FF" stroke="#37352F" stroke-linecap="round" stroke-linejoin="round"/>
<path d="M241.306 1.14502H36.6719V140.3H241.306V1.14502Z" fill="#E2F1FF" stroke="#37352F" stroke-linecap="round" stroke-linejoin="round"/>
<path d="M241.306 119.767H36.6719V140.3H241.306V119.767Z" fill="#E2F1FF" stroke="#37352F" stroke-linecap="round" stroke-linejoin="round"/>
<path d="M142.328 128.659C142.328 129.331 142.128 129.987 141.755 130.545C141.382 131.104 140.852 131.539 140.232 131.796C139.611 132.053 138.929 132.12 138.27 131.989C137.611 131.858 137.006 131.535 136.532 131.06C136.057 130.585 135.733 129.98 135.602 129.321C135.471 128.663 135.539 127.98 135.796 127.36C136.053 126.739 136.488 126.209 137.046 125.836C137.604 125.463 138.261 125.264 138.932 125.264C139.833 125.264 140.696 125.622 141.333 126.258C141.97 126.895 142.328 127.759 142.328 128.659Z" fill="white" stroke="#37352F" stroke-linecap="round" stroke-linejoin="round"/>
<path d="M231.864 10.199H46.1143V110.115H231.864V10.199Z" fill="#37352F"/>
<path d="M232.09 10.199H46.2598V110.115H232.09V10.199Z" fill="white" stroke="#37352F" stroke-linecap="round" stroke-linejoin="round"/>
<path d="M54.2786 68.3215L122.619 68.3215V25.348L54.2786 25.348V68.3215Z" fill="#FBE9F2" stroke="#37352F" stroke-linecap="round" stroke-linejoin="round"/>
<path d="M54.2786 68.3215L122.619 68.3215V25.348L54.2786 25.348V68.3215Z" fill="#E2F1FF" stroke="#37352F" stroke-linecap="round" stroke-linejoin="round"/>
<path d="M84.6094 59.0736H122.619L103.623 35.9377L84.6094 59.0736Z" fill="#FBE9F2" stroke="#37352F" stroke-linecap="round" stroke-linejoin="round"/>
<path d="M84.6094 59.0736H122.619L103.623 35.9377L84.6094 59.0736Z" fill="#DEFDFF" stroke="#37352F" stroke-linecap="round" stroke-linejoin="round"/>
<path d="M69.7354 59.0899H101.101L85.4179 44.0378L69.7354 59.0899Z" fill="#DEFDFF" stroke="#37352F" stroke-linecap="round" stroke-linejoin="round"/>
<path d="M122.62 59.0737H54.2793V68.3378H122.62V59.0737Z" fill="#DEFDFF" stroke="#37352F" stroke-linecap="round" stroke-linejoin="round"/>
<path d="M68.9462 42.0623C71.4237 41.0437 72.6063 38.2095 71.5877 35.732C70.5691 33.2545 67.7349 32.0718 65.2574 33.0904C62.7799 34.1091 61.5972 36.9432 62.6159 39.4207C63.6345 41.8982 66.4687 43.0809 68.9462 42.0623Z" fill="#FFF3E8" stroke="#37352F" stroke-linecap="round" stroke-linejoin="round"/>
<path d="M132.449 105.022H170.427V74.158H132.449V105.022Z" fill="#FBE9F2" stroke="#37352F" stroke-linecap="round" stroke-linejoin="round"/>
<path d="M132.449 105.022H170.427V74.158H132.449V105.022Z" fill="#E2F1FF" stroke="#37352F" stroke-linecap="round" stroke-linejoin="round"/>
<path d="M143.137 98.3773H170.428L156.782 81.7732L143.137 98.3773Z" fill="#FBE9F2" stroke="#37352F" stroke-linecap="round" stroke-linejoin="round"/>
<path d="M143.137 98.3773H170.428L156.782 81.7732L143.137 98.3773Z" fill="#DEFDFF" stroke="#37352F" stroke-linecap="round" stroke-linejoin="round"/>
<path d="M132.449 98.3933H154.971L143.718 87.5771L132.449 98.3933Z" fill="#DEFDFF" stroke="#37352F" stroke-linecap="round" stroke-linejoin="round"/>
<path d="M170.427 98.3772H132.449V105.022H170.427V98.3772Z" fill="#DEFDFF" stroke="#37352F" stroke-linecap="round" stroke-linejoin="round"/>
<path d="M140.436 85.9765C142.454 85.9765 144.09 84.3406 144.09 82.3226C144.09 80.3046 142.454 78.6687 140.436 78.6687C138.418 78.6687 136.782 80.3046 136.782 82.3226C136.782 84.3406 138.418 85.9765 140.436 85.9765Z" fill="#FFF3E8" stroke="#37352F" stroke-linecap="round" stroke-linejoin="round"/>
<path d="M209.488 36.2126H132.336V38.9935H209.488V36.2126Z" fill="#FFF3E8"/>
<path d="M222.81 41.9683H132.336V44.7491H222.81V41.9683Z" fill="#E2F1FF"/>
<path d="M222.81 47.7078H132.336V50.4886H222.81V47.7078Z" fill="#E2F1FF"/>
<path d="M222.81 53.4473H132.336V56.2281H222.81V53.4473Z" fill="#E2F1FF"/>
<path d="M222.81 59.2029H132.336V61.9837H222.81V59.2029Z" fill="#E2F1FF"/>
<path d="M181.841 64.9424H132.336V67.7232H181.841V64.9424Z" fill="#E2F1FF"/>
<path d="M216.925 74.0935H173.936V76.8258H216.925V74.0935Z" fill="#FFF3E8"/>
<path d="M222.81 79.7522H173.936V82.4845H222.81V79.7522Z" fill="#E2F1FF"/>
<path d="M222.81 85.4109H173.936V88.1432H222.81V85.4109Z" fill="#E2F1FF"/>
<path d="M222.81 91.0693H173.936V93.8017H222.81V91.0693Z" fill="#E2F1FF"/>
<path d="M222.81 96.728H173.936V99.4604H222.81V96.728Z" fill="#E2F1FF"/>
<path d="M212.22 102.387H173.936V105.119H212.22V102.387Z" fill="#E2F1FF"/>
<path d="M222.81 25.2185H132.336V33.3832H222.81V25.2185Z" fill="#FBE9F2"/>
<path d="M122.62 74.0935H54.2793V82.2581H122.62V74.0935Z" fill="#FBE9F2"/>
<path d="M122.62 85.2168H54.2793V87.9815H122.62V85.2168Z" fill="#E2F1FF"/>
<path d="M122.62 90.9238H54.2793V93.6885H122.62V90.9238Z" fill="#E2F1FF" stroke="#37352F" stroke-linecap="round" stroke-linejoin="round"/>
<path d="M122.62 96.6472H54.2793V99.4119H122.62V96.6472Z" fill="#E2F1FF" stroke="#37352F" stroke-linecap="round" stroke-linejoin="round"/>
<path d="M101.101 102.354H54.2793V105.119H101.101V102.354Z" fill="#E2F1FF" stroke="#37352F" stroke-linecap="round" stroke-linejoin="round"/>
<path d="M232.091 14.0469H227.871V110.115H232.091V14.0469Z" fill="#E2F1FF" stroke="#37352F" stroke-linecap="round" stroke-linejoin="round"/>
<path d="M232.09 10.199H46.2598V20.1421H232.09V10.199Z" fill="white" stroke="#37352F" stroke-linecap="round" stroke-linejoin="round"/>
<path d="M54.6341 15.0168C54.6245 15.4122 54.499 15.7961 54.2733 16.1209C54.0476 16.4458 53.7316 16.6972 53.3644 16.8441C52.9971 16.991 52.5949 17.0269 52.2074 16.9474C51.82 16.8679 51.4644 16.6764 51.1847 16.3968C50.905 16.1171 50.7136 15.7615 50.634 15.374C50.5545 14.9866 50.5904 14.5843 50.7374 14.2171C50.8843 13.8499 51.1357 13.5338 51.4605 13.3081C51.7853 13.0824 52.1692 12.957 52.5646 12.9474C52.8382 12.9407 53.1103 12.9897 53.3644 13.0914C53.6185 13.193 53.8492 13.3452 54.0428 13.5387C54.2363 13.7322 54.3885 13.963 54.4901 14.2171C54.5917 14.4712 54.6407 14.7432 54.6341 15.0168Z" fill="#FBE9F2" stroke="#37352F" stroke-linecap="round" stroke-linejoin="round"/>
<path d="M62.848 15.017C62.8384 15.4145 62.7118 15.8003 62.4841 16.1262C62.2563 16.4521 61.9374 16.7036 61.5674 16.8491C61.1974 16.9947 60.7926 17.0279 60.4038 16.9445C60.0151 16.8611 59.6595 16.6649 59.3817 16.3804C59.1039 16.096 58.9162 15.7359 58.8421 15.3452C58.7679 14.9546 58.8107 14.5508 58.965 14.1843C59.1193 13.8178 59.3782 13.505 59.7094 13.285C60.0406 13.065 60.4294 12.9476 60.827 12.9475C61.0965 12.9474 61.3634 13.0013 61.6118 13.1059C61.8602 13.2104 62.0852 13.3636 62.2735 13.5565C62.4618 13.7493 62.6096 13.9779 62.7083 14.2287C62.8069 14.4795 62.8544 14.7475 62.848 15.017Z" fill="#FFF3E8" stroke="#37352F" stroke-linecap="round" stroke-linejoin="round"/>
<path d="M71.1097 15.017C71.1001 15.4145 70.9735 15.8003 70.7458 16.1262C70.518 16.4521 70.1991 16.7036 69.8291 16.8491C69.4591 16.9947 69.0543 17.0279 68.6656 16.9445C68.2768 16.8611 67.9212 16.6649 67.6434 16.3804C67.3656 16.096 67.1779 15.7359 67.1038 15.3452C67.0297 14.9546 67.0724 14.5508 67.2267 14.1843C67.381 13.8178 67.6399 13.505 67.9712 13.285C68.3024 13.065 68.6911 12.9476 69.0887 12.9475C69.3583 12.9474 69.6251 13.0013 69.8735 13.1059C70.1219 13.2104 70.3469 13.3636 70.5352 13.5565C70.7235 13.7493 70.8713 13.9779 70.97 14.2287C71.0687 14.4795 71.1161 14.7475 71.1097 15.017Z" fill="#DEFDFF" stroke="#37352F" stroke-linecap="round" stroke-linejoin="round"/>
<path d="M134.519 94.109V170.679C134.513 171.498 134.345 172.307 134.025 173.061C133.705 173.815 133.24 174.498 132.656 175.072C132.072 175.646 131.38 176.098 130.62 176.404C129.861 176.71 129.049 176.863 128.23 176.855H7.9103C7.09152 176.863 6.27911 176.71 5.51959 176.404C4.76008 176.098 4.0684 175.646 3.48417 175.072C2.89995 174.498 2.43465 173.815 2.11495 173.061C1.79526 172.307 1.62743 171.498 1.62109 170.679V94.109C1.62743 93.2902 1.79526 92.4807 2.11495 91.7269C2.43465 90.973 2.89995 90.2897 3.48417 89.716C4.0684 89.1423 4.76008 88.6894 5.51959 88.3835C6.27911 88.0775 7.09152 87.9244 7.9103 87.933H128.23C129.049 87.9244 129.861 88.0775 130.62 88.3835C131.38 88.6894 132.072 89.1423 132.656 89.716C133.24 90.2897 133.705 90.973 134.025 91.7269C134.345 92.4807 134.513 93.2902 134.519 94.109Z" fill="#DEFDFF" stroke="#37352F" stroke-linecap="round" stroke-linejoin="round"/>
<path d="M125.384 91.6838H10.998V172.991H125.384V91.6838Z" fill="white" stroke="#37352F" stroke-linecap="round" stroke-linejoin="round"/>
<path d="M84.6575 166.653H118.577V142.903H84.6575V166.653Z" fill="#37352F"/>
<path d="M88.5869 149.645C88.5869 150.201 88.7519 150.745 89.061 151.208C89.3701 151.67 89.8095 152.031 90.3235 152.244C90.8376 152.457 91.4032 152.512 91.9489 152.404C92.4946 152.295 92.9959 152.027 93.3893 151.634C93.7827 151.24 94.0506 150.739 94.1592 150.194C94.2677 149.648 94.212 149.082 93.9991 148.568C93.7862 148.054 93.4256 147.615 92.963 147.306C92.5004 146.997 91.9565 146.832 91.4001 146.832C90.654 146.832 89.9384 147.128 89.4109 147.656C88.8833 148.183 88.5869 148.899 88.5869 149.645Z" fill="#E2F1FF" stroke="#37352F" stroke-linecap="round" stroke-linejoin="round"/>
<path d="M99.71 161.528H118.578L109.136 148.739L99.71 161.528Z" fill="#37352F"/>
<path d="M92.3213 161.544H107.891L100.098 153.218L92.3213 161.544Z" fill="#E2F1FF" stroke="#37352F" stroke-linecap="round" stroke-linejoin="round"/>
<path d="M118.561 161.528H84.6416V166.653H118.561V161.528Z" fill="#E2F1FF" stroke="#37352F" stroke-linecap="round" stroke-linejoin="round"/>
<path d="M118.577 97.3586H72.9199V106.041H118.577V97.3586Z" fill="#FBE9F2"/>
<path d="M118.577 109.339H72.9199V114.092H118.577V109.339Z" fill="#E2F1FF"/>
<path d="M118.577 117.196H72.9199V121.95H118.577V117.196Z" fill="#E2F1FF"/>
<path d="M98.7235 125.054H72.9199V129.807H98.7235V125.054Z" fill="#E2F1FF"/>
<path d="M80.3898 143.258H34.7324V148.012H80.3898V143.258Z" fill="#E2F1FF"/>
<path d="M80.3898 151.116H34.7324V155.869H80.3898V151.116Z" fill="#E2F1FF"/>
<path d="M60.5359 158.99H34.7324V163.743H60.5359V158.99Z" fill="#E2F1FF"/>
<path d="M118.577 136.856H17.8047V139.734H118.577V136.856Z" fill="#FFF3E8"/>
<path d="M30.852 142.887H17.8047V166.637H30.852V142.887Z" fill="#FBE9F2"/>
<path d="M84.6575 166.653H118.577V142.903H84.6575V166.653Z" fill="#FBE9F2" stroke="#37352F" stroke-linecap="round" stroke-linejoin="round"/>
<path d="M84.6575 166.653H118.577V142.903H84.6575V166.653Z" fill="#E2F1FF" stroke="#37352F" stroke-linecap="round" stroke-linejoin="round"/>
<path d="M88.4414 149.208C88.4414 149.765 88.6064 150.308 88.9155 150.771C89.2246 151.234 89.664 151.594 90.178 151.807C90.6921 152.02 91.2577 152.076 91.8034 151.967C92.3491 151.859 92.8504 151.591 93.2438 151.197C93.6372 150.804 93.9051 150.303 94.0137 149.757C94.1222 149.211 94.0665 148.646 93.8536 148.132C93.6407 147.618 93.2801 147.178 92.8175 146.869C92.3549 146.56 91.811 146.395 91.2546 146.395C90.5085 146.395 89.7929 146.691 89.2654 147.219C88.7378 147.747 88.4414 148.462 88.4414 149.208Z" fill="#FFF3E8" stroke="#37352F" stroke-linecap="round" stroke-linejoin="round"/>
<path d="M99.71 161.528H118.578L109.136 148.739L99.71 161.528Z" fill="#FBE9F2" stroke="#37352F" stroke-linecap="round" stroke-linejoin="round"/>
<path d="M99.71 161.528H118.578L109.136 148.739L99.71 161.528Z" fill="#DEFDFF" stroke="#37352F" stroke-linecap="round" stroke-linejoin="round"/>
<path d="M92.3213 161.544H107.891L100.098 153.218L92.3213 161.544Z" fill="#DEFDFF" stroke="#37352F" stroke-linecap="round" stroke-linejoin="round"/>
<path d="M118.577 161.528H84.6416V166.653H118.577V161.528Z" fill="#DEFDFF" stroke="#37352F" stroke-linecap="round" stroke-linejoin="round"/>
<path d="M17.8041 132.895H68.5381V97.3586H17.8041L17.8041 132.895Z" fill="#FBE9F2" stroke="#37352F" stroke-linecap="round" stroke-linejoin="round"/>
<path d="M17.8041 132.895H68.5381V97.3586H17.8041L17.8041 132.895Z" fill="#E2F1FF" stroke="#37352F" stroke-linecap="round" stroke-linejoin="round"/>
<path d="M23.7383 107.463C23.7383 108.295 23.9848 109.107 24.4467 109.799C24.9086 110.49 25.5651 111.029 26.3332 111.347C27.1013 111.665 27.9465 111.748 28.7619 111.586C29.5774 111.424 30.3264 111.024 30.9142 110.436C31.5021 109.848 31.9025 109.099 32.0647 108.283C32.2269 107.468 32.1436 106.623 31.8255 105.855C31.5073 105.087 30.9685 104.43 30.2773 103.968C29.586 103.506 28.7733 103.26 27.9419 103.26C26.8283 103.264 25.7616 103.708 24.9742 104.496C24.1868 105.283 23.7425 106.35 23.7383 107.463Z" fill="#FFF3E8" stroke="#37352F" stroke-linecap="round" stroke-linejoin="round"/>
<path d="M40.3262 125.232H68.5549L54.4405 106.105L40.3262 125.232Z" fill="#FBE9F2" stroke="#37352F" stroke-linecap="round" stroke-linejoin="round"/>
<path d="M40.3262 125.232H68.5549L54.4405 106.105L40.3262 125.232Z" fill="#DEFDFF" stroke="#37352F" stroke-linecap="round" stroke-linejoin="round"/>
<path d="M29.2842 125.248H52.5817L40.9249 112.799L29.2842 125.248Z" fill="#DEFDFF" stroke="#37352F" stroke-linecap="round" stroke-linejoin="round"/>
<path d="M68.5387 125.232H17.8047V132.895H68.5387V125.232Z" fill="#DEFDFF" stroke="#37352F" stroke-linecap="round" stroke-linejoin="round"/>
<path d="M7.1823 122.726H7.00445C6.67407 122.726 6.40625 122.993 6.40625 123.324V141.48C6.40625 141.81 6.67407 142.078 7.00445 142.078H7.1823C7.51267 142.078 7.7805 141.81 7.7805 141.48V123.324C7.7805 122.993 7.51267 122.726 7.1823 122.726Z" fill="#37352F"/>
<path d="M131.624 132.394C131.624 132.889 131.477 133.374 131.202 133.786C130.927 134.198 130.535 134.519 130.077 134.709C129.619 134.899 129.116 134.948 128.629 134.852C128.143 134.755 127.697 134.516 127.346 134.166C126.996 133.815 126.757 133.369 126.66 132.883C126.564 132.397 126.613 131.893 126.803 131.435C126.993 130.977 127.314 130.585 127.726 130.31C128.138 130.035 128.623 129.888 129.118 129.888C129.448 129.886 129.775 129.949 130.08 130.074C130.385 130.199 130.662 130.384 130.895 130.617C131.128 130.85 131.313 131.127 131.438 131.432C131.563 131.737 131.626 132.064 131.624 132.394Z" fill="white" stroke="#37352F" stroke-linecap="round" stroke-linejoin="round"/>
<path d="M246.026 87.9329H206.771C206.245 87.9371 205.724 88.045 205.239 88.2504C204.755 88.4558 204.315 88.7547 203.946 89.1301C203.576 89.5054 203.284 89.9498 203.087 90.4379C202.889 90.926 202.79 91.4482 202.794 91.9748V172.813C202.79 173.339 202.889 173.862 203.087 174.35C203.284 174.838 203.576 175.282 203.946 175.658C204.315 176.033 204.755 176.332 205.239 176.537C205.724 176.743 206.245 176.851 206.771 176.855H246.026C246.553 176.851 247.073 176.743 247.558 176.537C248.043 176.332 248.483 176.033 248.852 175.658C249.221 175.282 249.513 174.838 249.711 174.35C249.908 173.862 250.008 173.339 250.004 172.813V91.9748C250.008 91.4482 249.908 90.926 249.711 90.4379C249.513 89.9498 249.221 89.5054 248.852 89.1301C248.483 88.7547 248.043 88.4558 247.558 88.2504C247.073 88.045 246.553 87.9371 246.026 87.9329ZM247.514 170.388C247.533 170.874 247.457 171.359 247.288 171.816C247.12 172.273 246.863 172.692 246.533 173.049C246.203 173.407 245.805 173.695 245.363 173.899C244.921 174.102 244.443 174.217 243.957 174.236H208.841C207.857 174.198 206.929 173.771 206.259 173.05C205.589 172.329 205.233 171.371 205.268 170.388V95.0466C205.268 90.7137 206.884 90.5035 208.841 90.5035H215.874C216.278 90.5035 216.617 90.9724 216.617 91.5382V91.7969C216.617 93.1388 217.345 93.1388 218.234 93.1388H234.499C235.42 93.1388 236.116 93.1388 236.116 91.7969V91.5382C236.116 90.9724 236.439 90.5035 236.859 90.5035H243.892C245.865 90.5035 247.449 91.0694 247.449 95.0466L247.514 170.388Z" fill="#FFF3E8" stroke="#37352F" stroke-linecap="round" stroke-linejoin="round"/>
<path d="M228.614 91.4574H224.184C224.111 91.4574 224.041 91.4285 223.99 91.3769C223.938 91.3254 223.909 91.2555 223.909 91.1826C223.909 91.1097 223.938 91.0398 223.99 90.9882C224.041 90.9367 224.111 90.9077 224.184 90.9077H228.614C228.686 90.9116 228.753 90.9418 228.804 90.9925C228.855 91.0433 228.885 91.1109 228.889 91.1826C228.885 91.2542 228.855 91.3219 228.804 91.3726C228.753 91.4233 228.686 91.4535 228.614 91.4574Z" fill="#37352F"/>
<path d="M247.515 95.0465V170.307C247.534 170.793 247.458 171.278 247.29 171.735C247.121 172.192 246.865 172.611 246.534 172.968C246.204 173.326 245.806 173.614 245.364 173.818C244.922 174.022 244.444 174.136 243.958 174.155H208.842C207.858 174.117 206.93 173.691 206.26 172.969C205.59 172.248 205.234 171.291 205.269 170.307V95.0465C205.269 90.7136 206.886 90.5034 208.842 90.5034H215.875C216.279 90.5034 216.619 90.9723 216.619 91.5381V91.7968C216.619 93.1387 217.346 93.1387 218.235 93.1387H234.5C235.422 93.1387 236.117 93.1387 236.117 91.7968V91.5381C236.117 90.9723 236.44 90.5034 236.861 90.5034H243.893C245.931 90.5519 247.515 91.0693 247.515 95.0465Z" fill="white" stroke="#37352F" stroke-linecap="round" stroke-linejoin="round"/>
<path d="M247.515 95.0465V100.657H205.269V95.0465C205.269 90.7136 206.885 90.5034 208.842 90.5034H215.875C216.279 90.5034 216.618 90.9723 216.618 91.5381V91.7968C216.618 93.1387 217.362 93.1387 218.235 93.1387H234.5C235.421 93.1387 236.116 93.1387 236.116 91.7968V91.5381C236.116 90.9723 236.44 90.5034 236.86 90.5034H243.893C245.93 90.5519 247.515 91.0693 247.515 95.0465Z" fill="white" stroke="#37352F" stroke-linecap="round" stroke-linejoin="round"/>
<path d="M209.278 97.9244L208.017 96.7441L209.278 95.5801L209.472 95.7903L208.437 96.7441L209.472 97.7142L209.278 97.9244Z" fill="#37352F"/>
<path d="M243.795 98.0215H242.906V97.7143L242.648 97.8598L242.211 97.0999L242.47 96.9544V96.6957L242.211 96.5502L242.648 95.7742L242.906 95.9359V95.6287H243.795V95.9359H243.892L244.167 95.7742L244.604 96.5502L244.329 96.6957V96.8089L244.604 96.9544L244.167 97.7143L243.892 97.5688H243.795V98.0215ZM243.133 97.8113H243.569V97.7143C243.567 97.6641 243.58 97.6145 243.606 97.5714C243.632 97.5283 243.669 97.4937 243.715 97.4718C243.755 97.444 243.803 97.4291 243.852 97.4291C243.901 97.4291 243.949 97.444 243.989 97.4718L244.216 97.0838H244.135C244.09 97.0631 244.053 97.0282 244.029 96.9844C244.006 96.9406 243.998 96.8903 244.006 96.8412C243.995 96.792 244.001 96.7404 244.025 96.6959C244.049 96.6514 244.088 96.6169 244.135 96.5987H244.216L243.989 96.2107C243.949 96.2385 243.901 96.2534 243.852 96.2534C243.803 96.2534 243.755 96.2385 243.715 96.2107C243.669 96.1888 243.632 96.1541 243.606 96.1111C243.58 96.068 243.567 96.0184 243.569 95.9682V95.8712H243.133V95.9682C243.13 96.0173 243.115 96.065 243.089 96.1072C243.064 96.1494 243.029 96.1849 242.987 96.2107C242.947 96.2385 242.899 96.2534 242.85 96.2534C242.801 96.2534 242.753 96.2385 242.712 96.2107L242.486 96.5987H242.567C242.61 96.6213 242.646 96.6566 242.669 96.6999C242.692 96.7432 242.702 96.7925 242.696 96.8412C242.699 96.8897 242.689 96.9382 242.666 96.9811C242.643 97.024 242.609 97.0596 242.567 97.0838L242.179 97.0191L242.405 97.4071C242.445 97.3793 242.493 97.3644 242.542 97.3644C242.592 97.3644 242.639 97.3793 242.68 97.4071C242.722 97.4329 242.757 97.4684 242.782 97.5106C242.808 97.5528 242.822 97.6005 242.825 97.6496L243.133 97.8113ZM243.343 97.4071C243.212 97.4071 243.084 97.3682 242.975 97.2954C242.866 97.2226 242.781 97.119 242.73 96.9979C242.68 96.8768 242.667 96.7435 242.693 96.6149C242.718 96.4863 242.781 96.3682 242.874 96.2755C242.967 96.1828 243.085 96.1197 243.213 96.0941C243.342 96.0685 243.475 96.0816 243.596 96.1318C243.718 96.182 243.821 96.267 243.894 96.376C243.967 96.485 244.006 96.6131 244.006 96.7442C244.009 96.8393 243.992 96.934 243.954 97.0215C243.917 97.1091 243.861 97.1873 243.79 97.2506C243.719 97.3139 243.635 97.3607 243.543 97.3878C243.452 97.4149 243.356 97.4214 243.262 97.4071H243.343ZM243.343 96.3239C243.243 96.3433 243.154 96.3966 243.089 96.4748C243.025 96.5529 242.99 96.6511 242.99 96.7523C242.99 96.8536 243.025 96.9517 243.089 97.0299C243.154 97.108 243.243 97.1614 243.343 97.1808C243.406 97.1931 243.471 97.1913 243.534 97.1755C243.596 97.1597 243.654 97.1302 243.704 97.0893C243.754 97.0483 243.794 96.9969 243.821 96.9386C243.849 96.8803 243.863 96.8167 243.863 96.7523C243.863 96.6879 243.849 96.6243 243.821 96.566C243.794 96.5078 243.754 96.4563 243.704 96.4154C243.654 96.3744 243.596 96.345 243.534 96.3292C243.471 96.3133 243.406 96.3115 243.343 96.3239Z" fill="#37352F"/>
<path d="M214.694 92.1689C214.61 92.0823 214.51 92.0134 214.399 91.9662C214.288 91.919 214.168 91.8945 214.048 91.8941C213.924 91.8933 213.802 91.9171 213.688 91.9643C213.574 92.0116 213.471 92.0811 213.385 92.1689L213.466 92.0881L213.66 91.9749C213.746 91.9285 213.838 91.8957 213.934 91.8779H214.274H214.517H214.678L214.824 91.9749L214.694 92.1689Z" fill="#37352F"/>
<path d="M213.45 92.5084L213.353 92.4114C213.463 92.2814 213.619 92.2 213.789 92.185C213.906 92.1686 214.025 92.1791 214.137 92.2155C214.249 92.2519 214.351 92.3134 214.436 92.3952L214.339 92.5084C214.221 92.3963 214.065 92.3328 213.902 92.3305C213.734 92.3303 213.572 92.3939 213.45 92.5084Z" fill="#37352F"/>
<path d="M214.225 92.6216L214.128 92.7186C214.055 92.6961 213.976 92.6961 213.902 92.7186C213.829 92.694 213.749 92.694 213.676 92.7186L213.562 92.6216C213.65 92.5337 213.77 92.4844 213.894 92.4844C214.018 92.4844 214.137 92.5337 214.225 92.6216Z" fill="#37352F"/>
<path d="M213.999 92.8158C213.999 92.8415 213.989 92.8662 213.97 92.8843C213.952 92.9025 213.928 92.9128 213.902 92.9128C213.888 92.9159 213.875 92.9155 213.861 92.9117C213.848 92.9079 213.836 92.9009 213.826 92.8912C213.817 92.8815 213.81 92.8694 213.806 92.8563C213.802 92.8431 213.802 92.8291 213.805 92.8158C213.805 92.79 213.815 92.7654 213.833 92.7472C213.851 92.729 213.876 92.7188 213.902 92.7188C213.928 92.7188 213.952 92.729 213.97 92.7472C213.989 92.7654 213.999 92.79 213.999 92.8158Z" fill="#37352F"/>
<path d="M208.033 92.3952C208.033 92.3223 208.062 92.2524 208.114 92.2009C208.165 92.1493 208.235 92.1204 208.308 92.1204C208.381 92.1204 208.451 92.1493 208.502 92.2009C208.554 92.2524 208.583 92.3223 208.583 92.3952C208.583 92.4681 208.554 92.538 208.502 92.5896C208.451 92.6411 208.381 92.6701 208.308 92.6701C208.235 92.6701 208.165 92.6411 208.114 92.5896C208.062 92.538 208.033 92.4681 208.033 92.3952Z" fill="#37352F"/>
<path d="M208.906 92.3952C208.91 92.3209 208.943 92.2509 208.997 92.1998C209.051 92.1487 209.123 92.1202 209.197 92.1204C209.269 92.1242 209.337 92.1544 209.387 92.2052C209.438 92.2559 209.468 92.3236 209.472 92.3952C209.472 92.4681 209.443 92.538 209.392 92.5896C209.34 92.6411 209.27 92.6701 209.197 92.6701C209.16 92.6723 209.122 92.6668 209.087 92.654C209.052 92.6411 209.02 92.6212 208.992 92.5955C208.965 92.5698 208.943 92.5387 208.929 92.5043C208.914 92.4698 208.906 92.4327 208.906 92.3952Z" fill="#37352F"/>
<path d="M210.07 92.6701C210.222 92.6701 210.345 92.547 210.345 92.3952C210.345 92.2434 210.222 92.1204 210.07 92.1204C209.918 92.1204 209.795 92.2434 209.795 92.3952C209.795 92.547 209.918 92.6701 210.07 92.6701Z" fill="#37352F"/>
<path d="M210.668 92.3952C210.672 92.3209 210.705 92.2509 210.759 92.1998C210.813 92.1487 210.885 92.1202 210.959 92.1204C211.031 92.1242 211.098 92.1544 211.149 92.2052C211.2 92.2559 211.23 92.3236 211.234 92.3952C211.234 92.4681 211.205 92.538 211.153 92.5896C211.102 92.6411 211.032 92.6701 210.959 92.6701C210.922 92.6723 210.884 92.6668 210.849 92.654C210.814 92.6411 210.781 92.6212 210.754 92.5955C210.727 92.5698 210.705 92.5387 210.69 92.5043C210.676 92.4698 210.668 92.4327 210.668 92.3952Z" fill="#37352F"/>
<path d="M211.558 92.3952C211.561 92.3236 211.592 92.2559 211.642 92.2052C211.693 92.1544 211.761 92.1242 211.832 92.1204C211.905 92.1204 211.975 92.1493 212.027 92.2009C212.078 92.2524 212.107 92.3223 212.107 92.3952C212.11 92.4319 212.104 92.4687 212.091 92.5031C212.078 92.5376 212.058 92.5688 212.032 92.5948C212.006 92.6209 211.975 92.641 211.94 92.654C211.906 92.667 211.869 92.6724 211.832 92.6701C211.76 92.6701 211.69 92.6411 211.638 92.5896C211.587 92.538 211.558 92.4681 211.558 92.3952Z" fill="#37352F"/>
<path d="M244.345 93.0094H242.082V91.9585H244.345V93.0094ZM242.179 92.8962H244.232V92.0717H242.179V92.8962Z" fill="#37352F"/>
<path d="M243.731 92.1365H242.26V92.8317H243.731V92.1365Z" fill="#37352F"/>
<path d="M244.556 92.2012H244.346V92.767H244.556V92.2012Z" fill="#37352F"/>
<path d="M211.687 169.563H211.363V171.034H210.765V170.275H209.698V171.034H209.1V169.563H208.776L210.231 168.06L211.687 169.563Z" fill="#37352F"/>
<path d="M244.005 168.06H240.497V168.561H244.005V168.06Z" fill="#37352F"/>
<path d="M244.005 169.289H240.497V169.79H244.005V169.289Z" fill="#37352F"/>
<path d="M244.005 170.533H240.497V171.034H244.005V170.533Z" fill="#37352F"/>
<path d="M205.252 127.236H247.514V100.657H205.252V127.236Z" fill="#FBE9F2" stroke="#37352F" stroke-linecap="round" stroke-linejoin="round"/>
<path d="M205.252 127.236H247.514V100.657H205.252V127.236Z" fill="#E2F1FF" stroke="#37352F" stroke-linecap="round" stroke-linejoin="round"/>
<path d="M224.022 121.513H247.514L235.76 107.205L224.022 121.513Z" fill="#FBE9F2" stroke="#37352F" stroke-linecap="round" stroke-linejoin="round"/>
<path d="M224.022 121.513H247.514L235.76 107.205L224.022 121.513Z" fill="#DEFDFF" stroke="#37352F" stroke-linecap="round" stroke-linejoin="round"/>
<path d="M214.808 121.529H234.209L224.508 112.217L214.808 121.529Z" fill="#DEFDFF" stroke="#37352F" stroke-linecap="round" stroke-linejoin="round"/>
<path d="M247.514 121.513H205.252V127.236H247.514V121.513Z" fill="#DEFDFF" stroke="#37352F" stroke-linecap="round" stroke-linejoin="round"/>
<path d="M213.206 111.23C214.867 111.23 216.214 109.884 216.214 108.223C216.214 106.562 214.867 105.216 213.206 105.216C211.546 105.216 210.199 106.562 210.199 108.223C210.199 109.884 211.546 111.23 213.206 111.23Z" fill="#FFF3E8" stroke="#37352F" stroke-linecap="round" stroke-linejoin="round"/>
<path d="M243.764 130.373H209.02V134.528H243.764V130.373Z" fill="#FBE9F2"/>
<path d="M243.764 136.969H209.02V140.235H243.764V136.969Z" fill="#E2F1FF"/>
<path d="M232.543 142.822H209.02V146.088H232.543V142.822Z" fill="#E2F1FF"/>
<path d="M243.764 154.77H209.02V158.036H243.764V154.77Z" fill="#E2F1FF"/>
<path d="M232.543 160.623H209.02V163.888H232.543V160.623Z" fill="#E2F1FF"/>
<path d="M243.764 148.917H209.02V152.054H243.764V148.917Z" fill="#FBE9F2"/>
</g>
<defs>
<clipPath id="clip0_533_1591">
<rect width="250" height="177.327" fill="white" transform="translate(0.8125 0.33667)"/>
</clipPath>
</defs>
</svg>
