<svg xmlns="http://www.w3.org/2000/svg" width="111" height="90" fill="none" xmlns:v="https://vecta.io/nano"><style><![CDATA[.B{stroke:#37352f}.C{stroke-linejoin:round}.D{fill:#e2f1ff}.E{fill:#ffdfef}.F{fill:#fff3e8}.G{fill:#defff5}]]></style><g clip-path="url(#A)"><g class="B C D"><path d="M77.184 85.808H34.648v3.553h42.536v-3.553z"/><path d="M72.123 85.809H39.719l.819-6.174.043-.285.078-.578.035-.293.078-.578.009-.095.035-.198.078-.578.035-.293.578-4.311h28.826l.543 4.07.034.19.086.681.026.19.035.25.052.422.026.198.095.681.026.19.871 6.51z"/><path d="M110.485.452H1.348v74.216h109.137V.452z"/><path d="M110.485 63.717H1.348v10.951h109.137V63.717z"/></g><path d="M57.696 68.459a1.81 1.81 0 0 1-1.118 1.673 1.81 1.81 0 0 1-1.973-.392 1.81 1.81 0 0 1-.392-1.973 1.81 1.81 0 0 1 1.673-1.118 1.81 1.81 0 0 1 1.811 1.811z" fill="#fff" class="B C"/><path d="M105.449 5.281H6.383v53.288h99.066V5.281z" fill="#c8c8c8"/><g class="B C"><path d="M105.57 5.281H6.461v53.288h99.109V5.281z" fill="#fff"/><path d="M10.737 36.28h36.448V13.36H10.737V36.28z" class="E"/><path d="M10.737 36.28h36.448V13.36H10.737V36.28z" class="D"/><path d="M26.922 31.347h20.263L37.054 19.008 26.922 31.347z" class="E"/><g class="G"><path d="M26.922 31.347h20.263L37.054 19.008 26.922 31.347z"/><path d="M18.981 31.356h16.728l-8.364-8.028-8.364 8.028z"/><path d="M47.185 31.347H10.736v4.941h36.448v-4.941z"/></g><path d="M18.561 22.275a2.59 2.59 0 0 0 1.409-3.376c-.543-1.321-2.055-1.952-3.376-1.409a2.59 2.59 0 0 0-1.409 3.376 2.59 2.59 0 0 0 3.376 1.409z" class="F"/><path d="M52.429 55.853h20.255V39.392H52.429v16.461z" class="E"/><path d="M52.429 55.853h20.255V39.392H52.429v16.461z" class="D"/><path d="M58.129 52.309h14.555l-7.278-8.855-7.278 8.856z" class="E"/><g class="G"><path d="M58.129 52.309h14.555l-7.278-8.855-7.278 8.856z"/><path d="M52.428 52.318h12.02l-6.01-5.769-6.01 5.769z"/><path d="M72.683 52.309H52.428v3.544h20.255v-3.544z"/></g><g class="F"><path d="M56.687 45.696a1.95 1.95 0 0 0 1.949-1.949 1.95 1.95 0 0 0-1.949-1.949 1.95 1.95 0 0 0-1.949 1.949 1.95 1.95 0 0 0 1.949 1.949z"/></g></g><path d="M93.523 19.155H52.375v1.483h41.148v-1.483z" class="F"/><g class="D"><path d="M100.628 22.225H52.375v1.483h48.253v-1.483zm0 3.061H52.375v1.483h48.253v-1.483zm0 3.061H52.375v1.483h48.253v-1.483zm0 3.069H52.375v1.483h48.253v-1.483zm-21.85 3.061H52.375v1.483h26.403v-1.483z"/></g><path d="M97.483 39.358H74.555v1.457h22.928v-1.457z" class="F"/><g class="D"><path d="M100.621 42.376H74.555v1.457h26.066v-1.457zm0 3.018H74.555v1.457h26.066v-1.457zm0 3.018H74.555v1.457h26.066v-1.457zm0 3.018H74.555v1.457h26.066V51.43zm-5.648 3.018H74.555v1.457h20.419v-1.457z"/></g><g class="E"><path d="M100.628 13.291H52.375v4.354h48.253v-4.354zM47.185 39.358H10.736v4.355h36.448v-4.355z"/></g><g class="D"><path d="M47.185 45.29H10.736v1.474h36.448V45.29zm0 3.044H10.736v1.474h36.448v-1.474zm0 3.053H10.736v1.474h36.448v-1.474zM35.708 54.43H10.736v1.474h24.971V54.43z"/><g class="B C"><path d="M105.571 7.333h-2.251v51.236h2.251V7.333z"/></g></g><path d="M105.57 5.281H6.461v5.303h99.109V5.281z" fill="#fff" class="B C"/><path d="M10.927 7.85a1.08 1.08 0 0 1-.677.975 1.08 1.08 0 0 1-1.163-.239 1.08 1.08 0 0 1-.239-1.162 1.08 1.08 0 0 1 .975-.677 1.08 1.08 0 0 1 .788.315 1.08 1.08 0 0 1 .239.362c.054.136.08.281.077.427z" class="B C E"/><path d="M15.308 7.851a1.08 1.08 0 0 1-.683.977 1.08 1.08 0 0 1-.62.051c-.207-.044-.397-.149-.545-.301a1.08 1.08 0 0 1-.222-1.171 1.08 1.08 0 0 1 .993-.66 1.08 1.08 0 0 1 .418.084c.133.056.252.137.353.24a1.08 1.08 0 0 1 .232.359c.053.134.078.277.075.42z" class="B C F"/><path d="M19.714 7.851a1.08 1.08 0 0 1-.683.977 1.08 1.08 0 0 1-1.166-.25c-.148-.152-.248-.344-.288-.552a1.08 1.08 0 0 1 .463-1.099 1.08 1.08 0 0 1 1.015-.096 1.08 1.08 0 0 1 .585.599 1.08 1.08 0 0 1 .074.42z" class="B C G"/></g><defs><clipPath id="A"><path fill="#fff" transform="translate(.916 .021)" d="M0 0h110v89.771H0z"/></clipPath></defs></svg>