<svg xmlns="http://www.w3.org/2000/svg" xmlns:xlink="http://www.w3.org/1999/xlink" width="251" height="178" fill="none" xmlns:v="https://vecta.io/nano"><style><![CDATA[.B{stroke:#37352f}.C{stroke-linejoin:round}.D{fill:#fbe9f2}.E{fill:#e2f1ff}.F{fill:#fff3e8}.G{fill:#fff}.H{fill:#37352f}.I{fill:#defdff}]]></style><g clip-path="url(#A)"><g class="B C E"><path d="M178.866 161.188H99.111v6.662h79.755v-6.662z"/><path d="M169.36 161.188h-60.757l1.552-11.576.08-.533.13-1.083.081-.55.145-1.083.016-.178.049-.372.145-1.083.081-.55 1.083-8.084h54.049l1.018 7.631.049.356.178 1.277.032.356.081.469.097.792.048.372.178 1.277.049.356 1.616 12.206z"/><path d="M241.306 1.145H36.672V140.3h204.634V1.145z"/><path d="M241.306 119.767H36.672V140.3h204.634v-20.533z"/></g><path d="M142.328 128.659c0 .672-.2 1.328-.573 1.886a3.39 3.39 0 0 1-1.523 1.251c-.621.257-1.303.324-1.962.193a3.39 3.39 0 0 1-1.738-.929c-.475-.475-.799-1.08-.93-1.739s-.063-1.341.194-1.961.692-1.151 1.25-1.524 1.215-.572 1.886-.572a3.4 3.4 0 0 1 2.401.994c.637.637.995 1.501.995 2.401z" class="B C G"/><path d="M231.864 10.199H46.114v99.916h185.75V10.199z" class="H"/><g class="B C"><path d="M232.09 10.199H46.26v99.916h185.83V10.199z" class="G"/><path d="M54.279 68.322h68.34V25.348h-68.34v42.974z" class="D"/><path d="M54.279 68.322h68.34V25.348h-68.34v42.974z" class="E"/><path d="M84.609 59.074h38.01l-18.996-23.136-19.014 23.136z" class="D"/><g class="I"><path d="M84.609 59.074h38.01l-18.996-23.136-19.014 23.136z"/><path d="M69.735 59.09h31.366L85.418 44.038 69.735 59.09z"/><path d="M122.62 59.074H54.279v9.264h68.341v-9.264z"/></g><path d="M68.946 42.062a4.85 4.85 0 1 0-3.689-8.972 4.85 4.85 0 0 0 3.689 8.972z" class="F"/><path d="M132.449 105.022h37.978V74.158h-37.978v30.864z" class="D"/><path d="M132.449 105.022h37.978V74.158h-37.978v30.864z" class="E"/><path d="M143.137 98.377h27.291l-13.646-16.604-13.645 16.604z" class="D"/><g class="I"><path d="M143.137 98.377h27.291l-13.646-16.604-13.645 16.604z"/><path d="M132.449 98.393h22.522l-11.253-10.816-11.269 10.816z"/><path d="M170.427 98.377h-37.978v6.645h37.978v-6.645z"/></g><g class="F"><path d="M140.436 85.977c2.018 0 3.654-1.636 3.654-3.654s-1.636-3.654-3.654-3.654-3.654 1.636-3.654 3.654 1.636 3.654 3.654 3.654z"/></g></g><path d="M209.488 36.213h-77.152v2.781h77.152v-2.781z" class="F"/><g class="E"><path d="M222.81 41.968h-90.474v2.781h90.474v-2.781zm0 5.74h-90.474v2.781h90.474v-2.781zm0 5.739h-90.474v2.781h90.474v-2.781zm0 5.756h-90.474v2.781h90.474v-2.781zm-40.969 5.739h-49.505v2.781h49.505v-2.781z"/></g><path d="M216.925 74.094h-42.989v2.732h42.989v-2.732z" class="F"/><g class="E"><path d="M222.81 79.752h-48.874v2.732h48.874v-2.732zm0 5.659h-48.874v2.732h48.874v-2.732zm0 5.658h-48.874v2.732h48.874v-2.732zm0 5.659h-48.874v2.732h48.874v-2.732zm-10.59 5.659h-38.284v2.732h38.284v-2.732z"/></g><g class="D"><path d="M222.81 25.219h-90.474v8.165h90.474v-8.165zM122.62 74.094H54.279v8.165h68.341v-8.165z"/></g><g class="E"><path d="M122.62 85.217H54.279v2.765h68.341v-2.765z"/><g class="B C"><path d="M122.62 90.924H54.279v2.765h68.341v-2.765zm0 5.723H54.279v2.765h68.341v-2.765zm-21.519 5.707H54.279v2.765h46.822v-2.765zm130.99-88.307h-4.22v96.068h4.22V14.047z"/></g></g><path d="M232.09 10.199H46.26v9.943h185.83v-9.943z" class="B C G"/><path d="M54.634 15.017a2.02 2.02 0 0 1-1.27 1.827 2.02 2.02 0 0 1-2.18-.447 2.02 2.02 0 0 1-.447-2.18 2.02 2.02 0 0 1 1.827-1.27 2.02 2.02 0 0 1 1.478.591 2.02 2.02 0 0 1 .591 1.478z" class="B C D"/><path d="M62.848 15.017a2.02 2.02 0 0 1-1.281 1.832 2.02 2.02 0 0 1-2.186-.469 2.02 2.02 0 0 1-.417-2.196 2.02 2.02 0 0 1 1.862-1.237 2.02 2.02 0 0 1 1.447.609 2.02 2.02 0 0 1 .435.672c.099.251.146.519.14.788z" class="B C F"/><g class="I B C"><path d="M71.11 15.017a2.02 2.02 0 0 1-3.467 1.363 2.02 2.02 0 0 1 1.445-3.433 2.02 2.02 0 0 1 2.022 2.069zm63.409 79.092v76.57a6.21 6.21 0 0 1-.494 2.382c-.32.754-.785 1.437-1.369 2.011s-1.276 1.026-2.036 1.332a6.23 6.23 0 0 1-2.39.451H7.91c-.819.008-1.631-.145-2.391-.451a6.22 6.22 0 0 1-3.404-3.343 6.23 6.23 0 0 1-.494-2.382v-76.57a6.21 6.21 0 0 1 .494-2.382c.32-.754.785-1.437 1.369-2.011s1.276-1.027 2.035-1.332a6.23 6.23 0 0 1 2.391-.45h120.32a6.21 6.21 0 0 1 2.39.45 6.22 6.22 0 0 1 2.036 1.332 6.23 6.23 0 0 1 1.369 2.011 6.21 6.21 0 0 1 .494 2.382z"/></g><path d="M125.384 91.684H10.998v81.307h114.386V91.684z" class="B C G"/><path d="M84.658 166.653h33.92v-23.75H84.658v23.75z" class="H"/><path d="M88.587 149.645c0 .556.165 1.1.474 1.563a2.82 2.82 0 0 0 1.262 1.036c.514.213 1.08.268 1.625.16a2.82 2.82 0 0 0 2.21-2.21c.109-.546.053-1.112-.16-1.626a2.81 2.81 0 0 0-1.036-1.262c-.463-.309-1.006-.474-1.563-.474a2.81 2.81 0 0 0-2.813 2.813z" class="B C E"/><use xlink:href="#B" class="H"/><g class="B C E"><path d="M92.321 161.544h15.57l-7.793-8.326-7.777 8.326z"/><path d="M118.561 161.528H84.642v5.125h33.919v-5.125z"/></g><path d="M118.577 97.359H72.92v8.682h45.657v-8.682z" class="D"/><g class="E"><path d="M118.577 109.339H72.92v4.753h45.657v-4.753zm0 7.857H72.92v4.754h45.657v-4.754zm-19.853 7.858H72.92v4.753h25.804v-4.753zM80.39 143.258H34.732v4.754H80.39v-4.754zm0 7.858H34.732v4.753H80.39v-4.753zm-19.854 7.874H34.732v4.753h25.804v-4.753z"/></g><path d="M118.577 136.856H17.805v2.878h100.772v-2.878z" class="F"/><g class="D"><path d="M30.852 142.887H17.805v23.75h13.047v-23.75z"/><g class="B C"><path d="M84.658 166.653h33.92v-23.75H84.658v23.75z"/></g></g><path d="M84.658 166.653h33.92v-23.75H84.658v23.75z" class="B C E"/><path d="M88.441 149.208c0 .557.165 1.1.474 1.563a2.81 2.81 0 0 0 2.888 1.196c.546-.108 1.047-.376 1.44-.77a2.81 2.81 0 0 0 .61-3.065c-.213-.514-.573-.954-1.036-1.263s-1.006-.474-1.563-.474a2.81 2.81 0 0 0-1.989.824c-.528.528-.824 1.243-.824 1.989z" class="B C F"/><use xlink:href="#B" class="B C D"/><g class="I B C"><use xlink:href="#B"/><path d="M92.321 161.544h15.57l-7.793-8.326-7.777 8.326z"/><path d="M118.577 161.528H84.642v5.125h33.935v-5.125z"/></g><path d="M17.804 132.895h50.734V97.359H17.804v35.536z" class="B C D"/><path d="M17.804 132.895h50.734V97.359H17.804v35.536z" class="B C E"/><path d="M23.738 107.463c0 .832.247 1.644.708 2.336s1.118 1.23 1.887 1.548 1.613.401 2.429.239a4.2 4.2 0 0 0 2.152-1.15c.588-.588.988-1.337 1.151-2.153a4.2 4.2 0 0 0-.239-2.428c-.318-.768-.857-1.425-1.548-1.887a4.2 4.2 0 0 0-2.335-.708c-1.114.004-2.18.448-2.968 1.236a4.22 4.22 0 0 0-1.236 2.967z" class="B C F"/><path d="M40.326 125.232h28.229l-14.114-19.127-14.114 19.127z" class="B C D"/><g class="I B C"><path d="M40.326 125.232h28.229l-14.114-19.127-14.114 19.127z"/><path d="M29.284 125.248h23.298l-11.657-12.449-11.641 12.449z"/><path d="M68.539 125.232H17.805v7.663h50.734v-7.663z"/></g><path d="M7.182 122.726h-.178a.6.6 0 0 0-.598.598v18.156a.6.6 0 0 0 .598.598h.178a.6.6 0 0 0 .598-.598v-18.156a.6.6 0 0 0-.598-.598z" class="H"/><g class="B C"><path d="M131.624 132.394a2.51 2.51 0 0 1-.422 1.392c-.275.412-.667.733-1.125.923a2.51 2.51 0 0 1-1.448.143c-.486-.097-.932-.336-1.283-.686s-.589-.797-.686-1.283a2.51 2.51 0 0 1 .143-1.448c.19-.458.511-.85.923-1.125a2.51 2.51 0 0 1 1.392-.422c.33-.002.657.061.962.186s.582.31.815.543.418.51.543.815.188.632.186.962z" class="G"/><path d="M246.026 87.933h-39.255a4.01 4.01 0 0 0-2.825 1.197 3.99 3.99 0 0 0-.859 1.308c-.198.488-.297 1.01-.293 1.537v80.838a4.01 4.01 0 0 0 .293 1.537 4 4 0 0 0 .859 1.308 4.01 4.01 0 0 0 1.293.879 4 4 0 0 0 1.532.318h39.255c.527-.004 1.047-.112 1.532-.318a4 4 0 0 0 1.294-.879 4.03 4.03 0 0 0 1.152-2.845V91.975c.004-.527-.096-1.049-.293-1.537a4.02 4.02 0 0 0-.859-1.308c-.369-.375-.809-.674-1.294-.88a4.01 4.01 0 0 0-1.532-.317zm1.488 82.455a3.7 3.7 0 0 1-.226 1.428c-.168.457-.425.876-.755 1.233s-.728.646-1.17.85a3.72 3.72 0 0 1-1.406.337h-35.116a3.72 3.72 0 0 1-2.582-1.186c-.67-.721-1.026-1.679-.991-2.662V95.047c0-4.333 1.616-4.543 3.573-4.543h7.033c.404 0 .743.469.743 1.035v.259c0 1.342.728 1.342 1.617 1.342h16.265c.921 0 1.617 0 1.617-1.342v-.259c0-.566.323-1.035.743-1.035h7.033c1.973 0 3.557.566 3.557 4.543l.065 75.341z" class="F"/></g><path d="M228.614 91.457h-4.43c-.073 0-.143-.029-.194-.081s-.081-.121-.081-.194.029-.143.081-.194.121-.081.194-.081h4.43a.29.29 0 0 1 .275.275.29.29 0 0 1-.275.275z" class="H"/><g class="B C G"><path d="M247.515 95.047v75.261c.019.486-.057.971-.225 1.428a3.7 3.7 0 0 1-.756 1.233c-.33.358-.728.646-1.17.85a3.7 3.7 0 0 1-1.406.337h-35.116c-.984-.038-1.912-.464-2.582-1.186s-1.026-1.678-.991-2.662v-75.26c0-4.333 1.617-4.543 3.573-4.543h7.033c.404 0 .744.469.744 1.035v.259c0 1.342.727 1.342 1.616 1.342H234.5c.922 0 1.617 0 1.617-1.342v-.259c0-.566.323-1.035.744-1.035h7.032c2.038.049 3.622.566 3.622 4.543z"/><path d="M247.515 95.047v5.611h-42.246v-5.611c0-4.333 1.616-4.543 3.573-4.543h7.033c.404 0 .743.469.743 1.035v.259c0 1.342.744 1.342 1.617 1.342H234.5c.921 0 1.616 0 1.616-1.342v-.259c0-.566.324-1.035.744-1.035h7.033c2.037.049 3.622.566 3.622 4.543z"/></g><g class="H"><path d="M209.278 97.924l-1.261-1.18 1.261-1.164.194.21-1.035.954 1.035.97-.194.21zm34.517.098h-.889v-.307l-.258.146-.437-.76.259-.145v-.259l-.259-.145.437-.776.258.162v-.307h.889v.307h.097l.275-.162.437.776-.275.145v.113l.275.146-.437.76-.275-.145h-.097v.453zm-.662-.21h.436v-.097c-.002-.05.011-.1.037-.143s.063-.078.109-.1a.24.24 0 0 1 .274 0l.227-.388h-.081c-.045-.021-.082-.056-.106-.099s-.031-.094-.023-.143a.21.21 0 0 1 .019-.145c.024-.044.063-.079.11-.097h.081l-.227-.388a.24.24 0 0 1-.274 0c-.046-.022-.083-.057-.109-.1s-.039-.093-.037-.143v-.097h-.436v.097a.3.3 0 0 1-.044.139c-.025.042-.06.078-.102.103a.24.24 0 0 1-.137.043c-.049 0-.097-.015-.138-.043l-.226.388h.081c.043.023.079.058.102.101a.24.24 0 0 1 .027.141.26.26 0 0 1-.129.243l-.388-.065.226.388a.24.24 0 0 1 .137-.043c.05 0 .097.015.138.043s.077.061.102.103a.31.31 0 0 1 .043.139l.308.162zm.21-.404a.66.66 0 0 1-.368-.112.67.67 0 0 1-.245-.297.66.66 0 0 1-.037-.383.65.65 0 0 1 .181-.339c.093-.092.211-.156.339-.181a.66.66 0 0 1 .793.65.64.64 0 0 1-.216.506c-.071.063-.155.11-.247.137s-.187.034-.281.019h.081zm0-1.083a.44.44 0 0 0-.353.428.44.44 0 0 0 .714.336.42.42 0 0 0 .117-.151.43.43 0 0 0 0-.372.43.43 0 0 0-.117-.151.44.44 0 0 0-.17-.086c-.063-.016-.128-.018-.191-.005zm-28.649-4.156a.91.91 0 0 0-.295-.203c-.111-.048-.231-.072-.351-.072s-.246.023-.36.07a.91.91 0 0 0-.303.205l.081-.081.194-.113c.086-.046.178-.079.274-.097h.34.243.161l.146.097-.13.194z"/><path d="M213.45 92.508l-.097-.097c.11-.13.266-.211.436-.226.117-.016.236-.006.348.031a.78.78 0 0 1 .299.18l-.097.113a.65.65 0 0 0-.437-.178.66.66 0 0 0-.452.178zm.775.114l-.097.097c-.073-.022-.152-.022-.226 0a.35.35 0 0 0-.226 0l-.114-.097a.47.47 0 0 1 .663 0z"/><path d="M213.999 92.816c0 .026-.01.05-.029.069s-.042.029-.068.029c-.014.003-.027.003-.041-.001s-.025-.011-.035-.02-.016-.022-.02-.035-.004-.027-.001-.041c0-.026.01-.05.028-.069s.043-.028.069-.028.05.01.068.028.029.043.029.069zm-5.966-.421c0-.073.029-.143.081-.194s.121-.081.194-.081.143.029.194.081.081.121.081.194-.029.143-.081.194-.121.081-.194.081-.143-.029-.194-.081-.081-.121-.081-.194zm.873 0a.29.29 0 0 1 .291-.275c.072.004.14.034.19.085a.29.29 0 0 1 .085.19c0 .073-.029.143-.08.194s-.122.081-.195.081c-.037.002-.075-.003-.11-.016a.3.3 0 0 1-.095-.058c-.028-.025-.049-.057-.063-.091s-.023-.072-.023-.109zm1.164.275c.152 0 .275-.123.275-.275s-.123-.275-.275-.275-.275.123-.275.275.123.275.275.275zm.598-.275a.29.29 0 0 1 .291-.275.29.29 0 0 1 .275.275c0 .073-.029.143-.081.194s-.121.081-.194.081c-.037.002-.075-.003-.11-.016a.29.29 0 0 1-.095-.058c-.027-.025-.049-.057-.064-.091a.29.29 0 0 1-.022-.109zm.89 0a.29.29 0 0 1 .084-.19c.051-.051.119-.081.19-.085s.143.029.195.081.08.121.08.194a.25.25 0 0 1-.016.108c-.013.035-.033.066-.059.092s-.057.046-.092.059-.071.018-.108.016c-.072 0-.142-.029-.194-.081s-.08-.121-.08-.194zm32.787.614h-2.263v-1.051h2.263v1.051zm-2.166-.113h2.053v-.824h-2.053v.824zm1.552-.759h-1.471v.695h1.471v-.695z"/><path d="M244.556 92.201h-.21v.566h.21v-.566zm-32.869 77.362h-.324v1.471h-.598v-.759h-1.067v.759h-.598v-1.471h-.324l1.455-1.503 1.456 1.503zm32.318-1.503h-3.508v.501h3.508v-.501zm0 1.229h-3.508v.501h3.508v-.501zm0 1.244h-3.508v.501h3.508v-.501z"/></g><g class="B C"><path d="M205.252 127.236h42.262v-26.579h-42.262v26.579z" class="D"/><path d="M205.252 127.236h42.262v-26.579h-42.262v26.579z" class="E"/><path d="M224.022 121.513h23.492l-11.754-14.308-11.738 14.308z" class="D"/><g class="I"><path d="M224.022 121.513h23.492l-11.754-14.308-11.738 14.308z"/><path d="M214.808 121.529h19.401l-9.701-9.312-9.7 9.312z"/><path d="M247.514 121.513h-42.262v5.723h42.262v-5.723z"/></g><path d="M213.206 111.23a3.01 3.01 0 0 0 3.008-3.007 3.01 3.01 0 0 0-3.008-3.007 3.01 3.01 0 0 0-3.007 3.007 3.01 3.01 0 0 0 3.007 3.007z" class="F"/></g><path d="M243.764 130.373H209.02v4.155h34.744v-4.155z" class="D"/><g class="E"><path d="M243.764 136.969H209.02v3.266h34.744v-3.266zm-11.221 5.853H209.02v3.266h23.523v-3.266zm11.221 11.948H209.02v3.266h34.744v-3.266zm-11.221 5.853H209.02v3.265h23.523v-3.265z"/></g><path d="M243.764 148.917H209.02v3.137h34.744v-3.137z" class="D"/></g><defs><clipPath id="A"><path transform="translate(.813 .337)" d="M0 0h250v177.327H0z" class="G"/></clipPath><path id="B" d="M99.71 161.528h18.868l-9.442-12.789-9.426 12.789z"/></defs></svg>