<svg width="101" height="19" viewBox="0 0 101 19" fill="none" xmlns="http://www.w3.org/2000/svg">
<g clip-path="url(#clip0_556_1479)">
<path d="M-2.70801 15.7405L-0.854598 13.7095C-0.482539 14.2535 0.0297916 14.7056 0.637406 15.0261C1.24502 15.3466 1.92933 15.5256 2.63026 15.5476C4.43927 15.5476 5.36043 14.5321 5.36043 12.5823V4.27561H-0.876795V1.7775H8.62332V12.4199C8.62332 16.1975 6.55904 18.0559 2.70794 18.0559C1.67044 18.0828 0.640411 17.8875 -0.299938 17.4855C-1.24029 17.0835 -2.06492 16.486 -2.70801 15.7405Z" fill="#707070" stroke="#707070" stroke-width="0.5" stroke-linecap="round" stroke-linejoin="round"/>
<path d="M10.791 9.75917C10.791 5.01681 14.7975 1.5032 20.2356 1.5032C25.6738 1.5032 29.6914 4.98635 29.6914 9.75917C29.6914 14.532 25.6849 18.0151 20.2356 18.0151C14.7864 18.0151 10.791 14.5523 10.791 9.75917ZM26.4063 9.75917C26.4326 9.01167 26.2909 8.26719 25.9899 7.57184C25.689 6.87649 25.2352 6.24509 24.6567 5.71673C24.0783 5.18837 23.3874 4.77431 22.6269 4.5002C21.8664 4.22609 21.0525 4.09777 20.2356 4.12318C19.4197 4.09919 18.607 4.22856 17.8478 4.50331C17.0887 4.77805 16.3991 5.19233 15.8218 5.72054C15.2446 6.24875 14.7918 6.87967 14.4915 7.57431C14.1913 8.26895 14.0499 9.01255 14.0761 9.75917C14.05 10.5062 14.1913 11.2503 14.4915 11.9454C14.7916 12.6406 15.2442 13.2722 15.8213 13.8012C16.3984 14.3302 17.0878 14.7454 17.847 15.0213C18.6062 15.2972 19.4191 15.4279 20.2356 15.4053C21.0531 15.4293 21.8672 15.2997 22.6277 15.0244C23.3882 14.7491 24.079 14.3341 24.6573 13.805C25.2356 13.2758 25.6892 12.6438 25.99 11.9479C26.2908 11.252 26.4325 10.5071 26.4063 9.75917Z" fill="#707070" stroke="#707070" stroke-width="0.5" stroke-linecap="round" stroke-linejoin="round"/>
<path d="M38.8278 10.135V17.8832H35.5649V10.1756L28.6729 1.7775H32.1577L37.2962 7.56581L42.4902 1.7775H45.6976L38.8278 10.135Z" fill="#707070" stroke="#707070" stroke-width="0.5" stroke-linecap="round" stroke-linejoin="round"/>
<path d="M44.6787 9.75916C44.6787 4.96603 48.6963 1.5032 54.0789 1.5032C55.3789 1.46575 56.672 1.6901 57.8668 2.16038C59.0616 2.63066 60.1289 3.33539 60.9932 4.22472L58.8845 6.04246C58.2964 5.44067 57.5739 4.96151 56.7659 4.63739C55.9579 4.31327 55.0832 4.15176 54.201 4.16379C53.3829 4.13162 52.5663 4.25348 51.8017 4.52182C51.0372 4.79017 50.341 5.19929 49.7563 5.72384C49.1716 6.24839 48.7108 6.87719 48.4024 7.57132C48.0941 8.26544 47.9448 9.0101 47.9638 9.75916C47.9384 10.5147 48.084 11.2669 48.3915 11.9685C48.699 12.6701 49.1616 13.306 49.7505 13.8362C50.3393 14.3664 51.0416 14.7795 51.8132 15.0495C52.5848 15.3195 53.4091 15.4407 54.2343 15.4053C55.1199 15.419 55.9981 15.2552 56.8071 14.9254C57.6162 14.5956 58.3366 14.1078 58.9178 13.4962L60.9932 15.3748C60.1187 16.2635 59.0405 16.9646 57.8358 17.428C56.631 17.8914 55.3292 18.1058 54.0235 18.0557C48.6963 18.0557 44.6787 14.5929 44.6787 9.75916Z" fill="#707070" stroke="#707070" stroke-width="0.5" stroke-linecap="round" stroke-linejoin="round"/>
<path d="M76.1671 15.3241V17.8832H63.0156V1.77744H75.823V4.27555H66.2785V8.44923H74.7465V10.9067H66.2785V15.3241H76.1671Z" fill="#707070" stroke="#707070" stroke-width="0.5" stroke-linecap="round" stroke-linejoin="round"/>
</g>
<path d="M98.6883 8.65586C98.7957 4.15116 94.9826 0.403073 90.1715 0.284263C85.3604 0.165452 81.3732 3.72091 81.2658 8.22561C81.1584 12.7303 84.9715 16.4784 89.7825 16.5972C94.5936 16.716 98.5809 13.1606 98.6883 8.65586Z" fill="#707070" stroke="#707070" stroke-width="0.5" stroke-linecap="round" stroke-linejoin="round"/>
<path d="M90.7731 3.42163H89.1571C85.2108 3.42163 82.0117 6.67743 82.0117 10.6937C82.0117 14.7099 85.2108 17.9657 89.1571 17.9657H90.7731C94.7193 17.9657 97.9184 14.7099 97.9184 10.6937C97.9184 6.67743 94.7193 3.42163 90.7731 3.42163Z" fill="white" stroke="#707070" stroke-linecap="round" stroke-linejoin="round"/>
<path d="M81.821 8.66202C81.821 8.66202 88.396 3.82474 98.2347 8.66202C98.2347 8.5814 97.9653 6.01764 97.9653 6.01764L95.8582 3.45388L90.8675 2.27681C90.8675 2.27681 88.1108 2.01882 87.9207 2.08332C87.7306 2.14782 84.657 2.82503 84.5619 2.92178L82.8191 4.32459L82.0111 5.8564L81.3457 8.27504L81.5675 8.66202H81.821Z" fill="#707070" stroke="#707070" stroke-width="0.5" stroke-linecap="round" stroke-linejoin="round"/>
<path d="M86.4694 13.062C87.9044 13.062 89.0677 11.8781 89.0677 10.4177C89.0677 8.95721 87.9044 7.77328 86.4694 7.77328C85.0344 7.77328 83.8711 8.95721 83.8711 10.4177C83.8711 11.8781 85.0344 13.062 86.4694 13.062Z" stroke="#707070" stroke-miterlimit="10"/>
<path d="M86.6115 11.0789C86.9702 11.0789 87.2611 10.7829 87.2611 10.4178C87.2611 10.0527 86.9702 9.75668 86.6115 9.75668C86.2527 9.75668 85.9619 10.0527 85.9619 10.4178C85.9619 10.7829 86.2527 11.0789 86.6115 11.0789Z" fill="#707070"/>
<path d="M93.3073 13.062C94.7423 13.062 95.9056 11.8781 95.9056 10.4177C95.9056 8.95721 94.7423 7.77328 93.3073 7.77328C91.8723 7.77328 90.709 8.95721 90.709 10.4177C90.709 11.8781 91.8723 13.062 93.3073 13.062Z" stroke="#707070" stroke-miterlimit="10"/>
<path d="M93.1652 11.0788C93.524 11.0788 93.8148 10.7828 93.8148 10.4177C93.8148 10.0526 93.524 9.75659 93.1652 9.75659C92.8065 9.75659 92.5156 10.0526 92.5156 10.4177C92.5156 10.7828 92.8065 11.0788 93.1652 11.0788Z" fill="#707070"/>
<path d="M83.9285 7.54954C83.9285 7.54954 82.6611 13.6768 83.9285 16.6436C83.9767 16.7469 83.9984 16.8609 83.9915 16.975C83.9847 17.0891 83.9496 17.1996 83.8895 17.2962C83.8294 17.3928 83.7462 17.4723 83.6478 17.5274C83.5494 17.5824 83.4388 17.6112 83.3265 17.6111C82.7021 17.6793 82.0716 17.5636 81.5099 17.2778C80.9481 16.9919 80.4789 16.548 80.1578 15.9987C79.128 13.7251 80.9659 8.01715 81.5837 6.22736L83.9285 7.54954Z" fill="#707070" stroke="#707070" stroke-width="0.5" stroke-linecap="round" stroke-linejoin="round"/>
<path d="M95.9216 7.54954C95.9216 7.54954 97.1732 13.6768 95.9216 16.6436C95.8735 16.7469 95.8518 16.8609 95.8587 16.975C95.8655 17.0891 95.9006 17.1996 95.9607 17.2962C96.0208 17.3928 96.1039 17.4723 96.2024 17.5274C96.3008 17.5824 96.4113 17.6112 96.5237 17.6111C97.1481 17.6793 97.7786 17.5636 98.3403 17.2778C98.902 16.9919 99.3713 16.548 99.6923 15.9987C100.722 13.7251 98.8843 8.01715 98.2664 6.22736L95.9216 7.54954Z" fill="#707070" stroke="#707070" stroke-width="0.5" stroke-linecap="round" stroke-linejoin="round"/>
<path d="M90.5166 9.59338H89.249V10.3397H90.5166V9.59338Z" fill="#707070"/>
<path d="M91.2324 14.4723C91.101 14.7406 90.8987 14.9664 90.6482 15.1241C90.3978 15.2819 90.109 15.3655 89.8144 15.3655C89.5199 15.3655 89.2311 15.2819 88.9807 15.1241C88.7302 14.9664 88.5279 14.7406 88.3965 14.4723" stroke="#707070" stroke-linecap="round" stroke-linejoin="round"/>
<defs>
<clipPath id="clip0_556_1479">
<rect width="92.5373" height="18.6567" fill="white"/>
</clipPath>
</defs>
</svg>
