<svg xmlns="http://www.w3.org/2000/svg" width="18" height="18" fill="none" xmlns:v="https://vecta.io/nano"><path fill="#fff" d="M0 0h18v18H0z"/><path d="M13.125 6.749c-.671 0-1.332.166-1.924.483a.75.75 0 0 0-.701-.483h-3a.75.75 0 0 0-.53.22.75.75 0 0 0-.22.53v9a.75.75 0 0 0 .22.531.75.75 0 0 0 .53.22h3a.75.75 0 0 0 .531-.22.75.75 0 0 0 .22-.53v-4.125a.75.75 0 0 1 .75-.75.75.75 0 0 1 .75.75v4.125a.75.75 0 0 0 .22.531.75.75 0 0 0 .53.22h3a.75.75 0 0 0 .531-.22.75.75 0 0 0 .22-.53v-5.625a4.13 4.13 0 0 0-4.125-4.125zm2.625 9h-1.5v-3.375a2.25 2.25 0 0 0-2.25-2.25 2.25 2.25 0 0 0-2.25 2.25v3.375h-1.5v-7.5h1.5v.527a.75.75 0 0 0 .502.708.75.75 0 0 0 .834-.239 2.61 2.61 0 0 1 2.913-.85 2.61 2.61 0 0 1 1.751 2.479v4.875zm-10.5-9h-3a.75.75 0 0 0-.53.22.75.75 0 0 0-.22.53v9a.75.75 0 0 0 .22.531.75.75 0 0 0 .53.22h3a.75.75 0 0 0 .53-.22.75.75 0 0 0 .22-.53v-9a.75.75 0 0 0-.22-.53.75.75 0 0 0-.53-.22zm-.75 9H3v-7.5h1.5v7.5zM3.761 1.156c-.328-.02-.657.028-.966.139s-.593.285-.833.509-.433.495-.565.796-.202.626-.205.955.061.655.188.958.314.578.551.806.517.407.824.524.635.17.964.156h.021c.329.02.659-.028.969-.14s.594-.286.834-.512.432-.498.564-.8.2-.628.202-.958-.064-.656-.193-.96-.319-.577-.557-.805-.521-.404-.83-.519-.638-.166-.967-.149zM3.74 4.499h-.021c-.13.016-.261.004-.386-.036s-.239-.105-.337-.192-.175-.194-.227-.314-.079-.249-.077-.38c0-.56.42-.921 1.069-.921.131-.017.264-.007.391.032s.243.103.343.191.179.195.233.315.082.251.081.384c0 .56-.42.921-1.069.921z" fill="#37352f"/></svg>