<svg width="25" height="24" viewBox="0 0 25 24" fill="none" xmlns="http://www.w3.org/2000/svg">
<path d="M3.40625 8H21.4062C21.6715 8 21.9258 7.89464 22.1134 7.70711C22.3009 7.51957 22.4062 7.26522 22.4062 7C22.4062 6.73478 22.3009 6.48043 22.1134 6.29289C21.9258 6.10536 21.6715 6 21.4062 6H3.40625C3.14103 6 2.88668 6.10536 2.69914 6.29289C2.51161 6.48043 2.40625 6.73478 2.40625 7C2.40625 7.26522 2.51161 7.51957 2.69914 7.70711C2.88668 7.89464 3.14103 8 3.40625 8ZM21.4062 16H3.40625C3.14103 16 2.88668 16.1054 2.69914 16.2929C2.51161 16.4804 2.40625 16.7348 2.40625 17C2.40625 17.2652 2.51161 17.5196 2.69914 17.7071C2.88668 17.8946 3.14103 18 3.40625 18H21.4062C21.6715 18 21.9258 17.8946 22.1134 17.7071C22.3009 17.5196 22.4062 17.2652 22.4062 17C22.4062 16.7348 22.3009 16.4804 22.1134 16.2929C21.9258 16.1054 21.6715 16 21.4062 16ZM21.4062 11H3.40625C3.14103 11 2.88668 11.1054 2.69914 11.2929C2.51161 11.4804 2.40625 11.7348 2.40625 12C2.40625 12.2652 2.51161 12.5196 2.69914 12.7071C2.88668 12.8946 3.14103 13 3.40625 13H21.4062C21.6715 13 21.9258 12.8946 22.1134 12.7071C22.3009 12.5196 22.4062 12.2652 22.4062 12C22.4062 11.7348 22.3009 11.4804 22.1134 11.2929C21.9258 11.1054 21.6715 11 21.4062 11Z" fill="#37352F"/>
</svg>
