<svg width="288" height="258" viewBox="0 0 288 258" fill="none" xmlns="http://www.w3.org/2000/svg">
<g clip-path="url(#clip0_556_2144)">
<path d="M106.28 64.2484L113.344 53.7344L117.156 57.3708L119.976 65.9013L115.703 69.9043L108.438 73.5263L106.28 64.2484Z" fill="#37352F"/>
<path d="M151.487 162.231C151.487 162.231 130.923 169.353 123.521 186.816C116.119 204.28 116.112 256.527 116.112 256.527L200.328 257.368C200.328 257.368 246.708 184.387 181.13 160.204C164.708 161.29 151.487 162.231 151.487 162.231Z" fill="#37352F" stroke="#37352F" stroke-miterlimit="10"/>
<path d="M146.287 188.356C146.287 188.356 158.062 185.732 179.303 187.417C180.274 187.997 190.646 188.965 190.646 188.965C190.646 188.965 195.911 206.452 197.839 208.538C199.767 210.624 205.5 222.224 205.5 222.224L209.096 258L126.377 257.505C126.377 257.505 126.622 217.614 135.829 189.46L146.287 188.356Z" fill="#FBE9F2" stroke="#37352F" stroke-miterlimit="10"/>
<path d="M168.699 143.221L155.439 145.094L157.749 161.408L171.008 159.535L168.699 143.221Z" fill="white" stroke="#37352F" stroke-width="0.99985" stroke-miterlimit="10"/>
<path d="M129.254 253.696H185.151C185.397 253.696 185.633 253.803 185.807 253.993C185.981 254.184 186.078 254.442 186.078 254.711V256.985C186.078 257.254 185.981 257.512 185.807 257.703C185.633 257.893 185.397 258 185.151 258H129.254V253.688V253.696Z" fill="white" stroke="#37352F" stroke-miterlimit="10"/>
<path d="M135.215 258H34.8623L22.7979 183.978H122.188C122.689 184.001 123.167 184.2 123.539 184.539C123.91 184.878 124.151 185.336 124.221 185.834L135.718 257.381C135.733 257.456 135.731 257.533 135.712 257.607C135.694 257.681 135.66 257.75 135.612 257.809C135.564 257.868 135.503 257.916 135.434 257.949C135.366 257.982 135.291 257.999 135.215 258Z" fill="white" stroke="#37352F" stroke-miterlimit="10"/>
<path d="M107.964 47.1659C107.964 47.1659 76.5589 81.8126 92.3332 141.893C92.6352 143.094 93.1598 144.227 93.8796 145.235C95.944 148.045 98.8428 153.284 110.085 152.076C115.84 151.458 127.464 150.208 132.707 147.764L133.096 147.585L107.964 47.1659Z" fill="#37352F"/>
<path d="M111.891 68.4382C111.891 68.4382 79.7236 146.6 145.777 150.847C158.861 151.566 182.576 149.41 197.933 141.972L210.564 135.432L206.745 72.2759L184.396 53.7344L114.07 59.1818L111.891 68.4382Z" fill="white" stroke="#37352F" stroke-miterlimit="10"/>
<path d="M117.156 125.457C128.498 125.457 137.692 116.271 137.692 104.939C137.692 93.6075 128.498 84.4214 117.156 84.4214C105.814 84.4214 96.6201 93.6075 96.6201 104.939C96.6201 116.271 105.814 125.457 117.156 125.457Z" fill="white" stroke="#37352F" stroke-miterlimit="10"/>
<path d="M170.945 125.457C182.287 125.457 191.481 116.271 191.481 104.939C191.481 93.6075 182.287 84.4214 170.945 84.4214C159.603 84.4214 150.409 93.6075 150.409 104.939C150.409 116.271 159.603 125.457 170.945 125.457Z" fill="white" stroke="#37352F" stroke-miterlimit="10"/>
<path d="M119.976 110.926C121.533 110.926 122.796 109.043 122.796 106.721C122.796 104.399 121.533 102.517 119.976 102.517C118.419 102.517 117.156 104.399 117.156 106.721C117.156 109.043 118.419 110.926 119.976 110.926Z" fill="#37352F"/>
<path d="M166.493 110.926C168.05 110.926 169.312 109.043 169.312 106.721C169.312 104.399 168.05 102.517 166.493 102.517C164.935 102.517 163.673 104.399 163.673 106.721C163.673 109.043 164.935 110.926 166.493 110.926Z" fill="#37352F"/>
<path d="M117.098 72.046C117.098 72.046 125.276 69.5019 131.57 73.4833C132.829 74.2019 134.246 76.0417 131.57 77.7018C128.376 79.6853 115.415 81.6545 113.523 77.6443C111.631 73.6342 117.098 72.046 117.098 72.046Z" fill="#37352F"/>
<path d="M179.289 72.0604C179.289 72.0604 168.844 69.0348 159.904 73.0018C158.113 73.7205 154.955 76.6742 158.76 78.3343C163.299 80.3178 181.677 81.6545 184.36 77.6156C187.043 73.5768 179.289 72.0604 179.289 72.0604Z" fill="#37352F"/>
<path d="M137.691 102.517C137.691 102.517 142.345 97.5585 150.56 102.517" stroke="#37352F" stroke-width="2" stroke-linecap="round" stroke-linejoin="round"/>
<path d="M138.605 129.23C141.166 128.166 148.768 125.601 156.904 128.569C158.134 129.862 157.314 135.669 147.294 136.956C142.259 136.956 138.159 136.575 137.727 130.718C137.7 130.409 137.771 130.1 137.928 129.834C138.085 129.567 138.322 129.356 138.605 129.23V129.23Z" stroke="#37352F" stroke-miterlimit="10"/>
<path d="M108.258 65.1396C108.258 65.1396 132.606 57.838 188.574 65.1396C191.66 65.8582 193.3 68.3161 194.207 75.4236C195.113 82.5312 198.235 92.3122 190.416 148.382C190.336 148.896 190.369 149.421 190.514 149.92C190.659 150.419 190.912 150.88 191.256 151.271C191.599 151.661 192.023 151.972 192.5 152.181C192.976 152.39 193.492 152.491 194.012 152.479C196.947 152.371 205.406 151.286 216.915 148.39C222.525 146.952 230.013 143.711 232.56 134.915C239.091 112.341 237.832 54.0578 192.761 28.5524C189.437 26.6621 185.845 25.2881 182.108 24.4776C164.313 20.6543 119.896 17.8875 104.064 52.7786C103.568 65.887 108.258 65.1396 108.258 65.1396Z" fill="#37352F"/>
<path d="M200.482 100.489L190.92 102.413L191.616 105.866L201.178 103.941L200.482 100.489Z" fill="#37352F"/>
<path d="M131.412 258H31.9669C31.4491 257.983 30.9543 257.784 30.5718 257.437C30.1893 257.09 29.9441 256.619 29.8805 256.108L18.5283 186.661C18.4632 186.346 18.4674 186.021 18.5406 185.707C18.6137 185.393 18.7541 185.099 18.9521 184.845C19.1502 184.59 19.4012 184.381 19.6882 184.231C19.9751 184.081 20.2911 183.995 20.6147 183.978H119.314L131.412 258Z" fill="#E2F1FF" stroke="#37352F" stroke-miterlimit="10"/>
<path d="M155.257 157.747C157.53 158.171 164.256 158.968 173.24 155.921C173.487 155.836 173.75 155.808 174.01 155.84C174.269 155.873 174.517 155.964 174.736 156.108C175.829 156.884 177.534 158.185 178.685 159.069C178.831 159.172 178.946 159.314 179.016 159.478C179.086 159.643 179.109 159.824 179.082 160C179.055 160.177 178.98 160.343 178.864 160.479C178.748 160.616 178.596 160.717 178.426 160.772C174.556 162.605 163.544 166.866 151.452 163.007C150.632 162.748 150.33 161.951 150.834 161.383C151.826 160.247 153.114 158.904 153.847 158.149C154.032 157.973 154.257 157.845 154.503 157.775C154.748 157.705 155.007 157.695 155.257 157.747Z" fill="#FBE9F2" stroke="#37352F" stroke-miterlimit="10"/>
<path d="M148.942 202.225L142.173 203.497C141.662 203.603 141.13 203.502 140.693 203.217C140.256 202.931 139.95 202.484 139.843 201.973L133.693 169.547C133.615 169.082 133.707 168.605 133.953 168.202C134.199 167.799 134.581 167.499 135.031 167.355L141.238 165.249C141.504 165.153 141.787 165.114 142.068 165.135C142.35 165.157 142.624 165.239 142.871 165.375C143.118 165.511 143.334 165.699 143.502 165.925C143.671 166.151 143.789 166.411 143.849 166.687L150.56 199.946C150.648 200.463 150.527 200.993 150.223 201.42C149.92 201.847 149.459 202.137 148.942 202.225Z" fill="#FBE9F2" stroke="#37352F" stroke-miterlimit="10"/>
<path d="M146.916 183.654L137.122 185.625C136.16 185.819 135.537 186.755 135.731 187.716L136.644 192.246C136.838 193.207 137.775 193.829 138.737 193.636L148.531 191.664C149.493 191.471 150.116 190.535 149.922 189.574L149.008 185.043C148.815 184.082 147.878 183.46 146.916 183.654Z" fill="white" stroke="#37352F" stroke-miterlimit="10"/>
<path d="M178.907 202.225L185.676 203.489C186.215 203.573 186.766 203.441 187.208 203.122C187.651 202.803 187.951 202.324 188.042 201.786L194.811 166.277C194.916 165.791 194.842 165.284 194.605 164.848C194.367 164.411 193.981 164.074 193.516 163.898L187.316 161.742C187.036 161.654 186.74 161.626 186.449 161.662C186.158 161.697 185.877 161.794 185.626 161.946C185.376 162.099 185.16 162.303 184.995 162.546C184.83 162.788 184.719 163.063 184.669 163.352L177.325 199.781C177.214 200.315 177.317 200.87 177.614 201.328C177.91 201.785 178.375 202.107 178.907 202.225Z" fill="#FBE9F2" stroke="#37352F" stroke-miterlimit="10"/>
<path d="M179.316 191.668L189.11 193.639C190.072 193.833 191.009 193.21 191.202 192.249L192.116 187.719C192.31 186.758 191.687 185.822 190.725 185.629L180.931 183.657C179.969 183.464 179.032 184.086 178.838 185.047L177.925 189.577C177.731 190.538 178.354 191.474 179.316 191.668Z" fill="white" stroke="#37352F" stroke-miterlimit="10"/>
<path d="M165.86 245.05C165.86 245.05 156.185 244.504 154.819 251.992C155.229 253.868 156.861 253.767 159.048 251.992C160.134 251.719 163.27 249.836 165.86 250.77C168.449 251.705 172.945 255.398 183.303 252.811C185.605 252.826 187.896 253.131 190.122 253.717C194.207 254.716 210.981 256.591 216.556 251.992C222.131 247.393 220.275 228.571 220.275 228.571H200.854L200.098 237.913C200.037 238.577 199.746 239.199 199.277 239.672C198.807 240.145 198.187 240.441 197.523 240.508L184.195 241.73C183.844 241.763 183.49 241.746 183.145 241.679C181.019 241.24 178.924 240.664 176.872 239.954C172.916 238.589 164.788 239.336 158.063 241.78C158.063 241.78 147.431 246.013 154.79 252.682" fill="white"/>
<path d="M165.86 245.05C165.86 245.05 156.185 244.504 154.819 251.992C155.229 253.868 156.861 253.767 159.048 251.992C160.134 251.719 163.27 249.836 165.86 250.77C168.449 251.705 172.945 255.398 183.303 252.811C185.605 252.826 187.896 253.131 190.122 253.717C194.207 254.716 210.981 256.591 216.556 251.992C222.131 247.393 220.275 228.571 220.275 228.571H200.854L200.098 237.913C200.037 238.577 199.746 239.199 199.277 239.672C198.807 240.145 198.187 240.441 197.523 240.508L184.195 241.73C183.844 241.763 183.49 241.746 183.145 241.679C181.019 241.24 178.924 240.664 176.872 239.954C172.916 238.589 164.788 239.336 158.063 241.78C158.063 241.78 147.431 246.013 154.79 252.682" stroke="#37352F" stroke-miterlimit="10"/>
<path d="M211.859 186.414C211.859 186.414 220.239 205.739 223.145 226.975C223.145 226.975 216.419 233.875 192.984 229.886C193.164 222.62 194.171 195.929 194.171 195.929" fill="#37352F"/>
<path d="M211.859 186.414C211.859 186.414 220.239 205.739 223.145 226.975C223.145 226.975 216.419 233.875 192.984 229.886C193.164 222.62 194.171 195.929 194.171 195.929" stroke="#37352F" stroke-linecap="round" stroke-linejoin="round"/>
<path d="M149.783 208.549H176.52C177.306 208.549 178.059 208.861 178.615 209.416C179.171 209.971 179.483 210.724 179.483 211.51V223.835C179.483 225.71 178.737 227.509 177.41 228.835C176.083 230.161 174.282 230.906 172.405 230.906H153.89C152.013 230.906 150.213 230.161 148.886 228.835C147.558 227.509 146.813 225.71 146.813 223.835V211.517C146.812 211.127 146.888 210.74 147.037 210.38C147.186 210.019 147.404 209.692 147.68 209.416C147.957 209.14 148.284 208.922 148.645 208.773C149.006 208.624 149.393 208.548 149.783 208.549Z" fill="white" stroke="#37352F" stroke-miterlimit="10"/>
<path d="M137.375 35.0995C132.937 39.7492 129.233 45.0314 127.399 51.2478C127.384 51.352 127.408 51.4581 127.466 51.5459C127.524 51.6338 127.612 51.6974 127.714 51.7248C127.815 51.7522 127.924 51.7415 128.018 51.6947C128.112 51.6478 128.186 51.5682 128.226 51.4706C130.017 45.3907 133.635 40.2523 137.98 35.7032C138.361 35.3079 137.757 34.697 137.375 35.0995Z" fill="white"/>
<path d="M205.708 98.9455C206.191 104.921 205.896 110.934 204.831 116.833C204.73 117.372 205.55 117.602 205.658 117.063C206.74 111.09 207.044 105.003 206.564 98.9527C206.521 98.4065 205.665 98.4065 205.708 98.9527V98.9455Z" fill="white"/>
<path d="M214.433 103.487L214.879 109.287C214.915 109.833 215.778 109.84 215.735 109.287L215.289 103.487C215.246 102.941 214.39 102.934 214.433 103.487Z" fill="white"/>
<path d="M222.453 92.535C223.86 97.5763 224.557 102.789 224.525 108.022C224.538 108.126 224.589 108.221 224.668 108.291C224.747 108.36 224.848 108.398 224.953 108.398C225.058 108.398 225.159 108.36 225.238 108.291C225.317 108.221 225.367 108.126 225.381 108.022C225.414 102.711 224.707 97.4213 223.281 92.305C223.242 92.2057 223.167 92.1244 223.071 92.0767C222.976 92.0291 222.866 92.0185 222.763 92.0472C222.66 92.0758 222.572 92.1415 222.514 92.2316C222.457 92.3217 222.435 92.4298 222.453 92.535Z" fill="white"/>
<path d="M98.0368 127.448C98.3993 130.995 99.5124 134.424 101.302 137.509C101.37 137.578 101.459 137.622 101.555 137.634C101.651 137.646 101.749 137.626 101.832 137.576C101.915 137.526 101.979 137.45 102.013 137.36C102.047 137.269 102.051 137.17 102.022 137.078C100.304 134.131 99.2308 130.854 98.8711 127.462C98.8136 126.916 97.9504 126.909 98.0152 127.462L98.0368 127.448Z" fill="white"/>
<path d="M104.655 129.92L105.374 132.794C105.413 132.892 105.487 132.972 105.582 133.019C105.676 133.065 105.784 133.076 105.886 133.049C105.988 133.021 106.076 132.958 106.134 132.87C106.192 132.782 106.216 132.676 106.201 132.572L105.482 129.661C105.443 129.562 105.368 129.48 105.273 129.433C105.177 129.385 105.067 129.375 104.964 129.403C104.861 129.432 104.773 129.498 104.716 129.588C104.658 129.678 104.637 129.786 104.655 129.891V129.92Z" fill="white"/>
<path d="M38.2347 93.8358C38.426 97.5603 37.5077 101.258 35.5959 104.461C33.6841 107.664 30.8646 110.229 27.4939 111.831C24.1232 113.433 20.3528 114.001 16.6592 113.462C12.9656 112.924 9.5148 111.303 6.74311 108.805C3.97141 106.307 2.00327 103.044 1.08754 99.4287C0.171803 95.8133 0.349601 92.0077 1.59845 88.4932C2.84729 84.9787 5.11111 81.9131 8.10366 79.684C11.0962 77.4549 14.6831 76.1624 18.4108 75.9698C20.887 75.841 23.3642 76.2011 25.7009 77.0295C28.0377 77.8578 30.188 79.1383 32.0292 80.7975C33.8703 82.4568 35.366 84.4624 36.4308 86.6996C37.4956 88.9368 38.1086 91.3617 38.2347 93.8358Z" fill="#E2F1FF"/>
<path d="M11.8438 88.6183L19.5618 94.8204" stroke="white" stroke-width="1.38" stroke-linecap="round"/>
<path d="M23.5318 89.646L19.3096 94.7126L19.0146 94.3964" fill="white"/>
<path d="M23.5318 89.646L19.3096 94.7126L19.0146 94.3964" stroke="white" stroke-width="1.38" stroke-linecap="round"/>
<path d="M21.0717 94.6982C21.0927 95.0322 21.0138 95.365 20.845 95.6541C20.6763 95.9433 20.4254 96.1758 20.1242 96.3223C19.823 96.4687 19.485 96.5224 19.1531 96.4765C18.8213 96.4307 18.5106 96.2874 18.2604 96.0647C18.0103 95.8421 17.8319 95.5503 17.7481 95.2262C17.6643 94.9022 17.6787 94.5605 17.7896 94.2447C17.9005 93.9289 18.1027 93.6531 18.3708 93.4523C18.6388 93.2515 18.9605 93.1349 19.2951 93.1171C19.7395 93.0954 20.1747 93.249 20.507 93.5447C20.8393 93.8404 21.0421 94.2546 21.0717 94.6982Z" fill="white" stroke="white" stroke-width="1.38" stroke-linecap="round"/>
<path d="M18.7627 82.8115L18.8778 85.104" stroke="white" stroke-width="1.38" stroke-linecap="round"/>
<path d="M20.0002 106.765L19.8779 104.472" stroke="white" stroke-width="1.38" stroke-linecap="round"/>
<path d="M31.3717 94.1736L29.0771 94.2886" stroke="white" stroke-width="1.38" stroke-linecap="round"/>
<path d="M7.39062 95.4025L9.68519 95.2875" stroke="white" stroke-width="1.38" stroke-linecap="round"/>
<path d="M51.4386 154.376L48.7442 152.372C48.056 151.86 47.0826 152.003 46.5702 152.69L38.5201 163.492C38.0076 164.18 38.1501 165.153 38.8384 165.665L41.5327 167.669C42.221 168.181 43.1943 168.039 43.7068 167.351L51.7569 156.549C52.2693 155.861 52.1268 154.888 51.4386 154.376Z" fill="#FBE9F2" stroke="white" stroke-miterlimit="10"/>
<path d="M44.2329 166.395L39.2942 162.721C38.9246 162.446 38.4019 162.522 38.1267 162.892L34.9049 167.215C34.6297 167.584 34.7063 168.106 35.0759 168.381L40.0145 172.055C40.3841 172.33 40.9068 172.254 41.182 171.884L44.4038 167.561C44.679 167.192 44.6025 166.67 44.2329 166.395Z" fill="#E2F1FF" stroke="white" stroke-miterlimit="10"/>
<path d="M58.0149 155.483C55.2921 155.126 52.7064 154.077 50.5055 152.436C43.147 147.017 41.802 136.395 47.4628 128.835C53.1237 121.274 63.6398 119.55 70.9695 125.004C78.2991 130.459 79.673 141.045 74.0409 148.612C72.2205 151.076 69.7765 153.011 66.9601 154.218C64.1436 155.425 61.0561 155.862 58.0149 155.483ZM63.1291 124.286C60.5066 123.962 57.8451 124.342 55.4188 125.388C52.9925 126.434 50.8893 128.108 49.3258 130.236C44.4634 136.762 45.6214 145.874 51.9081 150.553C58.1948 155.231 67.2723 153.729 72.1348 147.204C76.9972 140.685 75.832 131.566 69.5453 126.887C67.6638 125.487 65.455 124.591 63.1291 124.286Z" fill="#E2F1FF" stroke="#E2F1FF" stroke-width="2" stroke-miterlimit="10"/>
<path d="M82.586 39.8499C90.8013 39.8499 97.4611 33.196 97.4611 24.9879C97.4611 16.7799 90.8013 10.126 82.586 10.126C74.3707 10.126 67.7109 16.7799 67.7109 24.9879C67.7109 33.196 74.3707 39.8499 82.586 39.8499Z" fill="#FBE9F2"/>
<path d="M62.6266 19.1827L38.0983 21.482C36.6547 21.6173 35.5942 22.8963 35.7296 24.3387L38.031 48.8453C38.1664 50.2876 39.4465 51.3472 40.8902 51.2119L65.4184 48.9126C66.8621 48.7773 67.9226 47.4983 67.7871 46.0559L65.4858 21.5493C65.3503 20.107 64.0702 19.0474 62.6266 19.1827Z" fill="#FBE9F2"/>
<path d="M58.3673 1.18574C58.4111 1.00254 58.5022 0.834013 58.6315 0.696951C58.7608 0.55989 58.9239 0.459075 59.1043 0.40455C59.2848 0.350025 59.4764 0.343695 59.66 0.386188C59.8437 0.42868 60.013 0.518514 60.1511 0.646738L69.4517 9.42161L78.745 18.1893C78.8835 18.3178 78.9855 18.4807 79.0406 18.6614C79.0958 18.842 79.1022 19.034 79.0591 19.2179C79.016 19.4018 78.925 19.5711 78.7953 19.7085C78.6656 19.8459 78.5018 19.9466 78.3206 20.0003L66.0925 23.6583L53.8645 27.3163C53.6833 27.3739 53.4901 27.3823 53.3046 27.3407C53.1191 27.299 52.9481 27.2089 52.809 27.0794C52.6699 26.95 52.5678 26.7859 52.5131 26.604C52.4584 26.4221 52.4531 26.2289 52.4978 26.0443L55.4541 13.6114L58.3673 1.18574Z" fill="#E2F1FF" stroke="white" stroke-miterlimit="10"/>
<path d="M255.98 29.2137C258.548 22.8751 255.146 15.6238 248.392 13.0222C241.638 10.4206 234.085 13.4534 231.524 19.7992C230.767 21.6801 230.502 23.7228 230.753 25.7346C231.005 27.7464 231.766 29.661 232.963 31.2978C233.148 31.5385 233.271 31.8218 233.318 32.1218C233.366 32.4219 233.338 32.7291 233.236 33.0154L231.697 36.8243C231.014 38.5132 232.531 38.93 234.33 39.6271L240.034 41.7831C241.825 42.5017 243.227 43.2204 243.911 41.4884L245.45 37.6867C245.577 37.4069 245.77 37.1624 246.014 36.9745C246.257 36.7866 246.542 36.661 246.845 36.6087C248.861 36.2262 250.75 35.3506 252.345 34.0601C253.939 32.7696 255.188 31.1045 255.98 29.2137Z" fill="#FBE9F2"/>
<path d="M244.335 30.3276L240.947 38.7144" stroke="white" stroke-linecap="round" stroke-linejoin="round"/>
<path d="M239.415 27.5176L235.711 36.6949" stroke="white" stroke-linecap="round" stroke-linejoin="round"/>
<path d="M239.279 27.4098C238.638 27.5793 237.961 27.5416 237.344 27.302C236.98 27.1761 236.645 26.9785 236.359 26.721C236.073 26.4634 235.842 26.1512 235.679 25.8027C235.516 25.4542 235.424 25.0766 235.41 24.6922C235.396 24.3078 235.459 23.9245 235.596 23.5649C235.912 22.8416 236.501 22.272 237.235 21.98C237.969 21.688 238.789 21.6972 239.516 22.0054C241.091 22.6091 241.854 24.0752 242.853 26.3605C243.99 28.8255 244.601 30.0832 246.155 30.6725C246.878 30.9716 247.689 30.9758 248.415 30.6843C249.142 30.3928 249.724 29.8288 250.039 29.113C250.176 28.7534 250.239 28.3701 250.225 27.9857C250.21 27.6013 250.119 27.2237 249.956 26.8752C249.793 26.5267 249.562 26.2145 249.276 25.957C248.99 25.6994 248.655 25.5019 248.291 25.376C247.674 25.1378 246.998 25.0976 246.356 25.261" stroke="white" stroke-miterlimit="10" stroke-linecap="round"/>
<path d="M240.235 47.4102C239.658 48.7258 238.588 49.7633 237.254 50.3006C235.92 50.8378 234.429 50.8322 233.1 50.2849C232.434 50.0514 231.822 49.6875 231.299 49.2145C230.776 48.7416 230.352 48.169 230.054 47.5305C229.755 46.892 229.587 46.2003 229.559 45.496C229.531 44.7917 229.644 44.0889 229.892 43.4288C230.971 40.7482 233.28 41.6753 236.135 42.7677C238.991 43.86 241.329 44.7296 240.235 47.4102Z" fill="#E2F1FF"/>
<path d="M219.354 15.4441L225.158 17.6791" stroke="#FBE9F2" stroke-linecap="round" stroke-linejoin="round"/>
<path d="M262.116 31.9158L267.921 34.1508" stroke="#FBE9F2" stroke-linecap="round" stroke-linejoin="round"/>
<path d="M219.951 34.3089L225.612 32.038" stroke="#FBE9F2" stroke-linecap="round" stroke-linejoin="round"/>
<path d="M261.655 17.557L267.316 15.286" stroke="#FBE9F2" stroke-linecap="round" stroke-linejoin="round"/>
<path d="M250.644 7.44537L252.852 1.99072" stroke="#FBE9F2" stroke-linecap="round" stroke-linejoin="round"/>
<path d="M254.29 47.5323L251.744 42.0992" stroke="#FBE9F2" stroke-linecap="round" stroke-linejoin="round"/>
<path d="M235.523 7.49571L232.984 2.06262" stroke="#FBE9F2" stroke-linecap="round" stroke-linejoin="round"/>
<path d="M78.9966 218.351C78.9103 222.491 71.8828 227.694 71.8828 227.694C71.8828 227.694 63.7187 222.498 62.7261 218.351C61.6543 213.86 66.7901 212.48 70.588 215.865C73.6522 212.48 79.1117 213.853 78.9966 218.351Z" fill="white" stroke="#37352F" stroke-miterlimit="10"/>
<path d="M124.047 40.5182C122.796 41.6894 121.688 43.0041 120.745 44.4349L124.047 40.5182Z" fill="white"/>
<path d="M123.744 40.2164C122.475 41.4219 121.344 42.7644 120.371 44.2194C120.069 44.6793 120.81 45.1105 121.09 44.6506C122.025 43.2592 123.111 41.9746 124.327 40.8201C124.73 40.4392 124.126 39.8355 123.723 40.2164H123.744Z" fill="white"/>
<path d="M150.697 40.5183C150.422 41.7665 150.289 43.0419 150.302 44.32C150.315 44.4239 150.366 44.5193 150.445 44.5884C150.523 44.6575 150.625 44.6956 150.73 44.6956C150.834 44.6956 150.936 44.6575 151.014 44.5884C151.093 44.5193 151.144 44.4239 151.158 44.32C151.146 43.1127 151.266 41.9077 151.517 40.7267C151.639 40.1877 150.798 39.9577 150.697 40.4967V40.5183Z" fill="white"/>
<path d="M160.393 38.8006C162.069 41.9777 163.131 45.4424 163.521 49.0128C163.579 49.559 164.435 49.5662 164.377 49.0128C163.971 45.291 162.863 41.6796 161.112 38.3694C160.853 37.8807 160.112 38.3191 160.393 38.8006Z" fill="white"/>
<path d="M172.952 40.1158C173.875 41.1766 174.667 42.3444 175.311 43.5941C175.563 44.0828 176.304 43.6516 176.031 43.1629C175.349 41.8498 174.511 40.6239 173.535 39.5121C173.168 39.0953 172.564 39.7061 172.93 40.1158H172.952Z" fill="white"/>
<path d="M177.901 38.1179C179.553 39.0141 180.882 40.407 181.699 42.0993C181.936 42.5952 182.677 42.164 182.418 41.6681C181.538 39.8368 180.103 38.3284 178.318 37.3561C178.226 37.3273 178.126 37.3304 178.036 37.3648C177.945 37.3992 177.869 37.463 177.819 37.5459C177.77 37.6288 177.749 37.726 177.761 37.8219C177.773 37.9179 177.817 38.0069 177.886 38.0748L177.901 38.1179Z" fill="white"/>
<path d="M200.788 226.07C207.42 226.07 214.023 225.962 220.288 223.547C220.799 223.353 220.576 222.527 220.065 222.721C213.865 225.114 207.348 225.229 200.788 225.215C200.684 225.228 200.589 225.279 200.519 225.358C200.45 225.436 200.412 225.538 200.412 225.642C200.412 225.747 200.45 225.848 200.519 225.927C200.589 226.006 200.684 226.056 200.788 226.07Z" fill="white"/>
<path d="M198.962 184.122C196.782 187.245 195.244 190.77 194.438 194.492C194.323 195.031 195.157 195.261 195.265 194.722C196.053 191.071 197.562 187.614 199.703 184.553C200.019 184.1 199.278 183.669 198.984 184.122H198.962Z" fill="white"/>
<path d="M243.73 172.364C243.73 172.364 248.082 180.341 258.016 186.78L265.281 182.986C265.669 171.164 261.598 163.036 261.598 163.036C251.952 162.763 246.881 153.535 246.881 153.535L246.126 153.923L253.851 168.706C254.461 168.55 255.107 168.622 255.667 168.911C256.227 169.199 256.661 169.683 256.887 170.27C257.113 170.857 257.115 171.507 256.893 172.096C256.671 172.685 256.24 173.171 255.682 173.463C255.124 173.756 254.478 173.833 253.868 173.68C253.257 173.528 252.723 173.156 252.368 172.636C252.013 172.117 251.862 171.485 251.943 170.861C252.024 170.237 252.332 169.664 252.808 169.252L245.076 154.469L244.356 154.865C244.356 154.865 249.01 164.301 243.73 172.364Z" fill="#E2F1FF"/>
<path d="M258.175 191.336L268.91 185.73L266.548 181.215L255.813 186.82L258.175 191.336Z" fill="#E2F1FF"/>
<path d="M233.308 191.373L234.028 190.992C230.967 184.609 230.505 177.288 232.741 170.572C234.977 163.856 239.736 158.269 246.014 154.99C252.292 151.711 259.599 150.995 266.395 152.993C273.191 154.991 278.945 159.548 282.444 165.702L283.163 165.328C279.648 158.831 273.714 153.978 266.645 151.817C259.576 149.657 251.94 150.363 245.388 153.784C238.836 157.204 233.895 163.063 231.633 170.095C229.372 177.126 229.971 184.765 233.301 191.358L233.308 191.373Z" fill="#FBE9F2"/>
<path d="M270.183 140.011L220.483 165.96L220.863 166.686L270.563 140.737L270.183 140.011Z" fill="#FBE9F2"/>
<path d="M281.584 169.44L286.696 166.77L284.025 161.662L278.912 164.331L281.584 169.44Z" fill="white"/>
<path d="M278.357 164.135L284.191 161.095L287.241 166.924L281.4 169.971L278.357 164.135ZM283.846 162.195L279.458 164.488L281.752 168.864L286.133 166.579L283.846 162.195Z" fill="#FBE9F2"/>
<path d="M268.584 144.592L273.696 141.922L271.025 136.814L265.912 139.483L268.584 144.592Z" fill="white"/>
<path d="M265.367 139.291L271.201 136.244L274.251 142.08L268.417 145.12L265.367 139.291ZM270.855 137.351L266.468 139.636L268.762 144.02L273.15 141.728L270.855 137.351Z" fill="#FBE9F2"/>
<path d="M232.439 195.083L237.552 192.414L234.88 187.306L229.767 189.975L232.439 195.083Z" fill="white"/>
<path d="M229.223 189.792L235.063 186.745L238.106 192.573L232.272 195.62L229.223 189.792ZM234.711 187.844L230.33 190.137L232.618 194.521L237.005 192.228L234.711 187.844Z" fill="#FBE9F2"/>
<path d="M219.45 170.249L224.562 167.579L221.891 162.471L216.778 165.14L219.45 170.249Z" fill="white"/>
<path d="M216.232 164.983L222.066 161.936L225.116 167.765L219.282 170.812L216.232 164.983ZM221.721 163.036L217.333 165.328L219.628 169.712L224.015 167.42L221.721 163.036Z" fill="#FBE9F2"/>
<path d="M105.344 96.0349C104.717 101.464 104.717 106.948 105.344 112.377V96.0349Z" fill="white"/>
<path d="M105.344 96.0349C104.717 101.464 104.717 106.948 105.344 112.377" stroke="#37352F" stroke-linecap="round" stroke-linejoin="round"/>
</g>
<defs>
<clipPath id="clip0_556_2144">
<rect width="287" height="258" fill="white" transform="translate(0.5)"/>
</clipPath>
</defs>
</svg>
