<svg xmlns="http://www.w3.org/2000/svg" xmlns:xlink="http://www.w3.org/1999/xlink" width="101" height="88" fill="none" xmlns:v="https://vecta.io/nano"><style><![CDATA[.B{stroke-miterlimit:10}.C{stroke:#37352f}.D{fill:#e2f1ff}.E{fill:#fbe9f2}.F{fill:#37352f}.G{stroke-linecap:round}.H{stroke-linejoin:round}]]></style><g clip-path="url(#A)"><g class="B C"><path d="M72.958 1.207H44.836c-4.024 0-7.285 3.28-7.285 7.326v70.935c0 4.046 3.262 7.326 7.285 7.326h28.122c4.024 0 7.285-3.28 7.285-7.326V8.532c0-4.046-3.262-7.326-7.285-7.326z" fill="#fff"/><path d="M74.936 22.345H42.851a.98.98 0 0 0-.975.981v19.689a.98.98 0 0 0 .975.981h32.085a.98.98 0 0 0 .975-.981V23.326a.98.98 0 0 0-.975-.981z" class="D"/><path d="M41.875 44.004L75.911 23.44"/><path d="M75.911 44.004L41.875 23.44"/><path d="M7.883 17.652c3.752 0 6.793-3.058 6.793-6.831S11.635 3.99 7.883 3.99 1.09 7.048 1.09 10.821s3.041 6.831 6.793 6.831z" class="E"/><g fill="#defdff"><path d="M25.748 17.652c3.752 0 6.793-3.058 6.793-6.831S29.5 3.99 25.748 3.99s-6.793 3.058-6.793 6.831 3.041 6.831 6.793 6.831zM7.733 53.823c3.752 0 6.793-3.058 6.793-6.831s-3.041-6.831-6.793-6.831-6.794 3.058-6.794 6.83 3.041 6.831 6.793 6.831z"/></g><use xlink:href="#B" class="E"/><path d="M7.883 35.733c3.752 0 6.793-3.058 6.793-6.831s-3.041-6.831-6.793-6.831-6.793 3.058-6.793 6.831 3.041 6.831 6.793 6.831z" class="D"/><g fill="#fff3e8"><path d="M25.748 35.733c3.752 0 6.793-3.058 6.793-6.831s-3.041-6.831-6.793-6.831-6.793 3.058-6.793 6.831 3.041 6.831 6.793 6.831zM7.733 71.903c3.752 0 6.793-3.058 6.793-6.831s-3.041-6.831-6.793-6.831S.939 61.299.939 65.072s3.041 6.831 6.793 6.831z"/></g><path d="M25.598 71.903c3.752 0 6.793-3.058 6.793-6.831s-3.041-6.831-6.793-6.831-6.793 3.058-6.793 6.831 3.041 6.831 6.793 6.831z" class="D"/></g><g class="F"><path d="M10.572 10.636L8.05 8.409c-.046-.038-.103-.059-.163-.059s-.117.021-.163.059l-2.531 2.227c-.015.016-.026.036-.03.058a.12.12 0 0 0 .006.065c.008.021.023.038.041.051s.04.02.062.02h.615v2.218c.002.066.03.129.078.175s.111.072.177.072h.773c.049 0 .096-.02.13-.054s.054-.082.054-.131v-1.493h1.573v1.485c-.001.024.002.048.011.07s.021.043.037.06.036.031.058.041.046.014.069.014h.782c.065-.002.126-.029.172-.075a.26.26 0 0 0 .075-.173V10.83h.624a.11.11 0 0 0 .059-.024c.017-.014.03-.031.037-.051s.009-.042.004-.063-.015-.041-.03-.056zm16.389-1.07c0 .242-.071.478-.205.678a1.22 1.22 0 0 1-.546.449c-.222.092-.466.116-.702.068a1.21 1.21 0 0 1-.621-.336 1.22 1.22 0 0 1-.33-.627c-.046-.237-.021-.483.073-.705a1.22 1.22 0 0 1 .451-.545 1.21 1.21 0 0 1 .676-.201 1.2 1.2 0 0 1 .463.093c.147.061.28.151.392.265a1.21 1.21 0 0 1 .26.396 1.22 1.22 0 0 1 .089.466zm.817 3.739c-.034-.517-.262-1.002-.638-1.356s-.872-.551-1.388-.551a2.02 2.02 0 0 0-1.387.551c-.376.354-.604.839-.638 1.356h4.051zm-.202 51.36h-.211a1.63 1.63 0 0 0-.229-.539l.158-.159c.03-.032.046-.075.046-.119s-.016-.087-.046-.119l-.343-.345c-.015-.017-.033-.03-.054-.04a.15.15 0 0 0-.065-.014c-.022 0-.045.005-.065.014s-.039.023-.053.04l-.158.159a1.7 1.7 0 0 0-.536-.23v-.221c-.002-.045-.022-.088-.055-.119s-.076-.049-.121-.049h-.483c-.044.002-.085.02-.116.052s-.049.072-.051.116v.221a1.62 1.62 0 0 0-.536.23l-.158-.159c-.015-.017-.033-.03-.054-.04a.15.15 0 0 0-.065-.014c-.022 0-.045.005-.065.014s-.039.023-.054.04l-.343.345c-.03.033-.046.075-.046.119s.016.087.046.119l.158.159a1.65 1.65 0 0 0-.229.539h-.22c-.044.002-.085.021-.116.052s-.049.073-.051.116v.486c0 .045.017.089.048.122a.18.18 0 0 0 .119.055h.22a1.72 1.72 0 0 0 .229.539l-.158.159c-.03.033-.046.075-.046.119s.016.087.046.119l.343.345c.032.03.075.046.119.046a.18.18 0 0 0 .119-.046l.158-.159a1.82 1.82 0 0 0 .536.23v.212c0 .045.017.089.048.122s.074.053.119.055h.483c.047 0 .091-.019.124-.052s.051-.078.051-.125v-.212a1.93 1.93 0 0 0 .536-.23l.158.159c.032.03.075.046.119.046a.18.18 0 0 0 .119-.046l.343-.345c.03-.033.046-.075.046-.119s-.016-.087-.046-.119l-.158-.159a1.72 1.72 0 0 0 .229-.539h.211c.047 0 .091-.019.124-.052s.052-.078.052-.125v-.486c-.002-.045-.022-.088-.055-.119s-.076-.049-.121-.049zm-1.969 1.281c-.174 0-.344-.052-.488-.149a.88.88 0 0 1-.324-.397.89.89 0 0 1-.05-.511c.034-.171.118-.329.241-.452a.88.88 0 0 1 .45-.242c.171-.034.347-.017.508.05a.88.88 0 0 1 .394.325c.097.145.148.316.148.491a.89.89 0 0 1-.257.625c-.164.166-.388.259-.621.259zM9.12 47.831c.247-.27.411-.607.471-.97a1.9 1.9 0 0 0-.133-1.071 1.89 1.89 0 0 0-.694-.823 1.87 1.87 0 0 0-2.056 0 1.89 1.89 0 0 0-.694.823 1.9 1.9 0 0 0-.133 1.071c.06.362.224.699.471.97l1.186 1.396a.27.27 0 0 0 .305.063.27.27 0 0 0 .09-.063l1.186-1.396zm-1.389-2.033a.73.73 0 0 1 .412.121.74.74 0 0 1 .276.331c.057.136.073.285.046.43s-.097.278-.2.382-.234.176-.378.206a.73.73 0 0 1-.428-.041.74.74 0 0 1-.458-.686.75.75 0 0 1 .213-.522.74.74 0 0 1 .516-.221zm19.451 2.961v-2.077c0-.424-.168-.831-.466-1.131s-.703-.468-1.125-.468-.826.168-1.125.468A1.6 1.6 0 0 0 24 46.682v2.094c-.078.005-.152.039-.206.097a.31.31 0 0 0-.084.213.32.32 0 0 0 .093.225c.059.06.14.093.224.093h3.137a.33.33 0 0 0 .136-.014.3.3 0 0 0 .117-.071.33.33 0 0 0 .077-.114.32.32 0 0 0 .021-.136c0-.043-.009-.085-.026-.125a.31.31 0 0 0-.182-.169c-.04-.014-.083-.019-.126-.016z"/><path d="M25.599 45.401c.218 0 .395-.178.395-.398s-.177-.398-.395-.398-.396.178-.396.398.177.398.396.398zM9.393 28.177H6.361a.51.51 0 0 0-.51.513v1.803a.51.51 0 0 0 .51.512h3.032a.51.51 0 0 0 .51-.512V28.69a.51.51 0 0 0-.51-.513z"/></g><path d="M7.883 29.582c.68 0 1.23-.621 1.23-1.387s-.551-1.387-1.23-1.387-1.23.621-1.23 1.387.551 1.387 1.23 1.387z" stroke-width=".9" class="B C"/><g class="F"><path d="M26.267 27.744a.751.751 0 1 0 0-1.502.751.751 0 1 0 0 1.502zm0 3.827a.751.751 0 1 0 0-1.502.751.751 0 1 0 0 1.502zm-1.969-1.847a.751.751 0 1 0 0-1.502.751.751 0 1 0 0 1.502z"/></g><g class="C"><g class="B"><path d="M24.297 28.973l1.766-1.767m-1.766 1.766l1.766 1.767"/></g><g class="G H"><path d="M5.859 63.446h3.744m-3.744 1.626h3.744"/><path d="M5.859 66.707h3.744m33.151-15.271h29.133m-29.133 5.983h18.262m-18.262 5.974h22.928m-22.928 5.983h22.928"/></g><path d="M70.374 14.621a3.2 3.2 0 0 0 3.19-3.208 3.2 3.2 0 0 0-3.19-3.208 3.2 3.2 0 0 0-3.19 3.208 3.2 3.2 0 0 0 3.19 3.208z" class="B"/><path d="M72.984 13.57l1.485 1.493" class="G H"/><g class="B"><path d="M62.104 66.83h21.768a5.11 5.11 0 0 1 3.623 1.509c.961.966 1.501 2.277 1.501 3.643v4.781c0 .094-.037.184-.103.25a.35.35 0 0 1-.249.104h-26.54a5.11 5.11 0 0 1-3.623-1.509c-.961-.966-1.501-2.277-1.501-3.643s.54-2.677 1.501-3.643a5.11 5.11 0 0 1 3.623-1.509v.018z" class="E"/><path d="M94.164 60.406H67.246c-.107 0-.21-.043-.286-.119s-.118-.18-.118-.287v-6.822c0-1.573.621-3.081 1.727-4.193a5.88 5.88 0 0 1 4.17-1.737h21.425a5.88 5.88 0 0 1 4.17 1.737c1.106 1.112 1.728 2.62 1.728 4.193v1.299c0 1.573-.622 3.081-1.728 4.193a5.88 5.88 0 0 1-4.17 1.737z" fill="#defdff"/></g></g><g class="F"><path d="M65.093 72.787c.5 0 .905-.407.905-.91s-.405-.91-.905-.91a.91.91 0 1 0 0 1.82zm3.824 0a.91.91 0 1 0 0-1.82.91.91 0 1 0 0 1.82zm3.609 0c.5 0 .905-.407.905-.91s-.405-.91-.905-.91a.91.91 0 1 0 0 1.82zm11.84-18.708a.91.91 0 1 0 0-1.82.91.91 0 1 0 0 1.82zm-4.123 0c.5 0 .905-.407.905-.91s-.405-.91-.905-.91-.905.407-.905.91.405.91.905.91zm7.953 0a.91.91 0 1 0 0-1.82.91.91 0 1 0 0 1.82zm3.604 0a.91.91 0 1 0 0-1.82.91.91 0 1 0 0 1.82z"/></g></g><defs><clipPath id="A"><path fill="#fff" transform="translate(.5 .765)" d="M0 0h100v86.471H0z"/></clipPath><path id="B" d="M25.598 53.823c3.752 0 6.793-3.058 6.793-6.831s-3.041-6.831-6.793-6.831-6.793 3.058-6.793 6.831 3.041 6.831 6.793 6.831z"/></defs></svg>