<svg xmlns="http://www.w3.org/2000/svg" width="25" height="25" fill="none" xmlns:v="https://vecta.io/nano"><path d="M22.055 17.722l-2.946-5.088a7.5 7.5 0 0 0 .913-3.609 7.61 7.61 0 0 0-7.61-7.61 7.61 7.61 0 0 0-7.61 7.61 7.5 7.5 0 0 0 .913 3.609l-2.946 5.088c-.096.165-.146.353-.146.545s.051.379.147.544.234.303.4.398a1.09 1.09 0 0 0 .545.144h3.12l1.587 2.674a1.09 1.09 0 0 0 .196.239c.202.194.47.303.75.304h.152a1.09 1.09 0 0 0 .459-.175c.138-.092.252-.215.335-.358l2.098-3.61 2.098 3.642a1.09 1.09 0 0 0 .337.352c.138.09.294.148.457.17h.152c.284.002.557-.108.761-.304.073-.066.136-.143.185-.228l1.587-2.674h3.12a1.09 1.09 0 0 0 .946-.544c.102-.169.155-.363.155-.56s-.054-.391-.155-.56zM9.356 19.386l-.968-1.62c-.095-.161-.23-.294-.392-.387s-.345-.143-.532-.145H5.584l1.555-2.696a7.61 7.61 0 0 0 3.881 2l-1.663 2.849zm3.055-4.925c-1.075 0-2.126-.319-3.02-.916s-1.591-1.446-2.002-2.44-.519-2.086-.309-3.141.727-2.023 1.488-2.783 1.729-1.278 2.783-1.488 2.148-.102 3.141.309 1.842 1.108 2.44 2.002.916 1.945.916 3.02c0 1.442-.573 2.824-1.592 3.844s-2.402 1.592-3.844 1.592zm4.947 2.772c-.187.002-.37.052-.532.145s-.297.227-.392.387l-.968 1.62-1.653-2.881c1.456-.279 2.801-.974 3.87-2.001l1.555 2.696-1.881.033z" fill="#37352f"/></svg>