<svg xmlns="http://www.w3.org/2000/svg" width="25" height="25" fill="none" xmlns:v="https://vecta.io/nano"><g clip-path="url(#A)" stroke="#37352f" stroke-width="2"><g stroke-linecap="round" stroke-linejoin="round"><path d="M23.123 21.001v-2a4 4 0 0 0-3-3.87m-3 5.87v-2a4 4 0 0 0-4-4h-8a4 4 0 0 0-4 4v2m15-17.87a4 4 0 0 1 0 7.75"/></g><path d="M9.123 11.001a4 4 0 1 0 0-8 4 4 0 1 0 0 8z" stroke-linejoin="round"/></g><defs><clipPath id="A"><path fill="#fff" transform="translate(.123 .001)" d="M0 0h24v24H0z"/></clipPath></defs></svg>