<svg xmlns="http://www.w3.org/2000/svg" xmlns:xlink="http://www.w3.org/1999/xlink" width="18" height="18" fill="none" xmlns:v="https://vecta.io/nano"><g stroke="#37352f" stroke-width="1.2" stroke-linejoin="round"><use xlink:href="#B"/><use xlink:href="#B" y="5.033"/><path d="M11.891 6.707h-.086c-1.352 0-2.448 1.127-2.448 2.516s1.096 2.516 2.448 2.516h.086c1.352 0 2.448-1.127 2.448-2.516s-1.096-2.516-2.448-2.516zM6.823 11.74h2.534v2.414c0 .691-.267 1.354-.742 1.842a2.5 2.5 0 0 1-1.792.763h0c-.647 0-1.267-.263-1.726-.732s-.718-1.106-.722-1.771h0c0-.667.258-1.307.717-1.779s1.082-.737 1.731-.737h0z"/><path d="M11.891 6.707H9.357V1.674h2.534c.649 0 1.272.265 1.731.737s.717 1.112.717 1.779-.258 1.307-.717 1.779-1.082.737-1.731.737h0z"/></g><defs ><path id="B" d="M6.823 1.674h2.534v5.033H6.823c-.649 0-1.272-.265-1.731-.737s-.717-1.112-.717-1.779h0c0-.667.258-1.307.717-1.779s1.082-.737 1.731-.737h0z"/></defs></svg>