<svg xmlns="http://www.w3.org/2000/svg" width="25" height="25" fill="none" xmlns:v="https://vecta.io/nano"><path d="M8.959 11.502a1 1 0 0 0-.924.617 1 1 0 0 0 .217 1.09 1 1 0 0 0 1.09.217 1 1 0 0 0 .617-.924 1 1 0 0 0-1-1h0zm4 0a1 1 0 0 0-.924.617 1 1 0 0 0 .217 1.09 1 1 0 0 0 1.09.217 1 1 0 0 0 .617-.924 1 1 0 0 0-1-1zm4 0a1 1 0 0 0-.924.617 1 1 0 0 0 .217 1.09 1 1 0 0 0 1.09.217 1 1 0 0 0 .617-.924 1 1 0 0 0-1-1zm-4-9a10 10 0 0 0-7.071 2.929 10 10 0 0 0-2.929 7.071 9.89 9.89 0 0 0 2.26 6.33l-2 2a1 1 0 0 0-.21 1.09 1 1 0 0 0 .95.58h9a10 10 0 0 0 10-10 10 10 0 0 0-10-10h0zm0 18h-6.59l.93-.93a1 1 0 0 0 .3-.71 1 1 0 0 0-.3-.7 8 8 0 0 1-1.001-10.1 8 8 0 0 1 9.711-2.953 8 8 0 0 1 4.791 8.948 8 8 0 0 1-7.841 6.445h0z" fill="#37352f"/></svg>