<svg width="25" height="25" viewBox="0 0 25 25" fill="none" xmlns="http://www.w3.org/2000/svg">
<path d="M8.95885 11.5023C8.76107 11.5023 8.56773 11.561 8.40328 11.6708C8.23883 11.7807 8.11066 11.9369 8.03497 12.1196C7.95928 12.3024 7.93948 12.5034 7.97807 12.6974C8.01665 12.8914 8.11189 13.0696 8.25174 13.2094C8.3916 13.3493 8.56978 13.4445 8.76376 13.4831C8.95774 13.5217 9.15881 13.5019 9.34153 13.4262C9.52426 13.3505 9.68044 13.2223 9.79032 13.0579C9.9002 12.8934 9.95885 12.7001 9.95885 12.5023C9.95885 12.2371 9.85349 11.9827 9.66596 11.7952C9.47842 11.6077 9.22407 11.5023 8.95885 11.5023V11.5023ZM12.9589 11.5023C12.7611 11.5023 12.5677 11.561 12.4033 11.6708C12.2388 11.7807 12.1107 11.9369 12.035 12.1196C11.9593 12.3024 11.9395 12.5034 11.9781 12.6974C12.0167 12.8914 12.1119 13.0696 12.2517 13.2094C12.3916 13.3493 12.5698 13.4445 12.7638 13.4831C12.9577 13.5217 13.1588 13.5019 13.3415 13.4262C13.5243 13.3505 13.6804 13.2223 13.7903 13.0579C13.9002 12.8934 13.9589 12.7001 13.9589 12.5023C13.9589 12.2371 13.8535 11.9827 13.666 11.7952C13.4784 11.6077 13.2241 11.5023 12.9589 11.5023ZM16.9589 11.5023C16.7611 11.5023 16.5677 11.561 16.4033 11.6708C16.2388 11.7807 16.1107 11.9369 16.035 12.1196C15.9593 12.3024 15.9395 12.5034 15.9781 12.6974C16.0167 12.8914 16.1119 13.0696 16.2517 13.2094C16.3916 13.3493 16.5698 13.4445 16.7638 13.4831C16.9577 13.5217 17.1588 13.5019 17.3415 13.4262C17.5243 13.3505 17.6804 13.2223 17.7903 13.0579C17.9002 12.8934 17.9589 12.7001 17.9589 12.5023C17.9589 12.2371 17.8535 11.9827 17.666 11.7952C17.4784 11.6077 17.2241 11.5023 16.9589 11.5023ZM12.9589 2.50232C11.6456 2.50232 10.3453 2.76098 9.13202 3.26352C7.91876 3.76607 6.81637 4.50267 5.88778 5.43125C4.01242 7.30662 2.95885 9.85015 2.95885 12.5023C2.95011 14.8115 3.74964 17.0509 5.21885 18.8323L3.21885 20.8323C3.08009 20.9729 2.9861 21.1515 2.94872 21.3455C2.91135 21.5395 2.93227 21.7402 3.00885 21.9223C3.09191 22.1022 3.22655 22.2534 3.3957 22.3567C3.56484 22.46 3.76085 22.5107 3.95885 22.5023H12.9589C15.611 22.5023 18.1546 21.4488 20.0299 19.5734C21.9053 17.698 22.9589 15.1545 22.9589 12.5023C22.9589 9.85015 21.9053 7.30662 20.0299 5.43125C18.1546 3.55589 15.611 2.50232 12.9589 2.50232V2.50232ZM12.9589 20.5023H6.36885L7.29885 19.5723C7.39334 19.4797 7.46851 19.3693 7.52001 19.2474C7.5715 19.1255 7.5983 18.9946 7.59885 18.8623C7.59509 18.5986 7.48726 18.3469 7.29885 18.1623C5.98944 16.8544 5.17402 15.1329 4.99154 13.2911C4.80906 11.4494 5.27079 9.60133 6.29808 8.06184C7.32536 6.52236 8.85464 5.38668 10.6254 4.84829C12.3961 4.30991 14.2987 4.40212 16.0091 5.10923C17.7194 5.81634 19.1317 7.09459 20.0053 8.72621C20.8789 10.3578 21.1597 12.2419 20.8 14.0573C20.4402 15.8728 19.4622 17.5074 18.0324 18.6826C16.6026 19.8578 14.8096 20.5009 12.9589 20.5023V20.5023Z" fill="#37352F"/>
</svg>
