<svg xmlns="http://www.w3.org/2000/svg" width="20" height="20" fill="none" xmlns:v="https://vecta.io/nano"><style><![CDATA[.B{stroke:#37352f}.C{fill:#37352f}.D{stroke-linejoin:round}.E{stroke-width:.5}.F{stroke-miterlimit:10}]]></style><g class="B"><g class="D"><path d="M18.264 9.651c.101-4.346-3.494-7.962-8.031-8.077S1.936 4.89 1.835 9.236s3.494 7.962 8.031 8.077 8.296-3.316 8.398-7.662z" class="C E"/><path d="M10.8 4.601H9.276c-3.721 0-6.738 3.141-6.738 7.016s3.017 7.016 6.738 7.016H10.8c3.721 0 6.738-3.141 6.738-7.016S14.521 4.601 10.8 4.601z" fill="#fff"/><path d="M2.358 9.657s6.2-4.667 15.477 0c0-.078-.254-2.551-.254-2.551l-1.987-2.474-4.706-1.136s-2.6-.249-2.779-.187-3.078.716-3.167.809L3.3 5.472 2.538 6.95 1.91 9.284l.209.373h.239z" class="C E"/></g><path d="M6.741 13.902c1.353 0 2.45-1.142 2.45-2.551S8.094 8.8 6.741 8.8s-2.45 1.142-2.45 2.551 1.097 2.551 2.45 2.551z" class="F"/></g><path d="M6.875 11.989c.338 0 .613-.286.613-.638s-.274-.638-.613-.638-.613.285-.613.638.274.638.613.638z" class="C"/><path d="M13.189 13.902c1.353 0 2.45-1.142 2.45-2.551S14.543 8.8 13.189 8.8s-2.45 1.142-2.45 2.551 1.097 2.551 2.45 2.551z" class="B F"/><g class="C"><path d="M13.055 11.989c.338 0 .613-.286.613-.638s-.274-.638-.613-.638-.613.285-.613.638.274.638.613.638z"/><path d="M4.345 8.584s-1.195 5.912 0 8.774c.045.1.066.21.059.32a.67.67 0 0 1-.096.31.64.64 0 0 1-.228.223.61.61 0 0 1-.303.081c-.589.066-1.183-.046-1.713-.322s-.972-.704-1.275-1.234c-.971-2.194.762-7.701 1.345-9.427l2.211 1.276zm11.309 0s1.18 5.912 0 8.774c-.045.1-.066.21-.059.32a.67.67 0 0 0 .096.31.64.64 0 0 0 .228.223.61.61 0 0 0 .303.081c.589.066 1.183-.046 1.713-.322s.972-.704 1.275-1.234c.971-2.194-.762-7.701-1.344-9.427l-2.211 1.276z" class="B D E"/><path d="M10.558 10.556H9.362v.72h1.195v-.72z"/></g><path d="M11.233 15.263c-.124.259-.315.477-.551.629a1.45 1.45 0 0 1-1.572 0c-.236-.152-.427-.37-.551-.629" stroke-linecap="round" class="B D"/></svg>