<svg xmlns="http://www.w3.org/2000/svg" width="24" height="25" fill="#37352f" xmlns:v="https://vecta.io/nano"><path d="M18.773 2.504H4.941c-.786 0-1.54.316-2.096.879s-.868 1.325-.868 2.121v13.997c0 .796.312 1.558.868 2.121s1.31.878 2.096.878h13.832c.163-.002.325-.019.484-.05l.296-.07h.069.049l.366-.14.128-.07.306-.18a3.75 3.75 0 0 0 .375-.32l.069-.09c.097-.099.186-.207.267-.32l.089-.13c.069-.111.128-.228.178-.35.027-.048.05-.098.069-.15.049-.12.079-.25.119-.38v-.15a2.63 2.63 0 0 0 .099-.6V5.504a3.02 3.02 0 0 0-.868-2.121c-.556-.562-1.31-.879-2.096-.879zM4.941 20.501a.98.98 0 0 1-.699-.293c-.185-.187-.289-.442-.289-.707v-4.309l3.251-3.299c.092-.094.201-.168.322-.219s.25-.077.38-.077.26.026.38.077.23.125.322.219l8.497 8.608H4.941zm14.82-1a1.01 1.01 0 0 1-.069.36 1 1 0 0 1-.079.14.95.95 0 0 1-.089.12l-5.286-5.349.87-.88a.99.99 0 0 1 .322-.219.98.98 0 0 1 .76 0 .99.99 0 0 1 .322.219h0l3.251 3.299v2.31zm0-5.139l-1.857-1.86c-.566-.543-1.315-.845-2.095-.845s-1.529.303-2.095.845l-.869.88-2.846-2.879c-.565-.543-1.315-.846-2.095-.846s-1.529.303-2.095.846l-1.857 1.86V5.504c0-.265.104-.519.289-.707a.98.98 0 0 1 .699-.293h13.832a.98.98 0 0 1 .699.293c.185.188.289.442.289.707v8.858z"/><ellipse cx="14.328" cy="9.003" rx="1.482" ry="1.5"/></svg>