<svg xmlns="http://www.w3.org/2000/svg" width="18" height="18" fill="none" xmlns:v="https://vecta.io/nano"><g clip-path="url(#A)"><path fill="#fff" d="M0 0h18v18H0z"/><path d="M11.288 3.75a3.75 3.75 0 0 1 2.963 2.963M11.288.75a6.75 6.75 0 0 1 5.963 5.955m-.75 5.985v2.25a1.5 1.5 0 0 1-.486 1.111 1.5 1.5 0 0 1-1.149.389c-2.308-.251-4.525-1.039-6.473-2.303-1.812-1.151-3.348-2.688-4.5-4.5C2.625 7.681 1.836 5.453 1.59 3.135a1.5 1.5 0 0 1 .386-1.146A1.5 1.5 0 0 1 3.083 1.5h2.25a1.5 1.5 0 0 1 1.5 1.29 9.63 9.63 0 0 0 .525 2.108A1.5 1.5 0 0 1 7.02 6.48l-.952.952a12 12 0 0 0 4.5 4.5l.952-.952a1.5 1.5 0 0 1 1.583-.338 9.63 9.63 0 0 0 2.108.525 1.5 1.5 0 0 1 1.29 1.522z" stroke="#37352f" stroke-width="2" stroke-linecap="round" stroke-linejoin="round"/></g><defs><clipPath id="A"><path fill="#fff" d="M0 0h18v18H0z"/></clipPath></defs></svg>