<svg xmlns="http://www.w3.org/2000/svg" width="16" height="20" fill="none" xmlns:v="https://vecta.io/nano"><path d="M5 8h1a1 1 0 0 0 1-1 1 1 0 0 0-1-1H5a1 1 0 0 0-1 1 1 1 0 0 0 1 1h0zm0 2a1 1 0 0 0-1 1 1 1 0 0 0 1 1h6a1 1 0 0 0 1-1 1 1 0 0 0-1-1H5zm11-3.06c-.01-.092-.03-.182-.06-.27v-.09a1.07 1.07 0 0 0-.19-.28h0l-6-6a1.07 1.07 0 0 0-.28-.19.32.32 0 0 0-.09 0A.88.88 0 0 0 9.05 0H3a3 3 0 0 0-3 3v14a3 3 0 0 0 3 3h10a3 3 0 0 0 3-3V7v-.06zm-6-3.53L12.59 6H11a1 1 0 0 1-1-1V3.41zM14 17a1 1 0 0 1-1 1H3a1 1 0 0 1-1-1V3a1 1 0 0 1 1-1h5v3a3 3 0 0 0 3 3h3v9zm-3-3H5a1 1 0 0 0-1 1 1 1 0 0 0 1 1h6a1 1 0 0 0 1-1 1 1 0 0 0-1-1z" fill="#37352f"/></svg>