<svg xmlns="http://www.w3.org/2000/svg" width="25" height="25" fill="none" xmlns:v="https://vecta.io/nano"><path d="M18.007 3.322a8 8 0 0 0-6.68-1.66 8 8 0 0 0-6.27 6.32 8.07 8.07 0 0 0 1.72 6.65 4.54 4.54 0 0 1 1.14 2.87v3a3 3 0 0 0 3 3h4a3 3 0 0 0 3-3v-2.81a5.17 5.17 0 0 1 1.22-3.19 8 8 0 0 0-1.13-11.2v.02zm-2.09 17.18a1 1 0 0 1-1 1h-4a1 1 0 0 1-1-1v-1h6v1zm1.67-7.24a7.13 7.13 0 0 0-1.67 4.24h-2v-3a1 1 0 0 0-1-1 1 1 0 0 0-1 1v3h-2a6.5 6.5 0 0 0-1.6-4.16 6 6 0 0 1-1.059-5.82 6 6 0 0 1 4.449-3.9 6 6 0 0 1 5.002 1.227 6 6 0 0 1 2.208 4.653 5.89 5.89 0 0 1-1.33 3.76h0z" fill="#37352f"/></svg>