<svg xmlns="http://www.w3.org/2000/svg" width="20" height="20" fill="none" xmlns:v="https://vecta.io/nano"><path d="M10 0A10 10 0 0 0 .761 6.173a10 10 0 0 0-.569 5.778 10 10 0 0 0 7.857 7.857 10 10 0 0 0 10.266-4.252 10 10 0 0 0 .924-9.383A10 10 0 0 0 13.827.761 10 10 0 0 0 10 0zm0 18a8 8 0 0 1-7.391-4.938 8 8 0 0 1 1.734-8.718 8 8 0 0 1 8.718-1.734A8 8 0 0 1 18 10a8 8 0 0 1-8 8zm0-14a1 1 0 0 0-1 1v4.42l-2.1 1.21a1 1 0 0 0-.473 1.128 1 1 0 0 0 .973.742 1 1 0 0 0 .5-.13l2.6-1.5.09-.09.16-.13c.039-.05.073-.103.1-.16a.89.89 0 0 0 .08-.17.65.65 0 0 0 .05-.2L11 10V5a1 1 0 0 0-1-1z" fill="#37352f"/></svg>